<svg width="56" height="56" viewBox="0 0 56 56" fill="none" xmlns="http://www.w3.org/2000/svg">
<g filter="url(#filter0_b_11455_140847)">
<path d="M41.7322 4.29297C41.7322 5.55722 35.635 6.58209 28.1137 6.58209C20.5924 6.58209 14.4951 5.55722 14.4951 4.29297V9.63425L10.6299 12.7136C9.13837 13.9018 8.26953 15.7049 8.26953 17.6118V47.7863L9.82593 51.6015C9.82593 52.8657 18.0136 53.8906 28.1137 53.8906C38.2137 53.8906 46.4014 52.8657 46.4014 51.6015L47.9578 47.7863V17.6118C47.9578 15.7049 47.089 13.9018 45.5975 12.7136L41.7322 9.63425V4.29297Z" fill="#DCEEFF" fill-opacity="0.2"/>
</g>
<g filter="url(#filter1_b_11455_140847)">
<path d="M41.7322 4.29297C41.7322 5.55722 35.635 6.58209 28.1137 6.58209C20.5924 6.58209 14.4951 5.55722 14.4951 4.29297V9.63425L10.6299 12.7136C9.13837 13.9018 8.26953 15.7049 8.26953 17.6118V47.7863L9.82593 51.6015C9.82593 52.8657 18.0136 53.8906 28.1137 53.8906C38.2137 53.8906 46.4014 52.8657 46.4014 51.6015L47.9578 47.7863V17.6118C47.9578 15.7049 47.089 13.9018 45.5975 12.7136L41.7322 9.63425V4.29297Z" fill="#B6DEFF" fill-opacity="0.5"/>
</g>
<g filter="url(#filter2_b_11455_140847)">
<path d="M46.3203 51.0668C46.3203 52.5372 38.1443 53.7293 28.0586 53.7293C17.9729 53.7293 9.79688 52.5372 9.79688 51.0668C9.79688 49.5963 17.9729 48.4043 28.0586 48.4043C38.1443 48.4043 46.3203 49.5963 46.3203 51.0668Z" fill="#0070FF" fill-opacity="0.15"/>
</g>
<g filter="url(#filter3_b_11455_140847)">
<path d="M41.2273 51.9198C41.2273 53.0685 35.3282 53.9997 28.0512 53.9997C20.7742 53.9997 14.875 53.0685 14.875 51.9198C14.875 50.7711 20.7742 49.8398 28.0512 49.8398C35.3282 49.8398 41.2273 50.7711 41.2273 51.9198Z" fill="#67A9FF" fill-opacity="0.3"/>
</g>
<g filter="url(#filter4_b_11455_140847)">
<path fill-rule="evenodd" clip-rule="evenodd" d="M27.0267 6.57165C20.0252 6.4766 14.5195 5.49139 14.5195 4.29004V5.54386C16.9525 6.16737 21.1479 6.57916 25.9154 6.57916C26.2896 6.57916 26.6602 6.57662 27.0267 6.57165ZM27.0267 53.8835C36.6093 53.8116 44.2031 52.8161 44.2031 51.5985L45.2956 48.9206C45.602 48.1696 45.7596 47.3662 45.7596 46.5551L45.7596 18.9501C45.7596 16.1957 44.5046 13.5913 42.3502 11.875L40.583 10.4671C39.9201 9.93896 39.5339 9.13761 39.5339 8.29008V5.54386C40.9393 5.18371 41.7566 4.75292 41.7566 4.29004V8.29008C41.7566 9.13761 42.1427 9.93896 42.8056 10.4671L44.5729 11.875C46.7272 13.5913 47.9822 16.1957 47.9822 18.9501V47.7833L46.4258 51.5985C46.4258 52.8628 38.2381 53.8877 28.1381 53.8877C27.7649 53.8877 27.3944 53.8863 27.0267 53.8835Z" fill="#0070FF" fill-opacity="0.1"/>
</g>
<g filter="url(#filter5_b_11455_140847)">
<path fill-rule="evenodd" clip-rule="evenodd" d="M28.1137 6.57916C35.635 6.57916 41.7322 5.55429 41.7322 4.29004V7.08919C39.2881 7.70161 35.1313 8.1047 30.4145 8.1047C22.8932 8.1047 16.7959 7.07982 16.7959 5.81558V9.81562C16.7959 10.6631 16.4098 11.4645 15.7469 11.9926L13.9797 13.4005C11.8253 15.1168 10.5703 17.7212 10.5703 20.4756V47.5347C10.5703 48.7063 10.7979 49.8668 11.2405 50.9516L11.9407 52.6681C10.5905 52.3489 9.82593 51.9849 9.82593 51.5985L8.26953 47.7833V18.9501C8.26953 16.1956 9.52452 13.5913 11.6789 11.875L13.4461 10.4671C14.109 9.93896 14.4951 9.13761 14.4951 8.29009V4.29004C14.4951 5.55429 20.5924 6.57916 28.1137 6.57916Z" fill="white"/>
</g>
<path d="M14.4951 9.63184L13.2533 10.3928C10.157 12.2903 8.26953 15.6608 8.26953 19.2923V45.7367C8.26953 47.0886 8.53214 48.4276 9.04278 49.6793L9.15579 49.9563C9.59834 51.0411 10.1454 52.1601 11.2691 52.4919C14.0487 53.3125 20.5441 53.8882 28.1137 53.8882C35.6832 53.8882 42.1787 53.3125 44.9583 52.4919C46.0819 52.1601 46.629 51.0411 47.0716 49.9563L47.1846 49.6793C47.6952 48.4276 47.9578 47.0886 47.9578 45.7367V19.2923C47.9578 15.6608 46.0703 12.2903 42.974 10.3928L41.7322 9.63184" stroke="url(#paint0_linear_11455_140847)" stroke-width="0.554067" stroke-linecap="round" stroke-linejoin="round"/>
<path fill-rule="evenodd" clip-rule="evenodd" d="M41.8554 4.29297H14.3789V8.05279C14.3763 8.07111 14.375 8.08949 14.375 8.10792C14.375 9.37217 20.5258 10.397 28.1133 10.397C35.7002 10.397 41.8507 9.3723 41.8515 8.10817H41.8554V4.29297Z" fill="#8AB5F5"/>
<g style="mix-blend-mode:overlay">
<path fill-rule="evenodd" clip-rule="evenodd" d="M14.4609 8.28551C16.7742 9.00631 21.3353 9.49671 26.5838 9.49671C34.1712 9.49671 40.322 8.47184 40.322 7.20759V7.20691V4.29102H41.9119V8.10622H41.8963V8.10693C41.8963 9.37118 35.7454 10.3961 28.158 10.3961C20.9312 10.3961 15.0078 9.4663 14.4609 8.28551Z" fill="#040A1F" fill-opacity="0.6"/>
</g>
<path d="M14.3789 4.29297V4.01594C14.2259 4.01594 14.1019 4.13997 14.1019 4.29297H14.3789ZM41.8554 4.29297H42.1324C42.1324 4.13997 42.0084 4.01594 41.8554 4.01594V4.29297ZM14.3789 8.05279L14.6532 8.09169C14.655 8.07881 14.6559 8.06581 14.6559 8.05279H14.3789ZM41.8515 8.10817V7.83114C41.6986 7.83114 41.5746 7.95506 41.5745 8.10799L41.8515 8.10817ZM41.8554 8.10817V8.3852C42.0084 8.3852 42.1324 8.26117 42.1324 8.10817H41.8554ZM14.3789 4.57H41.8554V4.01594H14.3789V4.57ZM14.6559 8.05279V4.29297H14.1019V8.05279H14.6559ZM14.652 8.10792C14.652 8.10264 14.6524 8.09726 14.6532 8.09169L14.1046 8.01388C14.1002 8.04497 14.098 8.07634 14.098 8.10792H14.652ZM28.1133 10.12C24.3299 10.12 20.9113 9.86436 18.4444 9.45331C17.2087 9.24741 16.2248 9.0046 15.5562 8.74119C15.2205 8.60895 14.9804 8.47766 14.829 8.35443C14.6742 8.22839 14.652 8.14493 14.652 8.10792H14.098C14.098 8.38697 14.268 8.61209 14.4792 8.78408C14.6939 8.95888 14.9936 9.11508 15.3531 9.2567C16.0748 9.54103 17.1029 9.79149 18.3533 9.99984C20.8586 10.4173 24.3091 10.6741 28.1133 10.6741V10.12ZM41.5745 8.10799C41.5745 8.14503 41.5522 8.22854 41.3973 8.3546C41.2458 8.47784 41.0057 8.60912 40.67 8.74135C40.0012 9.00473 39.0173 9.24751 37.7816 9.45339C35.3147 9.86439 31.8963 10.12 28.1133 10.12V10.6741C31.9171 10.6741 35.3674 10.4173 37.8727 9.99992C39.1231 9.79159 40.1512 9.54117 40.873 9.25687C41.2325 9.11527 41.5323 8.95909 41.747 8.78433C41.9583 8.61239 42.1284 8.38734 42.1285 8.10835L41.5745 8.10799ZM41.8554 7.83114H41.8515V8.3852H41.8554V7.83114ZM41.5784 4.29297V8.10817H42.1324V4.29297H41.5784Z" fill="url(#paint1_linear_11455_140847)"/>
<path d="M21.8483 17.5196C23.7968 17.627 25.8881 17.6853 28.0644 17.6853C30.2408 17.6853 32.3321 17.627 34.2806 17.5196C34.6477 17.4994 34.9336 17.195 34.9336 16.8273L34.9336 15.9325C34.9336 15.5313 34.5954 15.2135 34.1948 15.2352C32.2708 15.3396 30.2089 15.3961 28.0644 15.3961C25.92 15.3961 23.8581 15.3396 21.9341 15.2352C21.5335 15.2135 21.1953 15.5313 21.1953 15.9325V16.8273C21.1953 17.195 21.4812 17.4994 21.8483 17.5196Z" fill="#B3D5FF"/>
<g filter="url(#filter6_b_11455_140847)">
<path fill-rule="evenodd" clip-rule="evenodd" d="M21.8087 17.5203C21.8086 17.5156 21.8086 17.5109 21.8086 17.5062V16.6114C21.8086 16.2102 22.1468 15.8924 22.5474 15.9141C24.4714 16.0185 26.5333 16.075 28.6777 16.075C30.8222 16.075 32.884 16.0185 34.8081 15.9141C34.8479 15.9119 34.8872 15.9131 34.9255 15.9175C34.9155 15.5249 34.5815 15.217 34.187 15.2384C32.2629 15.3427 30.2011 15.3993 28.0566 15.3993C25.9122 15.3993 23.8503 15.3427 21.9263 15.2384C21.5257 15.2166 21.1875 15.5345 21.1875 15.9357V16.8305C21.1875 17.1874 21.457 17.4848 21.8087 17.5203Z" fill="white"/>
</g>
<g style="mix-blend-mode:overlay">
<path fill-rule="evenodd" clip-rule="evenodd" d="M21.1875 16.8184C23.1028 16.9217 25.154 16.9777 27.2871 16.9777C29.4635 16.9777 31.5547 16.9194 33.5032 16.812C33.8703 16.7918 34.1562 16.4874 34.1562 16.1197L34.1562 15.24C34.1665 15.2395 34.1767 15.2389 34.187 15.2384C34.5876 15.2166 34.9258 15.5345 34.9258 15.9357L34.9258 16.8305C34.9258 17.1981 34.6399 17.5026 34.2728 17.5228C32.3243 17.6301 30.233 17.6884 28.0566 17.6884C25.8803 17.6884 23.789 17.6301 21.8405 17.5228C21.4734 17.5026 21.1875 17.1981 21.1875 16.8305V16.8184Z" fill="#040A1F" fill-opacity="0.6"/>
</g>
<path opacity="0.5" d="M21.8483 17.5196C23.7968 17.627 25.8881 17.6853 28.0644 17.6853C30.2408 17.6853 32.3321 17.627 34.2806 17.5196C34.6477 17.4994 34.9336 17.195 34.9336 16.8273L34.9336 15.9325C34.9336 15.5313 34.5954 15.2135 34.1948 15.2352C32.2708 15.3396 30.2089 15.3961 28.0644 15.3961C25.92 15.3961 23.8581 15.3396 21.9341 15.2352C21.5335 15.2135 21.1953 15.5313 21.1953 15.9325V16.8273C21.1953 17.195 21.4812 17.4994 21.8483 17.5196Z" stroke="url(#paint2_linear_11455_140847)" stroke-width="0.554067" stroke-linecap="round" stroke-linejoin="round"/>
<path d="M41.8515 4.28912C41.8515 5.55337 35.7007 6.57824 28.1133 6.57824C20.5258 6.57824 14.375 5.55337 14.375 4.28912C14.375 3.02487 20.5258 2 28.1133 2C35.7007 2 41.8515 3.02487 41.8515 4.28912Z" fill="#B3D5FF"/>
<g style="mix-blend-mode:overlay">
<path d="M37.773 5.12389C37.773 6.08114 33.4262 6.85715 28.0642 6.85715C22.7022 6.85715 18.3555 6.08114 18.3555 5.12389C18.3555 4.16663 22.7022 3.39062 28.0642 3.39062C33.4262 3.39062 37.773 4.16663 37.773 5.12389Z" fill="#040A1F" fill-opacity="0.6"/>
</g>
<g style="mix-blend-mode:overlay">
<path fill-rule="evenodd" clip-rule="evenodd" d="M40.5493 3.31738C41.3846 3.61295 41.8516 3.94312 41.8516 4.29146C41.8516 5.55571 35.7007 6.58059 28.1133 6.58059C21.0985 6.58059 15.3116 5.70457 14.4781 4.57327C16.6744 5.3504 21.4173 5.88831 26.9141 5.88831C34.5015 5.88831 40.6523 4.86343 40.6523 3.59919C40.6523 3.50378 40.6173 3.40973 40.5493 3.31738Z" fill="#040A1F" fill-opacity="0.6"/>
</g>
<path fill-rule="evenodd" clip-rule="evenodd" d="M16.2683 5.44077C15.0841 5.10247 14.4057 4.709 14.4057 4.28912C14.4057 3.02487 20.5565 2 28.1439 2C34.7871 2 40.329 2.78566 41.6055 3.82975C39.2241 3.14944 34.7974 2.69228 29.7299 2.69228C22.1424 2.69228 15.9916 3.71715 15.9916 4.9814C15.9916 5.13873 16.0869 5.29236 16.2683 5.44077Z" fill="white"/>
<path d="M41.8515 4.28912C41.8515 5.55337 35.7007 6.57824 28.1133 6.57824C20.5258 6.57824 14.375 5.55337 14.375 4.28912C14.375 3.02487 20.5258 2 28.1133 2C35.7007 2 41.8515 3.02487 41.8515 4.28912Z" stroke="url(#paint3_linear_11455_140847)" stroke-width="0.554067" stroke-linecap="round" stroke-linejoin="round"/>
<path opacity="0.4" d="M36.3816 51.5722C36.3816 52.1465 32.9663 52.6121 28.7533 52.6121C24.5403 52.6121 21.125 52.1465 21.125 51.5722C21.125 50.9978 24.5403 50.5322 28.7533 50.5322C32.9663 50.5322 36.3816 50.9978 36.3816 51.5722Z" fill="#1F58AC"/>
<path fill-rule="evenodd" clip-rule="evenodd" d="M27.0424 6.57165C20.0408 6.4766 14.5352 5.49139 14.5352 4.29004V5.54386C16.9681 6.16737 21.1635 6.57916 25.931 6.57916C26.3052 6.57916 26.6758 6.57662 27.0424 6.57165ZM27.0424 53.8835C36.6249 53.8116 44.2188 52.8161 44.2188 51.5985L45.3112 48.9206C45.6176 48.1696 45.7752 47.3662 45.7752 46.5551L45.7752 18.9501C45.7752 16.1957 44.5202 13.5913 42.3658 11.875L40.5986 10.4671C39.9357 9.93896 39.5496 9.13761 39.5496 8.29008V5.54386C40.9549 5.18371 41.7722 4.75292 41.7722 4.29004V8.29008C41.7722 9.13761 42.1584 9.93896 42.8212 10.4671L44.5885 11.875C46.7428 13.5913 47.9978 16.1957 47.9978 18.9501V47.7833L46.4414 51.5985C46.4414 52.8628 38.2537 53.8877 28.1537 53.8877C27.7805 53.8877 27.41 53.8863 27.0424 53.8835Z" fill="url(#paint4_linear_11455_140847)" fill-opacity="0.2"/>
<path fill-rule="evenodd" clip-rule="evenodd" d="M41.8749 4.29297H14.3984V8.0125C14.3907 8.04415 14.3867 8.07596 14.3867 8.10792C14.3867 9.37217 20.5375 10.397 28.125 10.397C35.7119 10.397 41.8624 9.3723 41.8632 8.10817H41.8749V4.29297Z" fill="#0693FF"/>
<g filter="url(#filter7_b_11455_140847)">
<path fill-rule="evenodd" clip-rule="evenodd" d="M14.0482 9.19141C14.8467 9.37599 15.7728 9.54422 16.8049 9.69252V9.82263C16.8049 10.6702 16.4188 11.4715 15.7559 11.9996L13.9887 13.4075C11.8343 15.1238 10.5793 17.7282 10.5793 20.4826V47.5417C10.5793 48.7133 10.8069 49.8738 11.2495 50.9586L11.9399 52.651C10.7159 52.3223 10.0348 51.9565 10.0348 51.5803L8.30106 47.7672L8.00049 18.8924C7.97137 16.0943 9.23879 13.4403 11.4332 11.7041L13.2073 10.3005C13.5817 10.0043 13.8686 9.62106 14.0482 9.19141Z" fill="white"/>
</g>
<path fill-rule="evenodd" clip-rule="evenodd" d="M14.4648 8.28551C16.7781 9.00631 21.3392 9.49671 26.5877 9.49671C34.1751 9.49671 40.3259 8.47184 40.3259 7.20759V7.20691V4.29102H41.9041V8.10622H41.9002V8.10693C41.9002 9.37118 35.7493 10.3961 28.1619 10.3961C20.9352 10.3961 15.0117 9.4663 14.4648 8.28551Z" fill="#2A6CFF"/>
<path d="M14.3984 4.29297V4.01594C14.2454 4.01594 14.1214 4.13997 14.1214 4.29297H14.3984ZM41.8749 4.29297H42.152C42.152 4.13997 42.0279 4.01594 41.8749 4.01594V4.29297ZM14.3984 8.0125L14.6674 8.0787C14.6728 8.05704 14.6755 8.03481 14.6755 8.0125H14.3984ZM41.8632 8.10817V7.83114C41.7103 7.83114 41.5863 7.95506 41.5862 8.10799L41.8632 8.10817ZM41.8749 8.10817V8.3852C42.0279 8.3852 42.152 8.26117 42.152 8.10817H41.8749ZM14.3984 4.57H41.8749V4.01594H14.3984V4.57ZM14.6755 8.0125V4.29297H14.1214V8.0125H14.6755ZM14.6638 8.10792C14.6638 8.09891 14.6648 8.08932 14.6674 8.0787L14.1294 7.9463C14.1165 7.99897 14.1097 8.053 14.1097 8.10792H14.6638ZM28.125 10.12C24.3417 10.12 20.9231 9.86436 18.4561 9.45331C17.2204 9.24741 16.2365 9.0046 15.5679 8.74119C15.2322 8.60895 14.9921 8.47766 14.8408 8.35443C14.686 8.22839 14.6638 8.14493 14.6638 8.10792H14.1097C14.1097 8.38697 14.2797 8.61209 14.4909 8.78408C14.7056 8.95888 15.0053 9.11508 15.3648 9.2567C16.0866 9.54103 17.1146 9.79149 18.365 9.99984C20.8703 10.4173 24.3209 10.6741 28.125 10.6741V10.12ZM41.5862 8.10799C41.5862 8.14503 41.5639 8.22854 41.409 8.3546C41.2576 8.47784 41.0174 8.60912 40.6817 8.74135C40.013 9.00473 39.029 9.24751 37.7934 9.45339C35.3264 9.86439 31.908 10.12 28.125 10.12V10.6741C31.9288 10.6741 35.3792 10.4173 37.8844 9.99992C39.1348 9.79159 40.1629 9.54117 40.8847 9.25687C41.2443 9.11527 41.544 8.95909 41.7587 8.78433C41.97 8.61239 42.1401 8.38734 42.1403 8.10835L41.5862 8.10799ZM41.8749 7.83114H41.8632V8.3852H41.8749V7.83114ZM41.5979 4.29297V8.10817H42.152V4.29297H41.5979Z" fill="url(#paint5_linear_11455_140847)"/>
<path d="M21.8405 17.5196C23.789 17.627 25.8803 17.6853 28.0566 17.6853C30.233 17.6853 32.3243 17.627 34.2728 17.5196C34.6399 17.4994 34.9258 17.195 34.9258 16.8273L34.9258 15.9325C34.9258 15.5313 34.5876 15.2135 34.187 15.2352C32.2629 15.3396 30.2011 15.3961 28.0566 15.3961C25.9122 15.3961 23.8503 15.3396 21.9263 15.2352C21.5257 15.2135 21.1875 15.5313 21.1875 15.9325V16.8273C21.1875 17.195 21.4734 17.4994 21.8405 17.5196Z" fill="#B3D5FF"/>
<g filter="url(#filter8_b_11455_140847)">
<path fill-rule="evenodd" clip-rule="evenodd" d="M21.8283 17.5203C21.8282 17.5156 21.8281 17.5109 21.8281 17.5062V16.6114C21.8281 16.2102 22.1663 15.8924 22.5669 15.9141C24.4909 16.0185 26.5528 16.075 28.6973 16.075C30.8417 16.075 32.9036 16.0185 34.8276 15.9141C34.8675 15.9119 34.9067 15.9131 34.9451 15.9175C34.935 15.5249 34.601 15.217 34.2065 15.2384C32.2825 15.3427 30.2206 15.3993 28.0762 15.3993C25.9317 15.3993 23.8698 15.3427 21.9458 15.2384C21.5452 15.2166 21.207 15.5345 21.207 15.9357V16.8305C21.207 17.1874 21.4766 17.4848 21.8283 17.5203Z" fill="white"/>
</g>
<g style="mix-blend-mode:overlay">
<path fill-rule="evenodd" clip-rule="evenodd" d="M21.207 16.8184C23.1223 16.9217 25.1736 16.9777 27.3066 16.9777C29.483 16.9777 31.5743 16.9194 33.5228 16.812C33.8899 16.7918 34.1758 16.4874 34.1758 16.1197L34.1758 15.24C34.186 15.2395 34.1963 15.2389 34.2065 15.2384C34.6071 15.2166 34.9453 15.5345 34.9453 15.9357L34.9453 16.8305C34.9453 17.1981 34.6594 17.5026 34.2923 17.5228C32.3438 17.6301 30.2525 17.6884 28.0762 17.6884C25.8998 17.6884 23.8085 17.6301 21.86 17.5228C21.4929 17.5026 21.207 17.1981 21.207 16.8305V16.8184Z" fill="#040A1F" fill-opacity="0.6"/>
</g>
<path opacity="0.5" d="M21.8405 17.5196C23.789 17.627 25.8803 17.6853 28.0566 17.6853C30.233 17.6853 32.3243 17.627 34.2728 17.5196C34.6399 17.4994 34.9258 17.195 34.9258 16.8273L34.9258 15.9325C34.9258 15.5313 34.5876 15.2135 34.187 15.2352C32.2629 15.3396 30.2011 15.3961 28.0566 15.3961C25.9122 15.3961 23.8503 15.3396 21.9263 15.2352C21.5257 15.2135 21.1875 15.5313 21.1875 15.9325V16.8273C21.1875 17.195 21.4734 17.4994 21.8405 17.5196Z" stroke="url(#paint6_linear_11455_140847)" stroke-width="0.554067" stroke-linecap="round" stroke-linejoin="round"/>
<path d="M41.8593 4.28912C41.8593 5.55337 35.7085 6.57824 28.1211 6.57824C20.5336 6.57824 14.3828 5.55337 14.3828 4.28912C14.3828 3.02487 20.5336 2 28.1211 2C35.7085 2 41.8593 3.02487 41.8593 4.28912Z" fill="#52B3FF"/>
<path d="M37.7574 5.12193C37.7574 6.07919 33.4106 6.8552 28.0486 6.8552C22.6866 6.8552 18.3398 6.07919 18.3398 5.12193C18.3398 4.16468 22.6866 3.38867 28.0486 3.38867C33.4106 3.38867 37.7574 4.16468 37.7574 5.12193Z" fill="url(#paint7_linear_11455_140847)" fill-opacity="0.4"/>
<g style="mix-blend-mode:overlay">
<path fill-rule="evenodd" clip-rule="evenodd" d="M40.5688 3.31738C41.4041 3.61295 41.8711 3.94312 41.8711 4.29146C41.8711 5.55571 35.7203 6.58059 28.1328 6.58059C21.118 6.58059 15.3312 5.70457 14.4977 4.57327C16.694 5.3504 21.4368 5.88831 26.9336 5.88831C34.521 5.88831 40.6719 4.86343 40.6719 3.59919C40.6719 3.50378 40.6368 3.40973 40.5688 3.31738Z" fill="#040A1F" fill-opacity="0.6"/>
</g>
<path fill-rule="evenodd" clip-rule="evenodd" d="M16.2566 5.44077C15.0724 5.10247 14.3939 4.709 14.3939 4.28912C14.3939 3.02487 20.5448 2 28.1322 2C34.7754 2 40.3173 2.78566 41.5938 3.82975C39.2123 3.14944 34.7857 2.69228 29.7181 2.69228C22.1307 2.69228 15.9799 3.71715 15.9799 4.9814C15.9799 5.13873 16.0751 5.29236 16.2566 5.44077Z" fill="white"/>
<path d="M41.8593 4.28912C41.8593 5.55337 35.7085 6.57824 28.1211 6.57824C20.5336 6.57824 14.3828 5.55337 14.3828 4.28912C14.3828 3.02487 20.5336 2 28.1211 2C35.7085 2 41.8593 3.02487 41.8593 4.28912Z" stroke="url(#paint8_linear_11455_140847)" stroke-width="0.554067" stroke-linecap="round" stroke-linejoin="round"/>
<path fill-rule="evenodd" clip-rule="evenodd" d="M17.8553 9.62502C17.5458 9.56697 17.2537 9.50628 16.9805 9.44318V5.80431C17.4025 5.89758 17.8664 5.98529 18.3674 6.06669V9.62502H17.8553ZM21.8323 10.1403C21.3528 10.099 20.8898 10.0532 20.4453 10.0031V6.34445C20.8904 6.39297 21.3534 6.4373 21.8323 6.47711V10.1403ZM24.6708 10.3212C24.4169 10.3102 24.1659 10.2981 23.918 10.2848V6.61609C24.3708 6.63926 24.8335 6.65864 25.3049 6.674V10.3212H24.6708ZM32.2385 10.2901C32.0236 10.3014 31.8063 10.3117 31.587 10.3212H30.8516V6.66572C31.3233 6.64886 31.7861 6.62797 32.2385 6.60326V10.2901ZM35.7073 10.0148C35.2624 10.0639 34.7994 10.1089 34.3203 10.1492V6.45679C34.8 6.41494 35.263 6.36851 35.7073 6.31784V10.0148ZM39.176 9.46626C38.755 9.56099 38.291 9.65011 37.7891 9.73283V6.02631C38.2935 5.9402 38.7575 5.84749 39.176 5.74902V9.46626ZM27.3711 6.71457C27.5654 6.71593 27.7607 6.71662 27.957 6.71662C28.2259 6.71662 28.493 6.71533 28.7581 6.71279V10.3212H27.3711V6.71457Z" fill="url(#paint9_linear_11455_140847)"/>
<path d="M14.503 9.63184L13.2612 10.3928C10.1648 12.2903 8.27734 15.6608 8.27734 19.2923V22.4539M41.74 9.63184L42.9818 10.3928C46.0781 12.2903 47.9656 15.6608 47.9656 19.2923V45.7367C47.9656 47.0886 47.703 48.4276 47.1924 49.6793L47.0794 49.9563C46.6368 51.0411 46.0897 52.1601 44.9661 52.4919C42.1865 53.3125 35.691 53.8882 28.1215 53.8882C20.5519 53.8882 14.0565 53.3125 11.2769 52.4919C10.1533 52.1601 9.60615 51.0411 9.1636 49.9563L9.05059 49.6793C8.53996 48.4276 8.27734 47.0886 8.27734 45.7367V24.1872" stroke="url(#paint10_linear_11455_140847)" stroke-width="0.554067" stroke-linecap="round" stroke-linejoin="round"/>
<path d="M19.6564 24.4603C20.0624 22.5177 21.6876 20.7467 24.3896 21.8736C27.2991 23.0871 26.6785 29.2754 21.5939 33.0106C21.3319 33.2031 20.9935 33.2618 20.6824 33.1688C14.6466 31.3648 11.9983 25.744 14.3347 23.6196C16.5044 21.6467 18.626 22.7672 19.6564 24.4603Z" fill="#008A00" fill-opacity="0.1"/>
<path d="M19.6642 24.4623C20.0703 22.5197 21.6954 20.7486 24.3974 21.8755C27.3849 23.1216 26.6505 29.6129 21.183 33.3076C14.8001 31.6707 11.9435 25.8029 14.3425 23.6216C16.5122 21.6487 18.6338 22.7691 19.6642 24.4623Z" fill="url(#paint11_linear_11455_140847)"/>
<path d="M24.3974 21.8755L24.4585 21.7293L24.4585 21.7293L24.3974 21.8755ZM19.6642 24.4623L19.529 24.5448L19.7371 24.8868L19.8191 24.4944L19.6642 24.4623ZM21.183 33.3076L21.1435 33.461L21.2124 33.4787L21.2715 33.4388L21.183 33.3076ZM14.3425 23.6216L14.4488 23.7387L14.3425 23.6216ZM24.4585 21.7293C23.0656 21.1484 21.926 21.3078 21.0805 21.8872C20.2432 22.4611 19.7182 23.4306 19.5093 24.4301L19.8191 24.4944C20.0163 23.5514 20.5069 22.664 21.2591 22.1485C22.0033 21.6384 23.0272 21.4758 24.3363 22.0218L24.4585 21.7293ZM21.2715 33.4388C24.0376 31.5695 25.6127 28.9888 26.1154 26.7071C26.6143 24.4429 26.0619 22.3981 24.4585 21.7293L24.3363 22.0218C25.7204 22.599 26.2946 24.4229 25.8063 26.6395C25.3218 28.8387 23.7959 31.3509 21.0946 33.1764L21.2715 33.4388ZM21.2226 33.1541C18.069 32.3454 15.7937 30.4932 14.6039 28.5847C13.4046 26.6612 13.3373 24.7493 14.4488 23.7387L14.2361 23.5044C12.9486 24.6752 13.1101 26.7878 14.3352 28.7528C15.5696 30.7328 17.9142 32.6328 21.1435 33.461L21.2226 33.1541ZM14.4488 23.7387C15.5 22.7829 16.5189 22.5908 17.39 22.8203C18.2706 23.0523 19.0288 23.7228 19.529 24.5448L19.7994 24.3797C19.2693 23.5085 18.4514 22.7722 17.4711 22.514C16.4814 22.2532 15.3547 22.4873 14.2361 23.5044L14.4488 23.7387Z" fill="url(#paint12_linear_11455_140847)"/>
<path d="M17.9747 22.8704C17.0999 22.7163 15.8455 22.9343 14.8496 23.8399C12.6055 25.8803 15.2287 31.1821 20.7664 33.1936C14.6713 31.4168 11.9875 25.7538 14.3347 23.6196C15.6414 22.4314 16.9307 22.3652 17.9747 22.8704Z" fill="#3890FF"/>
<path d="M22.8916 21.5231C21.0834 21.4658 19.9808 22.9083 19.6564 24.4603C18.626 22.7672 16.5044 21.6467 14.3347 23.6196C11.9983 25.744 14.6466 31.3648 20.6824 33.1688C20.9935 33.2618 21.3319 33.2031 21.5939 33.0106C26.6785 29.2754 27.2991 23.0871 24.3896 21.8736C24.1752 21.7842 23.9677 21.713 23.767 21.6587" stroke="#DF1D17" stroke-opacity="0.1" stroke-width="0.584862" stroke-linecap="round"/>
<path d="M15.682 23.9394C15.5123 24.0507 15.3416 24.1822 15.1705 24.3357C14.7109 24.7478 14.591 25.2637 14.5276 25.834M16.1894 23.6638C16.3065 23.6132 16.4227 23.5718 16.5378 23.5389" stroke="white" stroke-width="0.584862" stroke-linecap="round" stroke-linejoin="round"/>
<path d="M34.4852 35.4883C34.2672 32.8723 32.4208 30.2852 28.6903 31.3299C24.6562 32.4595 24.4822 40.7497 30.6311 46.4753C30.8961 46.7221 31.2633 46.8332 31.6204 46.7748C39.9053 45.4192 44.3434 38.4201 41.609 35.2412C39.0804 32.3015 36.1128 33.4311 34.4852 35.4883Z" fill="#008A00" fill-opacity="0.1"/>
<path d="M34.4696 35.4873C34.2516 32.8713 32.4052 30.2843 28.6746 31.3289C24.5498 32.4839 24.4607 41.1253 31.0399 46.8566C39.6864 45.735 44.3893 38.4906 41.5934 35.2402C39.0647 32.3005 36.0972 33.4301 34.4696 35.4873Z" fill="url(#paint13_linear_11455_140847)"/>
<path d="M28.6746 31.3289L28.627 31.1591L28.627 31.1591L28.6746 31.3289ZM34.4696 35.4873L34.6078 35.5968L34.331 35.9467L34.2939 35.5018L34.4696 35.4873ZM31.0399 46.8566L31.0628 47.0315L30.9841 47.0417L30.9243 46.9896L31.0399 46.8566ZM41.5934 35.2402L41.4598 35.3552L41.5934 35.2402ZM28.627 31.1591C30.5411 30.6231 31.9994 31.0147 33.0059 31.9032C34.0041 32.7843 34.5336 34.1328 34.6452 35.4728L34.2939 35.5018C34.1876 34.2258 33.6849 32.9728 32.7728 32.1676C31.8689 31.3697 30.5388 30.9901 28.7223 31.4988L28.627 31.1591ZM30.9243 46.9896C27.6018 44.0953 25.9567 40.461 25.6678 37.393C25.3807 34.3449 26.4372 31.7723 28.627 31.1591L28.7223 31.4988C26.7873 32.0406 25.7368 34.3662 26.0188 37.3602C26.2989 40.3346 27.8989 43.8866 31.1556 46.7236L30.9243 46.9896ZM31.0171 46.6817C35.2972 46.1265 38.593 44.0568 40.4705 41.7357C42.3605 39.3992 42.7714 36.88 41.4598 35.3552L41.7269 35.1252C43.2113 36.8508 42.6687 39.5791 40.7446 41.9578C38.808 44.3519 35.4291 46.4651 31.0628 47.0315L31.0171 46.6817ZM41.4598 35.3552C40.2286 33.9238 38.9113 33.5018 37.7175 33.6647C36.513 33.829 35.4017 34.5934 34.6078 35.5968L34.3313 35.3777C35.165 34.324 36.3513 33.495 37.6696 33.3152C38.9987 33.1339 40.4296 33.617 41.7269 35.1252L41.4598 35.3552Z" fill="url(#paint14_linear_11455_140847)"/>
<path d="M36.9513 33.6715C38.1248 33.61 39.7365 34.0982 40.8972 35.4475C43.5125 38.4879 39.2079 45.0268 31.6106 46.7764C39.9018 45.4248 44.3445 38.4214 41.609 35.2412C40.0861 33.4707 38.404 33.1763 36.9513 33.6715Z" fill="#3890FF"/>
<path d="M30.714 31.1109C33.0974 31.3267 34.3111 33.3982 34.4852 35.4883C36.1128 33.4311 39.0804 32.3015 41.609 35.2412C44.3434 38.4201 39.9053 45.4192 31.6204 46.7748C31.2633 46.8332 30.8961 46.7221 30.6311 46.4753C24.4822 40.7497 24.6562 32.4595 28.6903 31.3299C28.9862 31.247 29.2703 31.187 29.5426 31.148" stroke="#DF1D17" stroke-opacity="0.1" stroke-width="0.651298" stroke-linecap="round"/>
<path d="M39.77 35.44C39.9747 35.6134 40.1775 35.8137 40.3773 36.0427C40.9138 36.6578 40.9876 37.3545 40.9783 38.1134M39.1485 34.9965C39.003 34.9112 38.8572 34.838 38.7114 34.7764" stroke="white" stroke-width="0.651298" stroke-linecap="round" stroke-linejoin="round"/>
<defs>
<filter id="filter0_b_11455_140847" x="2.70282" y="-1.27375" width="50.8209" height="60.7311" filterUnits="userSpaceOnUse" color-interpolation-filters="sRGB">
<feFlood flood-opacity="0" result="BackgroundImageFix"/>
<feGaussianBlur in="BackgroundImageFix" stdDeviation="2.78336"/>
<feComposite in2="SourceAlpha" operator="in" result="effect1_backgroundBlur_11455_140847"/>
<feBlend mode="normal" in="SourceGraphic" in2="effect1_backgroundBlur_11455_140847" result="shape"/>
</filter>
<filter id="filter1_b_11455_140847" x="8.06953" y="4.09297" width="40.0875" height="49.9977" filterUnits="userSpaceOnUse" color-interpolation-filters="sRGB">
<feFlood flood-opacity="0" result="BackgroundImageFix"/>
<feGaussianBlur in="BackgroundImageFix" stdDeviation="0.1"/>
<feComposite in2="SourceAlpha" operator="in" result="effect1_backgroundBlur_11455_140847"/>
<feBlend mode="normal" in="SourceGraphic" in2="effect1_backgroundBlur_11455_140847" result="shape"/>
</filter>
<filter id="filter2_b_11455_140847" x="7.01352" y="45.6209" width="42.0902" height="10.8919" filterUnits="userSpaceOnUse" color-interpolation-filters="sRGB">
<feFlood flood-opacity="0" result="BackgroundImageFix"/>
<feGaussianBlur in="BackgroundImageFix" stdDeviation="1.39168"/>
<feComposite in2="SourceAlpha" operator="in" result="effect1_backgroundBlur_11455_140847"/>
<feBlend mode="normal" in="SourceGraphic" in2="effect1_backgroundBlur_11455_140847" result="shape"/>
</filter>
<filter id="filter3_b_11455_140847" x="12.0916" y="47.0565" width="31.9183" height="9.72687" filterUnits="userSpaceOnUse" color-interpolation-filters="sRGB">
<feFlood flood-opacity="0" result="BackgroundImageFix"/>
<feGaussianBlur in="BackgroundImageFix" stdDeviation="1.39168"/>
<feComposite in2="SourceAlpha" operator="in" result="effect1_backgroundBlur_11455_140847"/>
<feBlend mode="normal" in="SourceGraphic" in2="effect1_backgroundBlur_11455_140847" result="shape"/>
</filter>
<filter id="filter4_b_11455_140847" x="11.7362" y="1.50668" width="39.0277" height="55.1644" filterUnits="userSpaceOnUse" color-interpolation-filters="sRGB">
<feFlood flood-opacity="0" result="BackgroundImageFix"/>
<feGaussianBlur in="BackgroundImageFix" stdDeviation="1.39168"/>
<feComposite in2="SourceAlpha" operator="in" result="effect1_backgroundBlur_11455_140847"/>
<feBlend mode="normal" in="SourceGraphic" in2="effect1_backgroundBlur_11455_140847" result="shape"/>
</filter>
<filter id="filter5_b_11455_140847" x="5.48617" y="1.50668" width="39.0277" height="53.9446" filterUnits="userSpaceOnUse" color-interpolation-filters="sRGB">
<feFlood flood-opacity="0" result="BackgroundImageFix"/>
<feGaussianBlur in="BackgroundImageFix" stdDeviation="1.39168"/>
<feComposite in2="SourceAlpha" operator="in" result="effect1_backgroundBlur_11455_140847"/>
<feBlend mode="normal" in="SourceGraphic" in2="effect1_backgroundBlur_11455_140847" result="shape"/>
</filter>
<filter id="filter6_b_11455_140847" x="18.4041" y="12.4539" width="19.305" height="7.84992" filterUnits="userSpaceOnUse" color-interpolation-filters="sRGB">
<feFlood flood-opacity="0" result="BackgroundImageFix"/>
<feGaussianBlur in="BackgroundImageFix" stdDeviation="1.39168"/>
<feComposite in2="SourceAlpha" operator="in" result="effect1_backgroundBlur_11455_140847"/>
<feBlend mode="normal" in="SourceGraphic" in2="effect1_backgroundBlur_11455_140847" result="shape"/>
</filter>
<filter id="filter7_b_11455_140847" x="5.21664" y="6.40805" width="14.3714" height="49.0267" filterUnits="userSpaceOnUse" color-interpolation-filters="sRGB">
<feFlood flood-opacity="0" result="BackgroundImageFix"/>
<feGaussianBlur in="BackgroundImageFix" stdDeviation="1.39168"/>
<feComposite in2="SourceAlpha" operator="in" result="effect1_backgroundBlur_11455_140847"/>
<feBlend mode="normal" in="SourceGraphic" in2="effect1_backgroundBlur_11455_140847" result="shape"/>
</filter>
<filter id="filter8_b_11455_140847" x="18.4237" y="12.4539" width="19.305" height="7.84992" filterUnits="userSpaceOnUse" color-interpolation-filters="sRGB">
<feFlood flood-opacity="0" result="BackgroundImageFix"/>
<feGaussianBlur in="BackgroundImageFix" stdDeviation="1.39168"/>
<feComposite in2="SourceAlpha" operator="in" result="effect1_backgroundBlur_11455_140847"/>
<feBlend mode="normal" in="SourceGraphic" in2="effect1_backgroundBlur_11455_140847" result="shape"/>
</filter>
<linearGradient id="paint0_linear_11455_140847" x1="47.3606" y1="54.3887" x2="26.8511" y2="-7.22343" gradientUnits="userSpaceOnUse">
<stop stop-color="#1B217C"/>
<stop offset="1" stop-color="#1B217C" stop-opacity="0"/>
</linearGradient>
<linearGradient id="paint1_linear_11455_140847" x1="41.4419" y1="10.474" x2="40.6675" y2="0.002617" gradientUnits="userSpaceOnUse">
<stop stop-color="#1B217C"/>
<stop offset="1" stop-color="#1B217C" stop-opacity="0"/>
</linearGradient>
<linearGradient id="paint2_linear_11455_140847" x1="34.7269" y1="17.7104" x2="34.561" y2="14.2785" gradientUnits="userSpaceOnUse">
<stop stop-color="#1B217C"/>
<stop offset="1" stop-color="#1B217C" stop-opacity="0"/>
</linearGradient>
<linearGradient id="paint3_linear_11455_140847" x1="41.4381" y1="6.62445" x2="41.1582" y2="0.319383" gradientUnits="userSpaceOnUse">
<stop stop-color="#1B217C"/>
<stop offset="1" stop-color="#1B217C" stop-opacity="0"/>
</linearGradient>
<linearGradient id="paint4_linear_11455_140847" x1="30.6898" y1="28.207" x2="60.0025" y2="20.015" gradientUnits="userSpaceOnUse">
<stop stop-color="#0A7CFF"/>
<stop offset="1" stop-color="#003DAF"/>
</linearGradient>
<linearGradient id="paint5_linear_11455_140847" x1="41.4613" y1="10.474" x2="25.4543" y2="-6.55803" gradientUnits="userSpaceOnUse">
<stop stop-color="#1B217C"/>
<stop offset="1" stop-color="#1B217C" stop-opacity="0"/>
</linearGradient>
<linearGradient id="paint6_linear_11455_140847" x1="34.719" y1="17.7104" x2="34.5532" y2="14.2785" gradientUnits="userSpaceOnUse">
<stop stop-color="#1B217C"/>
<stop offset="1" stop-color="#1B217C" stop-opacity="0"/>
</linearGradient>
<linearGradient id="paint7_linear_11455_140847" x1="27.7139" y1="5.0603" x2="30.5866" y2="-1.60503" gradientUnits="userSpaceOnUse">
<stop stop-color="#0A7CFF"/>
<stop offset="1" stop-color="#003DAF"/>
</linearGradient>
<linearGradient id="paint8_linear_11455_140847" x1="41.4459" y1="6.62445" x2="41.166" y2="0.319383" gradientUnits="userSpaceOnUse">
<stop stop-color="#1B217C"/>
<stop offset="1" stop-color="#1B217C" stop-opacity="0"/>
</linearGradient>
<linearGradient id="paint9_linear_11455_140847" x1="27.6957" y1="7.95392" x2="31.8522" y2="-0.403675" gradientUnits="userSpaceOnUse">
<stop stop-color="#0A7CFF"/>
<stop offset="1" stop-color="#003DAF"/>
</linearGradient>
<linearGradient id="paint10_linear_11455_140847" x1="47.3685" y1="54.3887" x2="4.14833" y2="13.0519" gradientUnits="userSpaceOnUse">
<stop stop-color="#1B217C"/>
<stop offset="1" stop-color="#1B217C" stop-opacity="0"/>
</linearGradient>
<linearGradient id="paint11_linear_11455_140847" x1="19.2571" y1="22.0916" x2="21.2041" y2="33.3039" gradientUnits="userSpaceOnUse">
<stop stop-color="#65AEFF"/>
<stop offset="1" stop-color="#0075FF"/>
</linearGradient>
<linearGradient id="paint12_linear_11455_140847" x1="27.2661" y1="32.3819" x2="14.2587" y2="21.419" gradientUnits="userSpaceOnUse">
<stop stop-color="#1B217C"/>
<stop offset="1" stop-color="#1B217C" stop-opacity="0"/>
</linearGradient>
<linearGradient id="paint13_linear_11455_140847" x1="35.3887" y1="32.4401" x2="31.0253" y2="46.8522" gradientUnits="userSpaceOnUse">
<stop stop-color="#65AEFF"/>
<stop offset="1" stop-color="#0075FF"/>
</linearGradient>
<linearGradient id="paint14_linear_11455_140847" x1="23.2031" y1="44.6619" x2="42.0643" y2="32.367" gradientUnits="userSpaceOnUse">
<stop stop-color="#1B217C"/>
<stop offset="1" stop-color="#1B217C" stop-opacity="0"/>
</linearGradient>
</defs>
</svg>
