<svg width="640" height="952" viewBox="0 0 640 952" fill="none" xmlns="http://www.w3.org/2000/svg">
<g clip-path="url(#clip0_9151_76047)">
<path opacity="0.7" d="M224.719 127.119C212.381 125.824 208.758 128.003 207.937 132.374C207.087 136.896 211.517 137.336 212.636 133.978C213.833 130.387 209.791 129.684 202.494 133.043" stroke="url(#paint0_linear_9151_76047)" stroke-width="2" stroke-linecap="round" stroke-linejoin="round"/>
<g opacity="0.17">
<circle cx="393.728" cy="88.3456" r="5.14286" transform="rotate(15 393.728 88.3456)" fill="url(#paint1_radial_9151_76047)"/>
<circle cx="396.982" cy="76.203" r="5.14286" transform="rotate(15 396.982 76.203)" fill="url(#paint2_radial_9151_76047)"/>
<circle cx="400.236" cy="64.0604" r="5.14286" transform="rotate(15 400.236 64.0604)" fill="url(#paint3_radial_9151_76047)"/>
<circle cx="369.443" cy="81.8397" r="5.14286" transform="rotate(15 369.443 81.8397)" fill="url(#paint4_radial_9151_76047)"/>
<circle cx="372.697" cy="69.6952" r="5.14286" transform="rotate(15 372.697 69.6952)" fill="url(#paint5_radial_9151_76047)"/>
<circle cx="375.951" cy="57.5526" r="5.14286" transform="rotate(15 375.951 57.5526)" fill="url(#paint6_radial_9151_76047)"/>
<circle cx="381.586" cy="85.0917" r="5.14286" transform="rotate(15 381.586 85.0917)" fill="url(#paint7_radial_9151_76047)"/>
<circle cx="384.838" cy="72.9491" r="5.14286" transform="rotate(15 384.838 72.9491)" fill="url(#paint8_radial_9151_76047)"/>
<circle cx="388.092" cy="60.8065" r="5.14286" transform="rotate(15 388.092 60.8065)" fill="url(#paint9_radial_9151_76047)"/>
<circle cx="357.299" cy="78.5858" r="5.14286" transform="rotate(15 357.299 78.5858)" fill="url(#paint10_radial_9151_76047)"/>
<circle cx="360.553" cy="66.4432" r="5.14286" transform="rotate(15 360.553 66.4432)" fill="url(#paint11_radial_9151_76047)"/>
<circle cx="363.806" cy="54.2987" r="5.14286" transform="rotate(15 363.806 54.2987)" fill="url(#paint12_radial_9151_76047)"/>
</g>
<g opacity="0.25">
<path d="M619.914 298.438C619.914 298.438 615.581 302.465 603.891 299.722C592.201 296.978 593.071 304.444 585.648 304.399C578.175 304.353 567.371 299.436 567.371 299.436" stroke="black" stroke-width="2" stroke-linecap="round"/>
<path d="M619.914 298.438C619.914 298.438 615.581 302.465 603.891 299.722C592.201 296.978 593.071 304.444 585.648 304.399C578.175 304.353 567.371 299.436 567.371 299.436" stroke="url(#paint13_linear_9151_76047)" stroke-width="2" stroke-linecap="round"/>
<path d="M619.912 303.311C619.912 303.311 615.579 307.338 603.889 304.595C592.199 301.851 593.069 309.317 585.646 309.272C578.173 309.226 567.369 304.309 567.369 304.309" stroke="black" stroke-width="2" stroke-linecap="round"/>
<path d="M619.912 303.311C619.912 303.311 615.579 307.338 603.889 304.595C592.199 301.851 593.069 309.317 585.646 309.272C578.173 309.226 567.369 304.309 567.369 304.309" stroke="url(#paint14_linear_9151_76047)" stroke-width="2" stroke-linecap="round"/>
</g>
<path opacity="0.7" d="M559.006 753.888C547.403 758.28 545.146 761.856 546.378 766.129C547.653 770.55 551.808 768.951 551.297 765.448C550.751 761.703 546.825 762.892 541.818 769.174" stroke="url(#paint15_linear_9151_76047)" stroke-width="2" stroke-linecap="round" stroke-linejoin="round"/>
<circle opacity="0.4" cx="695" cy="76" r="146" fill="url(#paint16_linear_9151_76047)"/>
<circle opacity="0.3" cx="624" cy="874" r="74" fill="url(#paint17_linear_9151_76047)"/>
<path opacity="0.35" d="M456.506 433.494C467.831 444.819 467.831 463.181 456.506 474.506C445.181 485.831 426.819 485.831 415.494 474.506C404.169 463.181 404.169 444.819 415.494 433.494C426.819 422.169 445.181 422.169 456.506 433.494Z" fill="url(#paint18_linear_9151_76047)"/>
<path opacity="0.4" d="M206.053 541.341C169.287 537.651 160.04 529.104 160.29 515.862C160.549 502.16 173.734 503.558 174.965 514.028C176.282 525.223 164.071 524.829 144.825 510.616" stroke="url(#paint19_linear_9151_76047)" stroke-width="2" stroke-linecap="round" stroke-linejoin="round"/>
<g opacity="0.4">
<path opacity="0.5" d="M159.006 36.2853L156.957 24.3227" stroke="url(#paint20_linear_9151_76047)" stroke-width="3" stroke-linecap="round"/>
<path opacity="0.5" d="M163.198 36.3094L167.993 28.7124" stroke="url(#paint21_linear_9151_76047)" stroke-width="3" stroke-linecap="round"/>
<path opacity="0.5" d="M165.828 39.5494L168.43 38.4008" stroke="url(#paint22_linear_9151_76047)" stroke-width="3" stroke-linecap="round"/>
</g>
</g>
<defs>
<linearGradient id="paint0_linear_9151_76047" x1="200.703" y1="135.793" x2="247.014" y2="120.743" gradientUnits="userSpaceOnUse">
<stop stop-color="white"/>
<stop offset="1" stop-color="#008FFF"/>
</linearGradient>
<radialGradient id="paint1_radial_9151_76047" cx="0" cy="0" r="1" gradientUnits="userSpaceOnUse" gradientTransform="translate(393.611 88.5063) rotate(88.6561) scale(4.98351 4.98596)">
<stop stop-color="#008FFF"/>
<stop offset="1" stop-color="white"/>
</radialGradient>
<radialGradient id="paint2_radial_9151_76047" cx="0" cy="0" r="1" gradientUnits="userSpaceOnUse" gradientTransform="translate(396.865 76.3637) rotate(88.6561) scale(4.98351 4.98596)">
<stop stop-color="#008FFF"/>
<stop offset="1" stop-color="white"/>
</radialGradient>
<radialGradient id="paint3_radial_9151_76047" cx="0" cy="0" r="1" gradientUnits="userSpaceOnUse" gradientTransform="translate(400.119 64.2211) rotate(88.6561) scale(4.98351 4.98596)">
<stop stop-color="#008FFF"/>
<stop offset="1" stop-color="white"/>
</radialGradient>
<radialGradient id="paint4_radial_9151_76047" cx="0" cy="0" r="1" gradientUnits="userSpaceOnUse" gradientTransform="translate(369.326 82.0004) rotate(88.6561) scale(4.98351 4.98596)">
<stop stop-color="#008FFF"/>
<stop offset="1" stop-color="white"/>
</radialGradient>
<radialGradient id="paint5_radial_9151_76047" cx="0" cy="0" r="1" gradientUnits="userSpaceOnUse" gradientTransform="translate(372.58 69.8559) rotate(88.6561) scale(4.98351 4.98596)">
<stop stop-color="#008FFF"/>
<stop offset="1" stop-color="white"/>
</radialGradient>
<radialGradient id="paint6_radial_9151_76047" cx="0" cy="0" r="1" gradientUnits="userSpaceOnUse" gradientTransform="translate(375.834 57.7133) rotate(88.6561) scale(4.98351 4.98596)">
<stop stop-color="#008FFF"/>
<stop offset="1" stop-color="white"/>
</radialGradient>
<radialGradient id="paint7_radial_9151_76047" cx="0" cy="0" r="1" gradientUnits="userSpaceOnUse" gradientTransform="translate(381.469 85.2524) rotate(88.6561) scale(4.98351 4.98596)">
<stop stop-color="#008FFF"/>
<stop offset="1" stop-color="white"/>
</radialGradient>
<radialGradient id="paint8_radial_9151_76047" cx="0" cy="0" r="1" gradientUnits="userSpaceOnUse" gradientTransform="translate(384.721 73.1098) rotate(88.6561) scale(4.98351 4.98596)">
<stop stop-color="#008FFF"/>
<stop offset="1" stop-color="white"/>
</radialGradient>
<radialGradient id="paint9_radial_9151_76047" cx="0" cy="0" r="1" gradientUnits="userSpaceOnUse" gradientTransform="translate(387.975 60.9672) rotate(88.6561) scale(4.98351 4.98596)">
<stop stop-color="#008FFF"/>
<stop offset="1" stop-color="white"/>
</radialGradient>
<radialGradient id="paint10_radial_9151_76047" cx="0" cy="0" r="1" gradientUnits="userSpaceOnUse" gradientTransform="translate(357.182 78.7465) rotate(88.6561) scale(4.98351 4.98596)">
<stop stop-color="#008FFF"/>
<stop offset="1" stop-color="white"/>
</radialGradient>
<radialGradient id="paint11_radial_9151_76047" cx="0" cy="0" r="1" gradientUnits="userSpaceOnUse" gradientTransform="translate(360.436 66.6039) rotate(88.6561) scale(4.98351 4.98596)">
<stop stop-color="#008FFF"/>
<stop offset="1" stop-color="white"/>
</radialGradient>
<radialGradient id="paint12_radial_9151_76047" cx="0" cy="0" r="1" gradientUnits="userSpaceOnUse" gradientTransform="translate(363.69 54.4594) rotate(88.6561) scale(4.98351 4.98596)">
<stop stop-color="#008FFF"/>
<stop offset="1" stop-color="white"/>
</radialGradient>
<linearGradient id="paint13_linear_9151_76047" x1="556.28" y1="298.38" x2="620.187" y2="313.865" gradientUnits="userSpaceOnUse">
<stop stop-color="white"/>
<stop offset="1" stop-color="#008FFF"/>
</linearGradient>
<linearGradient id="paint14_linear_9151_76047" x1="556.279" y1="303.253" x2="620.186" y2="318.738" gradientUnits="userSpaceOnUse">
<stop stop-color="white"/>
<stop offset="1" stop-color="#008FFF"/>
</linearGradient>
<linearGradient id="paint15_linear_9151_76047" x1="541.454" y1="772.436" x2="576.052" y2="738.169" gradientUnits="userSpaceOnUse">
<stop stop-color="white"/>
<stop offset="1" stop-color="#008FFF"/>
</linearGradient>
<linearGradient id="paint16_linear_9151_76047" x1="574.956" y1="156.462" x2="841" y2="-62.5378" gradientUnits="userSpaceOnUse">
<stop stop-color="#DAEFFF"/>
<stop offset="1" stop-color="white"/>
</linearGradient>
<linearGradient id="paint17_linear_9151_76047" x1="563.156" y1="914.782" x2="698" y2="803.782" gradientUnits="userSpaceOnUse">
<stop stop-color="#DAEFFF"/>
<stop offset="1" stop-color="white"/>
</linearGradient>
<linearGradient id="paint18_linear_9151_76047" x1="430.441" y1="482.162" x2="437.049" y2="414.036" gradientUnits="userSpaceOnUse">
<stop stop-color="#F8EAC4"/>
<stop offset="1" stop-color="white"/>
</linearGradient>
<linearGradient id="paint19_linear_9151_76047" x1="141.263" y1="501.512" x2="267.21" y2="573.424" gradientUnits="userSpaceOnUse">
<stop stop-color="white"/>
<stop offset="1" stop-color="#008FFF"/>
</linearGradient>
<linearGradient id="paint20_linear_9151_76047" x1="158.584" y1="36.4655" x2="157.64" y2="18.364" gradientUnits="userSpaceOnUse">
<stop stop-color="white"/>
<stop offset="1" stop-color="#008FFF"/>
</linearGradient>
<linearGradient id="paint21_linear_9151_76047" x1="161.392" y1="35.8528" x2="171.195" y2="21.7012" gradientUnits="userSpaceOnUse">
<stop stop-color="white"/>
<stop offset="1" stop-color="#008FFF"/>
</linearGradient>
<linearGradient id="paint22_linear_9151_76047" x1="164.129" y1="41.7086" x2="173.319" y2="35.2453" gradientUnits="userSpaceOnUse">
<stop stop-color="white"/>
<stop offset="1" stop-color="#008FFF"/>
</linearGradient>
<clipPath id="clip0_9151_76047">
<rect width="640" height="952" fill="white"/>
</clipPath>
</defs>
</svg>
