<svg width="56" height="56" viewBox="0 0 56 56" fill="none" xmlns="http://www.w3.org/2000/svg">
<path d="M36.5938 28.2383L39 5.42871L40.1639 5.71968C40.6445 5.83983 40.9673 6.29337 40.9231 6.78635L39.0811 27.3339C39.0351 27.8471 38.607 28.2387 38.0921 28.2386L36.5938 28.2383Z" fill="url(#paint0_linear_8968_23233)" stroke="url(#paint1_linear_8968_23233)" stroke-opacity="0.4" stroke-width="0.5" stroke-linejoin="round"/>
<path d="M38.998 28.4277L40.9219 6.78478C40.9657 6.29206 40.6429 5.83895 40.1625 5.71886L38.998 5.42773" stroke="url(#paint2_linear_8968_23233)" stroke-width="0.5" stroke-linecap="round" stroke-linejoin="round"/>
<path d="M9.30652 16.6316C8.24665 16.1774 8.3185 14.6506 9.41567 14.3122L38.284 5.40923C39.1293 5.14854 39.9715 5.83905 39.8844 6.72143L37.8698 27.1329C37.788 27.9617 36.9273 28.4688 36.1603 28.1401L9.30652 16.6316Z" fill="url(#paint3_linear_8968_23233)"/>
<path d="M9.41567 14.3112C8.3185 14.6496 8.24665 16.1764 9.30652 16.6307L9.57712 16.7466C9.45774 16.1683 9.74534 15.518 10.4157 15.3112L39.284 6.40826C39.4838 6.34664 39.6834 6.33816 39.8706 6.37279C39.7422 5.66775 39.0143 5.18304 38.284 5.40826L9.41567 14.3112Z" fill="white"/>
<path d="M27.7837 8.74935L9.15385 14.4606C8.08419 14.7885 8.01712 16.2784 9.05236 16.7151L36.46 28.2759C37.0796 28.5373 37.7714 28.127 37.8374 27.459L39.9185 6.37795C39.9893 5.66104 39.3022 5.10186 38.617 5.31882L29.2501 8.28499" stroke="url(#paint4_linear_8968_23233)" stroke-width="0.5" stroke-linecap="round" stroke-linejoin="round"/>
<path d="M44.6028 5.92578L39.7539 8.3132L43.0611 9.87554" stroke="#3D438F" stroke-width="0.5" stroke-linecap="round" stroke-linejoin="round"/>
<path d="M41.2346 27.0111L38.1953 24.9005L42.0366 23.5713" stroke="url(#paint5_linear_8968_23233)" stroke-width="0.5" stroke-linecap="round" stroke-linejoin="round"/>
<path d="M45.5222 5.75052C45.5252 5.70877 45.52 5.66679 45.5069 5.62693C45.3986 5.29704 44.9186 5.34495 44.8818 5.68932L39.9857 51.4825C39.9223 52.0761 40.3894 52.5961 40.986 52.5961L41.2801 52.5961C41.8021 52.5961 42.2336 52.1939 42.2705 51.6728L45.5222 5.75052Z" fill="url(#paint6_linear_8968_23233)"/>
<path d="M43.5674 4.75883C43.6087 4.37492 43.9507 4.09755 44.3349 4.13626C44.7229 4.17534 45.0078 4.52172 44.9713 4.90993L40.5787 51.6329C40.5282 52.1703 40.0607 52.5677 39.5223 52.531L39.4712 52.5275C38.9024 52.4887 38.478 51.9824 38.5391 51.4154L43.5674 4.75883Z" fill="url(#paint7_linear_8968_23233)"/>
<path d="M40.0874 37.0491L43.5674 4.7588C43.6087 4.37491 43.9507 4.09755 44.3349 4.13625V4.13625C44.7229 4.17534 45.0078 4.52174 44.9712 4.90995L40.5828 51.556C40.5347 52.0672 40.1075 52.4563 39.5943 52.4563L39.5471 52.4563C38.9502 52.4563 38.483 51.9357 38.547 51.3419L39.9017 38.7721" stroke="url(#paint8_linear_8968_23233)" stroke-width="0.5" stroke-linecap="round" stroke-linejoin="round"/>
<path d="M20 52.4297H28.4464M47.5 52.4297H30" stroke="url(#paint9_linear_8968_23233)" stroke-width="0.5" stroke-linecap="round" stroke-linejoin="round"/>
<circle opacity="0.3" cx="34.5" cy="14.9297" r="1.5" fill="url(#paint10_linear_8968_23233)"/>
<path opacity="0.3" fill-rule="evenodd" clip-rule="evenodd" d="M25.9844 23.7787L18.0352 20.372C18.3098 18.1499 20.2045 16.4297 22.5009 16.4297C24.9862 16.4297 27.0009 18.4444 27.0009 20.9297C27.0009 22.0108 26.6197 23.0028 25.9844 23.7787Z" fill="url(#paint11_linear_8968_23233)"/>
<path d="M25.0645 30.1716C25.0645 29.7619 25.3966 29.4297 25.8064 29.4297C26.2161 29.4297 26.5483 29.7619 26.5483 30.1716V51.6878C26.5483 52.0975 26.2161 52.4297 25.8064 52.4297C25.3966 52.4297 25.0645 52.0975 25.0645 51.6878V30.1716Z" fill="url(#paint12_linear_8968_23233)"/>
<path d="M25.0645 52.4297L25.0645 29.4297L26.5483 29.4297L26.5483 52.4297L25.0645 52.4297Z" stroke="url(#paint13_linear_8968_23233)" stroke-width="0.5" stroke-linecap="round" stroke-linejoin="round"/>
<path d="M14.5574 30.7084C14.7782 30.5281 15.0544 30.4297 15.3394 30.4297H30.1101C30.9131 30.4297 31.3886 31.3283 30.9369 31.9922L29.7517 33.7342C29.4661 34.1539 29.4661 34.7055 29.7517 35.1252L30.9369 36.8672C31.3886 37.531 30.9131 38.4297 30.1101 38.4297H15.3394C15.0544 38.4297 14.7782 38.3312 14.5574 38.151L11.1728 35.3874C10.567 34.8926 10.567 33.9667 11.1728 33.472L14.5574 30.7084Z" fill="url(#paint14_linear_8968_23233)"/>
<path d="M27.5 30.4297H30.1098C30.9128 30.4297 31.3883 31.3283 30.9366 31.9922L29.6609 33.8672C29.43 34.2066 29.43 34.6528 29.6609 34.9922L30.9366 36.8672C31.3883 37.531 30.9128 38.4297 30.1098 38.4297H27.5" stroke="url(#paint15_linear_8968_23233)" stroke-width="0.5" stroke-linecap="round" stroke-linejoin="round"/>
<path d="M12.5574 30.7084C12.7782 30.5281 13.0544 30.4297 13.3394 30.4297H27.6634C28.6562 30.4297 29.2441 31.5407 28.6856 32.3615L27.7517 33.7342C27.4661 34.1539 27.4661 34.7055 27.7517 35.1252L28.6856 36.4978C29.2441 37.3186 28.6562 38.4297 27.6634 38.4297H13.3394C13.0544 38.4297 12.7782 38.3312 12.5574 38.151L9.17284 35.3874C8.56698 34.8926 8.56698 33.9667 9.17284 33.472L12.5574 30.7084Z" fill="url(#paint16_linear_8968_23233)"/>
<g style="mix-blend-mode:overlay">
<path fill-rule="evenodd" clip-rule="evenodd" d="M8.77213 33.8428C8.46918 34.2591 8.52833 34.8607 8.94956 35.2047L12.6236 38.2047C12.8022 38.3505 13.0256 38.4301 13.2561 38.4301H28.1111C28.7044 38.4301 29.1189 37.9395 29.1127 37.4155C29.057 37.4251 28.9996 37.4301 28.9409 37.4301H13.3576C13.1271 37.4301 12.9037 37.3505 12.7252 37.2047L9.05112 34.2047C8.92636 34.1028 8.83336 33.9783 8.77213 33.8428Z" fill="#636363"/>
</g>
<path fill-rule="evenodd" clip-rule="evenodd" d="M13.2561 30.4297C13.0256 30.4297 12.8022 30.5093 12.6236 30.6551L8.94956 33.6551C8.49425 34.0269 8.46198 34.6997 8.85275 35.1142C8.90995 34.9411 9.01557 34.7809 9.16962 34.6551L12.8437 31.6551C13.0222 31.5093 13.2456 31.4297 13.4761 31.4297H29.0481C29.0698 31.4297 29.0914 31.4304 29.1128 31.4317C29.1122 30.9125 28.6996 30.4297 28.111 30.4297H13.2561Z" fill="white"/>
<path d="M12.6227 30.6551C12.8012 30.5093 13.0246 30.4297 13.2551 30.4297H28.1101C28.9131 30.4297 29.3886 31.3283 28.9369 31.9922L27.6612 33.8672C27.4303 34.2066 27.4303 34.6528 27.6612 34.9922L28.9369 36.8672C29.3886 37.531 28.9131 38.4297 28.1101 38.4297H13.2551C13.0246 38.4297 12.8012 38.3501 12.6227 38.2043L8.94862 35.2043C8.45858 34.8041 8.45858 34.0552 8.94862 33.6551L12.6227 30.6551Z" stroke="url(#paint17_linear_8968_23233)" stroke-width="0.5" stroke-linecap="round" stroke-linejoin="round"/>
<defs>
<linearGradient id="paint0_linear_8968_23233" x1="43.0847" y1="3.31811" x2="38.1708" y2="2.96035" gradientUnits="userSpaceOnUse">
<stop stop-color="#001BC1"/>
<stop offset="1" stop-color="#12B3FD"/>
</linearGradient>
<linearGradient id="paint1_linear_8968_23233" x1="42.4202" y1="8.92275" x2="27.1723" y2="25.5877" gradientUnits="userSpaceOnUse">
<stop stop-color="white"/>
<stop offset="1" stop-color="white" stop-opacity="0"/>
</linearGradient>
<linearGradient id="paint2_linear_8968_23233" x1="38.4223" y1="8.50124" x2="43.097" y2="9.84792" gradientUnits="userSpaceOnUse">
<stop stop-color="#1B217C"/>
<stop offset="1" stop-color="#1B217C" stop-opacity="0"/>
</linearGradient>
<linearGradient id="paint3_linear_8968_23233" x1="53.7308" y1="9.0236" x2="8.18444" y2="23.0985" gradientUnits="userSpaceOnUse">
<stop stop-color="#0592FF"/>
<stop offset="1" stop-color="#DBEEFF"/>
</linearGradient>
<linearGradient id="paint4_linear_8968_23233" x1="15.4774" y1="5.42857" x2="24.2109" y2="27.8151" gradientUnits="userSpaceOnUse">
<stop stop-color="#1B217C"/>
<stop offset="1" stop-color="#1B217C" stop-opacity="0"/>
</linearGradient>
<linearGradient id="paint5_linear_8968_23233" x1="41.3141" y1="26.4588" x2="38.6278" y2="24.3971" gradientUnits="userSpaceOnUse">
<stop stop-color="#1B217C"/>
<stop offset="1" stop-color="#1B217C" stop-opacity="0"/>
</linearGradient>
<linearGradient id="paint6_linear_8968_23233" x1="43.2436" y1="28.6411" x2="45.4427" y2="28.802" gradientUnits="userSpaceOnUse">
<stop stop-color="#0A7CFF"/>
<stop offset="1" stop-color="#003DAF"/>
</linearGradient>
<linearGradient id="paint7_linear_8968_23233" x1="39.9777" y1="45.6419" x2="41.8613" y2="45.7989" gradientUnits="userSpaceOnUse">
<stop stop-color="#73B7FF"/>
<stop offset="1" stop-color="white"/>
</linearGradient>
<linearGradient id="paint8_linear_8968_23233" x1="44.0609" y1="11.9143" x2="41.8444" y2="11.7619" gradientUnits="userSpaceOnUse">
<stop stop-color="#1B217C"/>
<stop offset="1" stop-color="#1B217C" stop-opacity="0"/>
</linearGradient>
<linearGradient id="paint9_linear_8968_23233" x1="65.675" y1="52.4297" x2="65.5383" y2="55.2467" gradientUnits="userSpaceOnUse">
<stop stop-color="#1B217C"/>
<stop offset="1" stop-color="#1B217C" stop-opacity="0"/>
</linearGradient>
<linearGradient id="paint10_linear_8968_23233" x1="34.5" y1="13.4297" x2="34.5" y2="16.4297" gradientUnits="userSpaceOnUse">
<stop stop-color="white"/>
<stop offset="1" stop-color="white"/>
</linearGradient>
<linearGradient id="paint11_linear_8968_23233" x1="22.5" y1="16.4297" x2="22.5" y2="25.4297" gradientUnits="userSpaceOnUse">
<stop stop-color="white"/>
<stop offset="1" stop-color="white"/>
</linearGradient>
<linearGradient id="paint12_linear_8968_23233" x1="27.2036" y1="33.1178" x2="24.8417" y2="33.1521" gradientUnits="userSpaceOnUse">
<stop stop-color="#0592FF"/>
<stop offset="1" stop-color="#DBEEFF"/>
</linearGradient>
<linearGradient id="paint13_linear_8968_23233" x1="26.3614" y1="35.3673" x2="24.706" y2="35.4417" gradientUnits="userSpaceOnUse">
<stop stop-color="#1B217C"/>
<stop offset="1" stop-color="#1B217C" stop-opacity="0"/>
</linearGradient>
<linearGradient id="paint14_linear_8968_23233" x1="12" y1="35" x2="23.0153" y2="25.2664" gradientUnits="userSpaceOnUse">
<stop stop-color="#62ABFF"/>
<stop offset="1" stop-color="#0041B8"/>
</linearGradient>
<linearGradient id="paint15_linear_8968_23233" x1="29.2283" y1="32.4949" x2="23.9667" y2="42.5801" gradientUnits="userSpaceOnUse">
<stop stop-color="#1B217C"/>
<stop offset="1" stop-color="#1B217C" stop-opacity="0"/>
</linearGradient>
<linearGradient id="paint16_linear_8968_23233" x1="30.5" y1="32.5" x2="21.9707" y2="45.8111" gradientUnits="userSpaceOnUse">
<stop stop-color="#62ABFF"/>
<stop offset="1" stop-color="#0041B8"/>
</linearGradient>
<linearGradient id="paint17_linear_8968_23233" x1="27.2283" y1="32.4949" x2="21.9667" y2="42.5801" gradientUnits="userSpaceOnUse">
<stop stop-color="#1B217C"/>
<stop offset="1" stop-color="#1B217C" stop-opacity="0"/>
</linearGradient>
</defs>
</svg>
