<svg width="88" height="88" viewBox="0 0 88 88" fill="none" xmlns="http://www.w3.org/2000/svg">
<g clip-path="url(#clip0_10747_38734)">
<mask id="mask0_10747_38734" style="mask-type:luminance" maskUnits="userSpaceOnUse" x="0" y="0" width="88" height="88">
<path d="M88 0H0V88H88V0Z" fill="white"/>
</mask>
<g mask="url(#mask0_10747_38734)">
<path d="M54.198 8.48306C54.2637 8.03944 54.714 7.76272 55.1395 7.90457L55.2309 7.93507C55.5415 8.03861 55.7433 8.33829 55.7225 8.66496L54.8212 22.8465L52.1172 22.5327L54.198 8.48306Z" fill="#040A1F" fill-opacity="0.87"/>
<path d="M54.8212 22.8465L55.7106 8.39829C55.7361 7.98334 55.4065 7.63279 54.9908 7.63281H54.9461C54.5886 7.63282 54.2851 7.89471 54.2328 8.24832L52.1172 22.5327" stroke="#040A1F" stroke-opacity="0.87" stroke-width="0.7" stroke-linecap="round" stroke-linejoin="round"/>
<path d="M49.2443 23.6512C49.3361 22.8599 50.052 22.2929 50.8433 22.3847L56.0888 22.9934C56.8801 23.0852 57.4471 23.8011 57.3553 24.5924L57.2087 25.8558L49.0977 24.9146L49.2443 23.6512Z" fill="#040A1F" fill-opacity="0.87"/>
<path d="M57.2087 25.8558L57.3553 24.5924C57.4471 23.8011 56.8801 23.0852 56.0888 22.9934L50.8433 22.3847C50.052 22.2929 49.3361 22.8599 49.2443 23.6512L49.0977 24.9146" stroke="#040A1F" stroke-opacity="0.87" stroke-width="0.7" stroke-linecap="round" stroke-linejoin="round"/>
<path d="M20.5611 38.2364C20.6364 29.3609 28.4133 22.5153 37.2552 23.5414L69.0551 27.2315C77.8971 28.2575 83.8996 36.7021 81.9404 45.3589L80.6709 50.9685C78.6803 59.7641 70.3585 65.6433 61.3749 64.6008L36.1738 61.6764C27.1902 60.6339 20.4359 53.0053 20.5124 43.9876L20.5611 38.2364Z" fill="#EEEEEE"/>
<path d="M34.0238 27.0831C33.1759 26.9847 32.3466 27.0102 31.5521 27.1441M28.8438 28.0819C27.6736 28.7196 26.6623 29.6179 25.8906 30.6994" stroke="white" stroke-width="1.44235" stroke-linecap="round" stroke-linejoin="round"/>
<path fill-rule="evenodd" clip-rule="evenodd" d="M39.6797 62.0825L36.1747 61.6757C28.3012 60.7621 22.1401 54.7894 20.7891 47.2564C22.948 46.2858 25.3902 45.8673 27.9143 46.1602C35.3506 47.0231 40.6813 53.7334 39.8209 61.1481C39.7843 61.4635 39.7371 61.775 39.6797 62.0825Z" fill="url(#paint0_linear_10747_38734)" fill-opacity="0.2"/>
<path d="M45.043 24.4453L61.2695 26.3283L58.9155 29.9186C58.3171 30.8313 57.2548 31.3282 56.1706 31.2024L48.8902 30.3575C47.8061 30.2317 46.8857 29.5048 46.5122 28.4793L45.043 24.4453Z" fill="#BDBDBD"/>
<path d="M45.043 24.4453L46.5122 28.4793C46.8857 29.5048 47.8061 30.2317 48.8902 30.3575L56.1706 31.2024C57.2548 31.3282 58.3171 30.8313 58.9155 29.9186L60.7462 27.1264" stroke="#040A1F" stroke-opacity="0.87" stroke-width="0.7" stroke-linecap="round" stroke-linejoin="round"/>
<g style="mix-blend-mode:overlay">
<path fill-rule="evenodd" clip-rule="evenodd" d="M27.3634 26.3867C24.1557 29.2483 22.1003 33.4039 22.0605 38.0911L22.029 41.8097C21.9477 51.3895 29.1011 59.4899 38.6175 60.5942L61.9477 63.3015C66.7118 63.8543 71.301 62.5647 74.9617 59.9665C71.0988 63.3502 65.8831 65.1244 60.4389 64.4926L37.1087 61.7853C27.5924 60.681 20.439 52.5806 20.5202 43.0008L20.5518 39.2822C20.5974 33.8962 23.3046 29.2121 27.3634 26.3867Z" fill="#040A1F" fill-opacity="0.87"/>
</g>
<path fill-rule="evenodd" clip-rule="evenodd" d="M25.8555 27.578C28.9051 25.4552 32.7177 24.3817 36.7376 24.8482L66.5553 28.3082C75.9257 29.3956 82.2832 38.3698 80.2009 47.5704L79.3801 51.1974C78.4752 55.1956 76.3429 58.6268 73.4538 61.1577C77.1055 58.5659 79.8334 54.672 80.8894 50.0058L81.7103 46.3788C83.7925 37.1782 77.435 28.204 68.0646 27.1166L38.247 23.6566C33.5325 23.1095 29.1033 24.6804 25.8555 27.578Z" fill="white"/>
<path d="M48.7734 63.1389L53.1542 25.3867L69.0542 27.2318C77.8961 28.2578 83.8987 36.7024 81.9395 45.3592L80.6699 50.9688C78.6793 59.7644 70.3575 65.6435 61.3739 64.6011L48.7734 63.1389Z" fill="url(#paint1_linear_10747_38734)" fill-opacity="0.8"/>
<path fill-rule="evenodd" clip-rule="evenodd" d="M63.3284 26.5664L69.0538 27.2308C76.1366 28.0527 81.3974 33.6349 82.2033 40.2732C80.0905 41.1856 77.7155 41.5724 75.2632 41.2879C67.9161 40.4353 62.6244 33.8747 63.3284 26.5664Z" fill="url(#paint2_linear_10747_38734)"/>
<path d="M21.4081 49.6925C20.8105 47.8955 20.4955 45.9753 20.5124 43.9876L20.5611 38.2364C20.6364 29.3609 28.4133 22.5153 37.2552 23.5414L69.0551 27.2315C77.8971 28.2575 83.8996 36.7021 81.9404 45.3589L80.6709 50.9685C78.6803 59.7641 70.3585 65.6433 61.3749 64.6008L36.1738 61.6764C35.0137 61.5418 33.8907 61.2973 32.8148 60.9542" stroke="#040A1F" stroke-opacity="0.87" stroke-width="0.7" stroke-linecap="round" stroke-linejoin="round"/>
<path d="M34.7363 54.2147C40.7107 54.908 46.1144 50.6408 46.8056 44.6837C47.4969 38.7265 43.214 33.3353 37.2396 32.642C31.2651 31.9487 25.8615 36.2159 25.1702 42.173C24.4789 48.1302 28.7618 53.5214 34.7363 54.2147Z" fill="#F5F5F5"/>
<path fill-rule="evenodd" clip-rule="evenodd" d="M41.9716 52.5038C44.5696 50.8 46.4203 48.0037 46.8058 44.6819C47.497 38.7247 43.2142 33.3335 37.2397 32.6402C33.9084 32.2536 30.7545 33.4094 28.4961 35.5404C30.5571 34.1887 33.0883 33.5247 35.7313 33.8314C41.7058 34.5246 45.9886 39.9159 45.2973 45.873C44.9915 48.5084 43.7634 50.8131 41.9716 52.5038Z" fill="white"/>
<g style="mix-blend-mode:overlay">
<path fill-rule="evenodd" clip-rule="evenodd" d="M43.4816 51.3135C41.4205 52.6655 38.8889 53.3298 36.2455 53.0231C30.2711 52.3298 25.9882 46.9386 26.6795 40.9814C26.9853 38.3466 28.2129 36.0423 30.0041 34.3516C27.4067 36.0555 25.5563 38.8516 25.1709 42.173C24.4796 48.1302 28.7625 53.5214 34.7369 54.2147C38.0688 54.6013 41.2232 53.4452 43.4816 51.3135Z" fill="#040A1F" fill-opacity="0.87"/>
</g>
<path d="M34.7363 54.2147C40.7107 54.908 46.1144 50.6408 46.8056 44.6837C47.4969 38.7265 43.214 33.3353 37.2396 32.642C31.2651 31.9487 25.8615 36.2159 25.1702 42.173C24.4789 48.1302 28.7618 53.5214 34.7363 54.2147Z" stroke="#040A1F" stroke-opacity="0.38" stroke-width="0.7" stroke-linecap="round" stroke-linejoin="round"/>
<path d="M38.3421 37.8748C38.4058 37.3262 38.0127 36.8298 37.4641 36.7662L36.0702 36.6044C35.5216 36.5408 35.0253 36.9339 34.9616 37.4825L34.6054 40.5519C34.5418 41.1005 34.0454 41.4937 33.4968 41.43L30.4127 41.0721C29.8641 41.0084 29.3677 41.4016 29.3041 41.9502L29.1435 43.3342C29.0798 43.8828 29.4729 44.3792 30.0215 44.4428L33.1057 44.8007C33.6543 44.8644 34.0474 45.3607 33.9837 45.9093L33.6275 48.9788C33.5639 49.5274 33.957 50.0237 34.5056 50.0874L35.8995 50.2491C36.4481 50.3128 36.9444 49.9196 37.0081 49.371L37.3643 46.3016C37.4279 45.753 37.9243 45.3599 38.4729 45.4235L41.557 45.7814C42.1056 45.8451 42.6019 45.452 42.6656 44.9034L42.8262 43.5193C42.8899 42.9707 42.4967 42.4744 41.9481 42.4107L38.864 42.0528C38.3154 41.9892 37.9223 41.4928 37.9859 40.9442L38.3421 37.8748Z" fill="#E0E0E0"/>
<path opacity="0.4" d="M35.9596 36.5919C36.4476 36.6485 36.7972 37.09 36.7406 37.5779L35.381 49.2939C35.3244 49.7818 34.883 50.1314 34.395 50.0748C33.9071 50.0182 33.5575 49.5768 33.6141 49.0888L33.983 45.9095C34.0467 45.3609 33.6536 44.8646 33.105 44.8009L30.0215 44.4431C29.4729 44.3795 29.0798 43.8831 29.1435 43.3345L29.3041 41.9505C29.3677 41.4019 29.8641 41.0087 30.4127 41.0724L33.4961 41.4302C34.0447 41.4939 34.541 41.1007 34.6047 40.5521L34.9736 37.3729C35.0303 36.8849 35.4717 36.5353 35.9596 36.5919Z" fill="#BDBDBD"/>
<path d="M64.4823 57.6658C70.4568 58.3591 75.8605 54.0919 76.5517 48.1348C77.243 42.1777 72.9601 36.7865 66.9857 36.0932C61.0112 35.3999 55.6076 39.6671 54.9163 45.6242C54.225 51.5813 58.5079 56.9726 64.4823 57.6658Z" fill="#F5F5F5"/>
<g style="mix-blend-mode:overlay">
<path fill-rule="evenodd" clip-rule="evenodd" d="M73.2255 54.7658C71.1647 56.1171 68.6337 56.781 65.9911 56.4743C60.0167 55.781 55.7338 50.3898 56.4251 44.4327C56.731 41.7967 57.9595 39.4917 59.7519 37.8008C57.1536 39.5046 55.3025 42.3012 54.9169 45.6234C54.2257 51.5805 58.5085 56.9717 64.483 57.665C67.8138 58.0515 70.9672 56.8962 73.2255 54.7658Z" fill="#040A1F" fill-opacity="0.87"/>
</g>
<path fill-rule="evenodd" clip-rule="evenodd" d="M71.7171 55.9587C74.3164 54.2551 76.1683 51.458 76.5539 48.135C77.2452 42.1779 72.9623 36.7867 66.9878 36.0934C63.6574 35.7069 60.5043 36.8619 58.2461 38.9918C60.3066 37.6413 62.8368 36.9779 65.4786 37.2845C71.4531 37.9778 75.7359 43.369 75.0447 49.3261C74.7387 51.9625 73.5099 54.2678 71.7171 55.9587Z" fill="white"/>
<path d="M64.4823 57.6658C70.4568 58.3591 75.8605 54.0919 76.5517 48.1348C77.243 42.1777 72.9601 36.7865 66.9857 36.0932C61.0112 35.3999 55.6076 39.6671 54.9163 45.6242C54.225 51.5813 58.5079 56.9726 64.4823 57.6658Z" stroke="#040A1F" stroke-opacity="0.38" stroke-width="0.7" stroke-linecap="round" stroke-linejoin="round"/>
<path d="M64.7967 54.9679C66.2899 55.1412 67.6404 54.0745 67.8132 52.5854C67.986 51.0963 66.9156 49.7487 65.4224 49.5755C63.9292 49.4022 62.5787 50.4689 62.4059 51.9579C62.2331 53.447 63.3035 54.7946 64.7967 54.9679Z" fill="#E0E0E0"/>
<path d="M64.7967 54.9679C66.2899 55.1412 67.6404 54.0745 67.8132 52.5854C67.986 51.0963 66.9156 49.7487 65.4224 49.5755C63.9292 49.4022 62.5787 50.4689 62.4059 51.9579C62.2331 53.447 63.3035 54.7946 64.7967 54.9679Z" fill="#E0E0E0"/>
<path d="M70.8318 50.2023C72.325 50.3755 73.6756 49.3089 73.8484 47.8198C74.0212 46.3307 72.9508 44.9831 71.4576 44.8098C69.9644 44.6366 68.6138 45.7032 68.441 47.1923C68.2682 48.6814 69.3386 50.029 70.8318 50.2023Z" fill="#E0E0E0"/>
<path d="M70.8318 50.2023C72.325 50.3755 73.6756 49.3089 73.8484 47.8198C74.0212 46.3307 72.9508 44.9831 71.4576 44.8098C69.9644 44.6366 68.6138 45.7032 68.441 47.1923C68.2682 48.6814 69.3386 50.029 70.8318 50.2023Z" fill="#E0E0E0"/>
<path d="M60.0115 48.9483C61.5047 49.1216 62.8552 48.0549 63.028 46.5659C63.2008 45.0768 62.1304 43.7292 60.6373 43.5559C59.1441 43.3827 57.7935 44.4493 57.6207 45.9384C57.4479 47.4275 58.5183 48.775 60.0115 48.9483Z" fill="#E0E0E0"/>
<path d="M60.0115 48.9483C61.5047 49.1216 62.8552 48.0549 63.028 46.5659C63.2008 45.0768 62.1304 43.7292 60.6373 43.5559C59.1441 43.3827 57.7935 44.4493 57.6207 45.9384C57.4479 47.4275 58.5183 48.775 60.0115 48.9483Z" fill="#E0E0E0"/>
<path d="M66.0467 44.1827C67.5399 44.356 68.8904 43.2893 69.0632 41.8002C69.236 40.3112 68.1656 38.9636 66.6724 38.7903C65.1792 38.617 63.8287 39.6837 63.6559 41.1728C63.4831 42.6618 64.5535 44.0094 66.0467 44.1827Z" fill="#E0E0E0"/>
<path d="M66.0467 44.1827C67.5399 44.356 68.8904 43.2893 69.0632 41.8002C69.236 40.3112 68.1656 38.9636 66.6724 38.7903C65.1792 38.617 63.8287 39.6837 63.6559 41.1728C63.4831 42.6618 64.5535 44.0094 66.0467 44.1827Z" fill="#E0E0E0"/>
<path fill-rule="evenodd" clip-rule="evenodd" d="M3.99099 63.6659C4.54871 56.1145 11.1225 50.4449 18.6739 51.0027C26.2254 51.5604 31.8949 58.1341 31.3372 65.6856C30.7795 73.2371 24.2057 78.9066 16.6543 78.3489C9.10283 77.7912 3.43328 71.2174 3.99099 63.6659Z" fill="url(#paint3_linear_10747_38734)"/>
<g style="mix-blend-mode:overlay" opacity="0.6">
<path fill-rule="evenodd" clip-rule="evenodd" d="M14.1792 51.5293L21.2781 78.0225C19.8117 78.4236 18.253 78.5857 16.6504 78.4673C9.09892 77.9096 3.42937 71.3358 3.98708 63.7844C4.43011 57.7858 8.66929 52.9748 14.1792 51.5293Z" fill="#040A1F" fill-opacity="0.38"/>
</g>
<g style="mix-blend-mode:overlay" opacity="0.6">
<path fill-rule="evenodd" clip-rule="evenodd" d="M4.32812 68.464L30.8214 61.3652C31.2225 62.8316 31.3846 64.3903 31.2663 65.993C30.7086 73.5444 24.1348 79.214 16.5833 78.6563C10.5847 78.2132 5.77358 73.974 4.32812 68.464Z" fill="#040A1F" fill-opacity="0.38"/>
</g>
<g style="mix-blend-mode:overlay">
<path fill-rule="evenodd" clip-rule="evenodd" d="M5.54969 58.248C5.17782 59.3349 4.93751 60.4867 4.84894 61.686C4.29123 69.2375 9.96077 75.8113 17.5122 76.369C23.1062 76.7821 28.1637 73.778 30.6365 69.1231C28.6668 74.8803 23.0064 78.8175 16.6543 78.3483C9.10283 77.7906 3.43328 71.2168 3.99099 63.6654C4.13557 61.7079 4.68438 59.8769 5.54969 58.248Z" fill="#040A1F" fill-opacity="0.38"/>
</g>
<path fill-rule="evenodd" clip-rule="evenodd" d="M5.27734 58.7877C7.94125 54.8641 12.57 52.4322 17.6393 52.8066C25.1907 53.3643 30.8603 59.938 30.3026 67.4895C30.1737 69.2338 29.7239 70.8778 29.0152 72.3677C30.3195 70.4466 31.1528 68.1678 31.3361 65.6856C31.8938 58.1342 26.2243 51.5604 18.6728 51.0027C12.8657 50.5738 7.63682 53.8275 5.27734 58.7877Z" fill="white"/>
<path fill-rule="evenodd" clip-rule="evenodd" d="M3.99099 63.666C4.5487 56.1146 11.1225 50.445 18.6739 51.0027C26.2254 51.5605 31.8949 58.1342 31.3372 65.6857C30.7795 73.2371 24.2057 78.9067 16.6543 78.349C9.10282 77.7913 3.43328 71.2175 3.99099 63.666Z" stroke="#040A1F" stroke-opacity="0.38" stroke-width="0.7" stroke-linecap="round" stroke-linejoin="round"/>
<path d="M13.9443 60.5537C14.2858 62.0222 13.3722 63.4895 11.9036 63.831C10.4351 64.1725 8.96772 63.2589 8.62624 61.7903C8.28475 60.3218 9.1984 58.8545 10.667 58.513C12.1355 58.1715 13.6028 59.0852 13.9443 60.5537Z" stroke="#0592FF" stroke-width="1.5" stroke-linejoin="round"/>
<path d="M21.1995 56.0389L25.0246 59.4004C25.1746 59.5322 25.1171 59.778 24.9242 59.8297L19.4674 61.2918C19.2745 61.3435 19.1019 61.1594 19.1659 60.9702L20.7977 56.1465C20.8549 55.9776 21.0655 55.9211 21.1995 56.0389Z" stroke="#0592FF" stroke-width="1.5" stroke-linejoin="round"/>
<path d="M11.4305 69.1345L15.6532 67.9854C15.7864 67.9491 15.9238 68.0277 15.9601 68.1609L17.1092 72.3837C17.1455 72.5169 17.0669 72.6543 16.9337 72.6905L12.7109 73.8397C12.5777 73.876 12.4403 73.7973 12.4041 73.6641L11.2549 69.4414C11.2187 69.3082 11.2973 69.1708 11.4305 69.1345Z" stroke="#0592FF" stroke-width="1.5" stroke-linejoin="round"/>
<path d="M24.2559 69.52C24.3649 69.3374 24.6029 69.2805 24.7827 69.3941L26.7516 70.6377C26.8372 70.6917 26.9408 70.7092 27.0394 70.6863L27.8876 70.4891C28.2148 70.413 28.288 69.9801 28.004 69.8007L25.4726 68.2019C25.299 68.0923 25.2446 67.8643 25.3498 67.688L26.8146 65.235C26.9856 64.9485 26.729 64.597 26.404 64.6725L25.6801 64.8409C25.5815 64.8638 25.4963 64.9252 25.4433 65.0115L24.2408 66.9707C24.1305 67.1503 23.8946 67.2052 23.7163 67.0926L21.7725 65.8649C21.687 65.8109 21.5834 65.7933 21.4848 65.8163L20.6366 66.0135C20.3094 66.0896 20.2362 66.5225 20.5202 66.7019L23.0045 68.2709C23.1795 68.3815 23.2332 68.6122 23.1249 68.7887L21.5878 71.2929C21.4121 71.5792 21.6688 71.9354 21.9959 71.8593L22.8415 71.6627C22.9416 71.6394 23.028 71.5764 23.0807 71.4881L24.2559 69.52Z" fill="#0592FF"/>
</g>
</g>
<defs>
<linearGradient id="paint0_linear_10747_38734" x1="46.3073" y1="38.8865" x2="12.2458" y2="81.8832" gradientUnits="userSpaceOnUse">
<stop stop-color="white"/>
<stop offset="1" stop-color="white" stop-opacity="0"/>
</linearGradient>
<linearGradient id="paint1_linear_10747_38734" x1="89.8463" y1="16.4161" x2="39.7902" y2="68.3952" gradientUnits="userSpaceOnUse">
<stop stop-color="white"/>
<stop offset="1" stop-color="white" stop-opacity="0"/>
</linearGradient>
<linearGradient id="paint2_linear_10747_38734" x1="96.7725" y1="7.16142" x2="62.707" y2="50.1604" gradientUnits="userSpaceOnUse">
<stop stop-color="white"/>
<stop offset="1" stop-color="white" stop-opacity="0"/>
</linearGradient>
<linearGradient id="paint3_linear_10747_38734" x1="47.9299" y1="111.966" x2="18.7937" y2="44.5243" gradientUnits="userSpaceOnUse">
<stop stop-color="#0592FF"/>
<stop offset="1" stop-color="#DBEEFF"/>
</linearGradient>
<clipPath id="clip0_10747_38734">
<rect width="88" height="88" fill="white"/>
</clipPath>
</defs>
</svg>
