<svg width="56" height="56" viewBox="0 0 56 56" fill="none" xmlns="http://www.w3.org/2000/svg">
<g id="Game icon">
<path id="Vector" d="M24.9023 18.5996C24.9023 18.0473 25.35 17.5996 25.9023 17.5996H30.2292C30.7815 17.5996 31.2292 18.0473 31.2292 18.5996V19.7086H24.9023V18.5996Z" fill="url(#paint0_linear_10747_38409)"/>
<path id="Vector_2" d="M31.2292 19.7086V18.5996C31.2292 18.0473 30.7815 17.5996 30.2292 17.5996H25.9023C25.35 17.5996 24.9023 18.0473 24.9023 18.5996V19.7086" stroke="url(#paint1_linear_10747_38409)" stroke-width="0.5" stroke-linecap="round" stroke-linejoin="round"/>
<path id="Vector_3" d="M27.0117 6.5C27.0117 6.22386 27.2355 6 27.5117 6H28.6207C28.8968 6 29.1207 6.22386 29.1207 6.5V17.5995H27.0117V6.5Z" fill="url(#paint2_linear_10747_38409)"/>
<path id="Vector_4" d="M29.1207 17.5995V6.5C29.1207 6.22386 28.8968 6 28.6207 6H27.5117C27.2355 6 27.0117 6.22386 27.0117 6.5V17.5995" stroke="url(#paint3_linear_10747_38409)" stroke-width="0.5" stroke-linecap="round" stroke-linejoin="round"/>
<path id="Vector_5" d="M4.1337 32.5442C3.39913 25.6882 8.77193 19.709 15.6672 19.709H40.4657C47.3609 19.709 52.7337 25.6882 51.9991 32.5442L51.5231 36.9868C50.7768 43.9527 44.8984 49.2349 37.8927 49.2349H18.2402C11.2345 49.2349 5.35604 43.9526 4.6097 36.9868L4.1337 32.5442Z" fill="url(#paint4_linear_10747_38409)"/>
<path id="Vector_6" fill-rule="evenodd" clip-rule="evenodd" d="M20.973 49.2344H18.2397C12.0995 49.2344 6.82524 45.1767 5.11328 39.4842C6.68781 38.5417 8.5298 38 10.4983 38C16.2973 38 20.9983 42.701 20.9983 48.5C20.9983 48.7469 20.9898 48.9918 20.973 49.2344Z" fill="url(#paint5_linear_10747_38409)" fill-opacity="0.2"/>
<path id="Vector_7" d="M21.7422 19.709H34.3962L32.8399 22.8214C32.5012 23.499 31.8086 23.927 31.0511 23.927H25.0873C24.3297 23.927 23.6372 23.499 23.2984 22.8214L21.7422 19.709Z" fill="url(#paint6_linear_10747_38409)"/>
<path id="Vector_8" d="M21.7422 19.709L23.2984 22.8214C23.6372 23.499 24.3297 23.927 25.0873 23.927H31.0511C31.8086 23.927 32.5012 23.499 32.8399 22.8214L34.0648 20.3718" stroke="url(#paint7_linear_10747_38409)" stroke-width="0.5" stroke-linecap="round" stroke-linejoin="round"/>
<g id="Group" style="mix-blend-mode:overlay">
<path id="Vector_9" fill-rule="evenodd" clip-rule="evenodd" d="M7.77122 22.418C5.83228 24.6372 4.77599 27.6314 5.11831 30.8264L5.7332 36.5653C6.44097 43.1711 12.0156 48.1804 18.6592 48.1804H39.585C42.8893 48.1804 45.9291 46.9412 48.2373 44.8828C45.8452 47.5653 42.366 49.2349 38.5305 49.2349H17.6047C10.9611 49.2349 5.38647 44.2256 4.67871 37.6198L4.06382 31.8809C3.66373 28.1467 5.17411 24.6869 7.77122 22.418Z" fill="#040A1F" fill-opacity="0.87"/>
</g>
<path id="Vector_10" fill-rule="evenodd" clip-rule="evenodd" d="M6.71875 23.472C8.64352 21.7907 11.1651 20.7635 13.9482 20.7635H40.081C46.6199 20.7635 51.715 26.4337 51.0184 32.9354L50.4035 38.6743C50.1043 41.4667 48.9354 43.9738 47.1838 45.9379C49.5167 43.8576 51.1023 40.9404 51.4581 37.6198L52.073 31.8809C52.7696 25.3792 47.6745 19.709 41.1356 19.709H15.0028C11.6775 19.709 8.72547 21.1755 6.71875 23.472Z" fill="white"/>
<path id="Vector_11" d="M28.0664 49.2349V19.709H40.4657C47.3609 19.709 52.7337 25.6882 51.9991 32.5442L51.5231 36.9868C50.7768 43.9527 44.8984 49.2349 37.8927 49.2349H28.0664Z" fill="url(#paint8_linear_10747_38409)" fill-opacity="0.5"/>
<path id="Vector_12" d="M4.1337 32.5442C3.39913 25.6882 8.77193 19.709 15.6672 19.709H40.4657C47.3609 19.709 52.7337 25.6882 51.9991 32.5442L51.5231 36.9868C50.7768 43.9527 44.8984 49.2349 37.8927 49.2349H18.2402C11.2345 49.2349 5.35604 43.9526 4.6097 36.9868L4.1337 32.5442Z" stroke="url(#paint9_linear_10747_38409)" stroke-width="0.5" stroke-linecap="round" stroke-linejoin="round"/>
<path id="Vector_13" d="M16.4672 42.9071C21.1263 42.9071 24.9032 39.1302 24.9032 34.4711C24.9032 29.8121 21.1263 26.0352 16.4672 26.0352C11.8082 26.0352 8.03125 29.8121 8.03125 34.4711C8.03125 39.1302 11.8082 42.9071 16.4672 42.9071Z" fill="url(#paint10_linear_10747_38409)"/>
<path id="Vector_14" fill-rule="evenodd" clip-rule="evenodd" d="M21.8839 40.9403C23.7308 39.3929 24.9052 37.0692 24.9052 34.4712C24.9052 29.8121 21.1283 26.0352 16.4692 26.0352C13.8712 26.0352 11.5475 27.2096 10 29.0565C11.4652 27.8288 13.3536 27.0897 15.4147 27.0897C20.0738 27.0897 23.8507 30.8666 23.8507 35.5257C23.8507 37.5867 23.1115 39.4752 21.8839 40.9403Z" fill="white"/>
<g id="Group_2" style="mix-blend-mode:overlay">
<path id="Vector_15" fill-rule="evenodd" clip-rule="evenodd" d="M22.9364 39.8858C21.4712 41.1135 19.5828 41.8526 17.5217 41.8526C12.8626 41.8526 9.08574 38.0757 9.08574 33.4167C9.08574 31.3556 9.82488 29.4672 11.0525 28.002C9.20565 29.5495 8.03125 31.8732 8.03125 34.4712C8.03125 39.1302 11.8081 42.9071 16.4672 42.9071C19.0652 42.9071 21.3889 41.7327 22.9364 39.8858Z" fill="#040A1F" fill-opacity="0.87"/>
</g>
<path id="Vector_16" d="M16.4672 42.9071C21.1263 42.9071 24.9032 39.1302 24.9032 34.4711C24.9032 29.8121 21.1263 26.0352 16.4672 26.0352C11.8082 26.0352 8.03125 29.8121 8.03125 34.4711C8.03125 39.1302 11.8082 42.9071 16.4672 42.9071Z" stroke="url(#paint11_linear_10747_38409)" stroke-width="0.5" stroke-linecap="round" stroke-linejoin="round"/>
<path id="Vector_17" d="M15.8391 29.1992C15.4583 29.1992 15.1497 29.5079 15.1497 29.8887V33.1535H11.8848C11.504 33.1535 11.1953 33.4622 11.1953 33.843V35.1003C11.1953 35.4811 11.504 35.7898 11.8848 35.7898H15.1497V39.0547C15.1497 39.4354 15.4583 39.7441 15.8391 39.7441H17.0964C17.4772 39.7441 17.7859 39.4354 17.7859 39.0547V35.7898H21.0508C21.4316 35.7898 21.7403 35.4811 21.7403 35.1003V33.843C21.7403 33.4622 21.4316 33.1535 21.0508 33.1535H17.7859V29.8887C17.7859 29.5079 17.4772 29.1992 17.0964 29.1992H15.8391Z" fill="white"/>
<path id="Vector_18" d="M17.7859 30.1992C17.7859 29.6469 17.3382 29.1992 16.7859 29.1992H16.1497C15.5974 29.1992 15.1497 29.6469 15.1497 30.1992V32.1535C15.1497 32.7058 14.7019 33.1535 14.1497 33.1535H12.1953C11.643 33.1535 11.1953 33.6012 11.1953 34.1535V34.7898C11.1953 35.3421 11.643 35.7898 12.1953 35.7898H14.1497C14.7019 35.7898 15.1497 36.2375 15.1497 36.7898V38.7441C15.1497 39.2964 15.5974 39.7441 16.1497 39.7441H16.7859C17.3382 39.7441 17.7859 39.2964 17.7859 38.7441V36.7898C17.7859 36.2375 18.2336 35.7898 18.7859 35.7898H20.7403C21.2925 35.7898 21.7403 35.3421 21.7403 34.7898V34.1535C21.7403 33.6012 21.2925 33.1535 20.7403 33.1535H18.7859C18.2336 33.1535 17.7859 32.7058 17.7859 32.1535V30.1992Z" fill="url(#paint12_linear_10747_38409)"/>
<path id="Vector_19" d="M16.5278 29.1992V39.7441H16.1497C15.5974 39.7441 15.1497 39.2964 15.1497 38.7441V36.7898C15.1497 36.2375 14.7019 35.7898 14.1497 35.7898H12.1953C11.643 35.7898 11.1953 35.3421 11.1953 34.7898V34.1535C11.1953 33.6012 11.643 33.1535 12.1953 33.1535H14.1497C14.7019 33.1535 15.1497 32.7058 15.1497 32.1535V30.1992C15.1497 29.6469 15.5974 29.1992 16.1497 29.1992H16.5278Z" fill="url(#paint13_linear_10747_38409)"/>
<g id="Group_3" style="mix-blend-mode:overlay" opacity="0.5">
<path id="Vector_20" d="M11.8544 33.1533H11.5817C11.3683 33.1533 11.1953 33.3263 11.1953 33.5397V35.4032C11.1953 35.6166 11.3683 35.7896 11.5817 35.7896H14.1497C14.7019 35.7896 15.1497 36.2373 15.1497 36.7896V39.3576C15.1497 39.5709 15.3226 39.7439 15.536 39.7439H17.3995C17.6129 39.7439 17.7859 39.5709 17.7859 39.3576V39.0849H16.0985C15.9385 39.0849 15.8087 38.9551 15.8087 38.7951V36.1305C15.8087 35.5782 15.361 35.1305 14.8087 35.1305H12.1441C11.9841 35.1305 11.8544 35.0008 11.8544 34.8407V33.1533Z" fill="#040A1F"/>
</g>
<path id="Vector_21" d="M15.1484 29.8582C15.1484 29.4942 15.4435 29.1992 15.8075 29.1992H16.7847C17.337 29.1992 17.7847 29.6469 17.7847 30.1992V32.1535C17.7847 32.7058 18.2324 33.1535 18.7847 33.1535H20.739C21.2913 33.1535 21.739 33.6013 21.739 34.1535V35.1307C21.739 35.4947 21.444 35.7898 21.08 35.7898V34.1024C21.08 33.9423 20.9502 33.8126 20.7902 33.8126H18.1256C17.5733 33.8126 17.1256 33.3649 17.1256 32.8126V30.148C17.1256 29.988 16.9959 29.8582 16.8359 29.8582H15.1484Z" fill="#FAFAFA"/>
<path id="Vector_22" d="M17.7859 30.1992C17.7859 29.6469 17.3382 29.1992 16.7859 29.1992H16.1497C15.5974 29.1992 15.1497 29.6469 15.1497 30.1992V32.1535C15.1497 32.7058 14.7019 33.1535 14.1497 33.1535H12.1953C11.643 33.1535 11.1953 33.6012 11.1953 34.1535V34.7898C11.1953 35.3421 11.643 35.7898 12.1953 35.7898H14.1497C14.7019 35.7898 15.1497 36.2375 15.1497 36.7898V38.7441C15.1497 39.2964 15.5974 39.7441 16.1497 39.7441H16.7859C17.3382 39.7441 17.7859 39.2964 17.7859 38.7441V36.7898C17.7859 36.2375 18.2336 35.7898 18.7859 35.7898H20.7403C21.2925 35.7898 21.7403 35.3421 21.7403 34.7898V34.1535C21.7403 33.6012 21.2925 33.1535 20.7403 33.1535H18.7859C18.2336 33.1535 17.7859 32.7058 17.7859 32.1535V30.1992Z" stroke="url(#paint14_linear_10747_38409)" stroke-width="0.5" stroke-linecap="round" stroke-linejoin="round"/>
<path id="Vector_23" d="M39.6664 42.9071C44.3255 42.9071 48.1024 39.1302 48.1024 34.4711C48.1024 29.8121 44.3255 26.0352 39.6664 26.0352C35.0074 26.0352 31.2305 29.8121 31.2305 34.4711C31.2305 39.1302 35.0074 42.9071 39.6664 42.9071Z" fill="url(#paint15_linear_10747_38409)"/>
<g id="Group_4" style="mix-blend-mode:overlay">
<path id="Vector_24" fill-rule="evenodd" clip-rule="evenodd" d="M46.1356 39.8858C44.6704 41.1135 42.782 41.8526 40.7209 41.8526C36.0619 41.8526 32.285 38.0757 32.285 33.4167C32.285 31.3556 33.0241 29.4672 34.2518 28.002C32.4049 29.5495 31.2305 31.8732 31.2305 34.4712C31.2305 39.1302 35.0074 42.9071 39.6664 42.9071C42.2644 42.9071 44.5881 41.7327 46.1356 39.8858Z" fill="#040A1F" fill-opacity="0.87"/>
</g>
<path id="Vector_25" fill-rule="evenodd" clip-rule="evenodd" d="M45.083 40.9403C46.9299 39.3929 48.1043 37.0692 48.1043 34.4712C48.1043 29.8121 44.3274 26.0352 39.6684 26.0352C37.0704 26.0352 34.7467 27.2096 33.1992 29.0565C34.6644 27.8288 36.5528 27.0897 38.6139 27.0897C43.2729 27.0897 47.0498 30.8666 47.0498 35.5257C47.0498 37.5867 46.3107 39.4752 45.083 40.9403Z" fill="white"/>
<path id="Vector_26" d="M39.6664 42.9071C44.3255 42.9071 48.1024 39.1302 48.1024 34.4711C48.1024 29.8121 44.3255 26.0352 39.6664 26.0352C35.0074 26.0352 31.2305 29.8121 31.2305 34.4711C31.2305 39.1302 35.0074 42.9071 39.6664 42.9071Z" stroke="url(#paint16_linear_10747_38409)" stroke-width="0.5" stroke-linecap="round" stroke-linejoin="round"/>
<path id="Vector_27" d="M39.6676 40.7981C40.8324 40.7981 41.7766 39.8539 41.7766 38.6891C41.7766 37.5243 40.8324 36.5801 39.6676 36.5801C38.5028 36.5801 37.5586 37.5243 37.5586 38.6891C37.5586 39.8539 38.5028 40.7981 39.6676 40.7981Z" fill="url(#paint17_linear_10747_38409)"/>
<path id="Vector_28" d="M39.6676 40.7981C40.8324 40.7981 41.7766 39.8539 41.7766 38.6891C41.7766 37.5243 40.8324 36.5801 39.6676 36.5801C38.5028 36.5801 37.5586 37.5243 37.5586 38.6891C37.5586 39.8539 38.5028 40.7981 39.6676 40.7981Z" stroke="url(#paint18_linear_10747_38409)" stroke-width="0.5" stroke-linecap="round" stroke-linejoin="round"/>
<path id="Vector_29" d="M43.8864 36.5803C45.0511 36.5803 45.9954 35.6361 45.9954 34.4713C45.9954 33.3065 45.0511 32.3623 43.8864 32.3623C42.7216 32.3623 41.7773 33.3065 41.7773 34.4713C41.7773 35.6361 42.7216 36.5803 43.8864 36.5803Z" fill="url(#paint19_linear_10747_38409)"/>
<path id="Vector_30" d="M43.8864 36.5803C45.0511 36.5803 45.9954 35.6361 45.9954 34.4713C45.9954 33.3065 45.0511 32.3623 43.8864 32.3623C42.7216 32.3623 41.7773 33.3065 41.7773 34.4713C41.7773 35.6361 42.7216 36.5803 43.8864 36.5803Z" stroke="url(#paint20_linear_10747_38409)" stroke-width="0.5" stroke-linecap="round" stroke-linejoin="round"/>
<path id="Vector_31" d="M35.4488 36.5803C36.6136 36.5803 37.5578 35.6361 37.5578 34.4713C37.5578 33.3065 36.6136 32.3623 35.4488 32.3623C34.2841 32.3623 33.3398 33.3065 33.3398 34.4713C33.3398 35.6361 34.2841 36.5803 35.4488 36.5803Z" fill="url(#paint21_linear_10747_38409)"/>
<path id="Vector_32" d="M35.4488 36.5803C36.6136 36.5803 37.5578 35.6361 37.5578 34.4713C37.5578 33.3065 36.6136 32.3623 35.4488 32.3623C34.2841 32.3623 33.3398 33.3065 33.3398 34.4713C33.3398 35.6361 34.2841 36.5803 35.4488 36.5803Z" stroke="url(#paint22_linear_10747_38409)" stroke-width="0.5" stroke-linecap="round" stroke-linejoin="round"/>
<path id="Vector_33" d="M39.6676 32.3625C40.8323 32.3625 41.7766 31.4183 41.7766 30.2535C41.7766 29.0888 40.8323 28.1445 39.6676 28.1445C38.5028 28.1445 37.5586 29.0888 37.5586 30.2535C37.5586 31.4183 38.5028 32.3625 39.6676 32.3625Z" fill="url(#paint23_linear_10747_38409)"/>
<path id="Vector_34" d="M39.6676 32.3625C40.8323 32.3625 41.7766 31.4183 41.7766 30.2535C41.7766 29.0888 40.8323 28.1445 39.6676 28.1445C38.5028 28.1445 37.5586 29.0888 37.5586 30.2535C37.5586 31.4183 38.5028 32.3625 39.6676 32.3625Z" stroke="url(#paint24_linear_10747_38409)" stroke-width="0.5" stroke-linecap="round" stroke-linejoin="round"/>
<path id="Vector_35" d="M24.3786 46.0707C25.2522 46.0707 25.9604 45.3625 25.9604 44.489C25.9604 43.6154 25.2522 42.9072 24.3786 42.9072C23.505 42.9072 22.7969 43.6154 22.7969 44.489C22.7969 45.3625 23.505 46.0707 24.3786 46.0707Z" fill="url(#paint25_linear_10747_38409)"/>
<g id="Group_5" style="mix-blend-mode:overlay">
<path id="Vector_36" fill-rule="evenodd" clip-rule="evenodd" d="M25.6773 45.3923C25.4212 45.5708 25.1099 45.6754 24.7741 45.6754C23.9005 45.6754 23.1923 44.9672 23.1923 44.0937C23.1923 43.7579 23.297 43.4465 23.4754 43.1904C23.0653 43.4762 22.7969 43.9513 22.7969 44.4891C22.7969 45.3627 23.5051 46.0708 24.3786 46.0708C24.9164 46.0708 25.3915 45.8025 25.6773 45.3923Z" fill="#040A1F" fill-opacity="0.6"/>
</g>
<path id="Vector_37" opacity="0.6" fill-rule="evenodd" clip-rule="evenodd" d="M25.2804 45.7875C25.6904 45.5017 25.9588 45.0267 25.9588 44.4889C25.9588 43.6153 25.2506 42.9072 24.377 42.9072C23.8391 42.9072 23.3639 43.1757 23.0781 43.586C23.3343 43.4075 23.6456 43.3029 23.9815 43.3029C24.855 43.3029 25.5632 44.011 25.5632 44.8846C25.5632 45.2203 25.4587 45.5315 25.2804 45.7875Z" fill="white"/>
<path id="Vector_38" d="M24.3786 46.0707C25.2522 46.0707 25.9604 45.3625 25.9604 44.489C25.9604 43.6154 25.2522 42.9072 24.3786 42.9072C23.505 42.9072 22.7969 43.6154 22.7969 44.489C22.7969 45.3625 23.505 46.0707 24.3786 46.0707Z" stroke="url(#paint26_linear_10747_38409)" stroke-width="0.5" stroke-linecap="round" stroke-linejoin="round"/>
<path id="Vector_39" d="M31.7575 46.0707C32.6311 46.0707 33.3393 45.3625 33.3393 44.489C33.3393 43.6154 32.6311 42.9072 31.7575 42.9072C30.8839 42.9072 30.1758 43.6154 30.1758 44.489C30.1758 45.3625 30.8839 46.0707 31.7575 46.0707Z" fill="url(#paint27_linear_10747_38409)"/>
<g id="Group_6" style="mix-blend-mode:overlay">
<path id="Vector_40" fill-rule="evenodd" clip-rule="evenodd" d="M33.0563 45.3919C32.8001 45.5705 32.4887 45.6752 32.1528 45.6752C31.2792 45.6752 30.5711 44.967 30.5711 44.0934C30.5711 43.7577 30.6757 43.4464 30.854 43.1904C30.444 43.4762 30.1758 43.9512 30.1758 44.4889C30.1758 45.3624 30.8839 46.0706 31.7575 46.0706C32.2954 46.0706 32.7705 45.8021 33.0563 45.3919Z" fill="#040A1F" fill-opacity="0.6"/>
</g>
<path id="Vector_41" opacity="0.6" fill-rule="evenodd" clip-rule="evenodd" d="M32.6624 45.7878C33.0727 45.502 33.3412 45.0269 33.3412 44.489C33.3412 43.6154 32.633 42.9072 31.7594 42.9072C31.2217 42.9072 30.7467 43.1755 30.4609 43.5856C30.7169 43.4072 31.0282 43.3027 31.3639 43.3027C32.2374 43.3027 32.9456 44.0108 32.9456 44.8844C32.9456 45.2203 32.8409 45.5317 32.6624 45.7878Z" fill="white"/>
<path id="Vector_42" d="M31.7575 46.0707C32.6311 46.0707 33.3393 45.3625 33.3393 44.489C33.3393 43.6154 32.6311 42.9072 31.7575 42.9072C30.8839 42.9072 30.1758 43.6154 30.1758 44.489C30.1758 45.3625 30.8839 46.0707 31.7575 46.0707Z" stroke="url(#paint28_linear_10747_38409)" stroke-width="0.5" stroke-linecap="round" stroke-linejoin="round"/>
<path id="Vector_43" d="M9.87048 24.2274C8.7303 25.032 7.85665 26.1778 7.38672 27.4995M11.8657 23.2664C12.1701 23.1781 12.4839 23.1105 12.8057 23.0654" stroke="white" stroke-linecap="round" stroke-linejoin="round"/>
</g>
<defs>
<linearGradient id="paint0_linear_10747_38409" x1="33.1918" y1="21.2352" x2="32.9456" y2="16.9104" gradientUnits="userSpaceOnUse">
<stop stop-color="#001BC1"/>
<stop offset="1" stop-color="#12B3FD"/>
</linearGradient>
<linearGradient id="paint1_linear_10747_38409" x1="30.8629" y1="24.7814" x2="26.8195" y2="17.0547" gradientUnits="userSpaceOnUse">
<stop stop-color="#1B217C"/>
<stop offset="1" stop-color="#1B217C" stop-opacity="0"/>
</linearGradient>
<linearGradient id="paint2_linear_10747_38409" x1="31.2296" y1="18.654" x2="30.5938" y2="4.75747" gradientUnits="userSpaceOnUse">
<stop stop-color="#0592FF"/>
<stop offset="1" stop-color="#DBEEFF"/>
</linearGradient>
<linearGradient id="paint3_linear_10747_38409" x1="28.9985" y1="45.5" x2="22.812" y2="44.7835" gradientUnits="userSpaceOnUse">
<stop stop-color="#1B217C"/>
<stop offset="1" stop-color="#1B217C" stop-opacity="0"/>
</linearGradient>
<linearGradient id="paint4_linear_10747_38409" x1="23.4988" y1="43.0005" x2="47.9703" y2="22.2207" gradientUnits="userSpaceOnUse">
<stop stop-color="#0592FF"/>
<stop offset="1" stop-color="#DBEEFF"/>
</linearGradient>
<linearGradient id="paint5_linear_10747_38409" x1="24.0017" y1="30.7393" x2="1.53578" y2="66.9133" gradientUnits="userSpaceOnUse">
<stop stop-color="white"/>
<stop offset="1" stop-color="white" stop-opacity="0"/>
</linearGradient>
<linearGradient id="paint6_linear_10747_38409" x1="38.3212" y1="26.9802" x2="37.8288" y2="18.3306" gradientUnits="userSpaceOnUse">
<stop stop-color="#001BC1"/>
<stop offset="1" stop-color="#12B3FD"/>
</linearGradient>
<linearGradient id="paint7_linear_10747_38409" x1="35.5678" y1="29.1342" x2="24.6248" y2="17.9139" gradientUnits="userSpaceOnUse">
<stop stop-color="#1B217C"/>
<stop offset="1" stop-color="#1B217C" stop-opacity="0"/>
</linearGradient>
<linearGradient id="paint8_linear_10747_38409" x1="62.9989" y1="-6.99952" x2="21.4989" y2="54.0005" gradientUnits="userSpaceOnUse">
<stop stop-color="white"/>
<stop offset="1" stop-color="white" stop-opacity="0"/>
</linearGradient>
<linearGradient id="paint9_linear_10747_38409" x1="58.0609" y1="85.6851" x2="-8.78283" y2="46.5211" gradientUnits="userSpaceOnUse">
<stop stop-color="#1B217C"/>
<stop offset="1" stop-color="#1B217C" stop-opacity="0"/>
</linearGradient>
<linearGradient id="paint10_linear_10747_38409" x1="16.5418" y1="24.693" x2="25.8444" y2="58.0462" gradientUnits="userSpaceOnUse">
<stop stop-color="#F1F8FF"/>
<stop offset="1" stop-color="#85C5FF"/>
</linearGradient>
<linearGradient id="paint11_linear_10747_38409" x1="5.99908" y1="66.9997" x2="10.0621" y2="24.158" gradientUnits="userSpaceOnUse">
<stop stop-color="#1B217C"/>
<stop offset="1" stop-color="#1B217C" stop-opacity="0"/>
</linearGradient>
<linearGradient id="paint12_linear_10747_38409" x1="16.2859" y1="34.2841" x2="24.7863" y2="30.7633" gradientUnits="userSpaceOnUse">
<stop stop-color="#0A7CFF"/>
<stop offset="1" stop-color="#003DAF"/>
</linearGradient>
<linearGradient id="paint13_linear_10747_38409" x1="18.1817" y1="47.3772" x2="11.6051" y2="27.9042" gradientUnits="userSpaceOnUse">
<stop stop-color="#0C87EB"/>
<stop offset="1" stop-color="#12B3FD"/>
</linearGradient>
<linearGradient id="paint14_linear_10747_38409" x1="22.7166" y1="52.7621" x2="5.96695" y2="47.0374" gradientUnits="userSpaceOnUse">
<stop stop-color="#1B217C"/>
<stop offset="1" stop-color="#1B217C" stop-opacity="0"/>
</linearGradient>
<linearGradient id="paint15_linear_10747_38409" x1="39.741" y1="24.693" x2="49.0437" y2="58.0462" gradientUnits="userSpaceOnUse">
<stop stop-color="#F1F8FF"/>
<stop offset="1" stop-color="#85C5FF"/>
</linearGradient>
<linearGradient id="paint16_linear_10747_38409" x1="32.9994" y1="63.4997" x2="18.4619" y2="41.0002" gradientUnits="userSpaceOnUse">
<stop stop-color="#1B217C"/>
<stop offset="1" stop-color="#1B217C" stop-opacity="0"/>
</linearGradient>
<linearGradient id="paint17_linear_10747_38409" x1="39.5949" y1="38.6141" x2="42.995" y2="37.2058" gradientUnits="userSpaceOnUse">
<stop stop-color="#0A7CFF"/>
<stop offset="1" stop-color="#003DAF"/>
</linearGradient>
<linearGradient id="paint18_linear_10747_38409" x1="42.1672" y1="46.0054" x2="35.4672" y2="43.7155" gradientUnits="userSpaceOnUse">
<stop stop-color="#1B217C"/>
<stop offset="1" stop-color="#1B217C" stop-opacity="0"/>
</linearGradient>
<linearGradient id="paint19_linear_10747_38409" x1="43.8137" y1="34.3963" x2="47.2138" y2="32.9879" gradientUnits="userSpaceOnUse">
<stop stop-color="#0A7CFF"/>
<stop offset="1" stop-color="#003DAF"/>
</linearGradient>
<linearGradient id="paint20_linear_10747_38409" x1="46.386" y1="41.7875" x2="39.686" y2="39.4976" gradientUnits="userSpaceOnUse">
<stop stop-color="#1B217C"/>
<stop offset="1" stop-color="#1B217C" stop-opacity="0"/>
</linearGradient>
<linearGradient id="paint21_linear_10747_38409" x1="35.376" y1="34.3963" x2="38.7762" y2="32.9879" gradientUnits="userSpaceOnUse">
<stop stop-color="#0A7CFF"/>
<stop offset="1" stop-color="#003DAF"/>
</linearGradient>
<linearGradient id="paint22_linear_10747_38409" x1="37.9483" y1="41.7875" x2="31.2484" y2="39.4976" gradientUnits="userSpaceOnUse">
<stop stop-color="#1B217C"/>
<stop offset="1" stop-color="#1B217C" stop-opacity="0"/>
</linearGradient>
<linearGradient id="paint23_linear_10747_38409" x1="39.5948" y1="30.1785" x2="42.995" y2="28.7702" gradientUnits="userSpaceOnUse">
<stop stop-color="#0A7CFF"/>
<stop offset="1" stop-color="#003DAF"/>
</linearGradient>
<linearGradient id="paint24_linear_10747_38409" x1="42.1671" y1="37.5697" x2="35.4672" y2="35.2798" gradientUnits="userSpaceOnUse">
<stop stop-color="#1B217C"/>
<stop offset="1" stop-color="#1B217C" stop-opacity="0"/>
</linearGradient>
<linearGradient id="paint25_linear_10747_38409" x1="29.1238" y1="46.3583" x2="29.0922" y2="42.5607" gradientUnits="userSpaceOnUse">
<stop stop-color="#0592FF"/>
<stop offset="1" stop-color="#DBEEFF"/>
</linearGradient>
<linearGradient id="paint26_linear_10747_38409" x1="26.2533" y1="49.9761" x2="21.2284" y2="48.2587" gradientUnits="userSpaceOnUse">
<stop stop-color="#1B217C"/>
<stop offset="1" stop-color="#1B217C" stop-opacity="0"/>
</linearGradient>
<linearGradient id="paint27_linear_10747_38409" x1="36.5027" y1="46.3583" x2="36.4711" y2="42.5607" gradientUnits="userSpaceOnUse">
<stop stop-color="#0592FF"/>
<stop offset="1" stop-color="#DBEEFF"/>
</linearGradient>
<linearGradient id="paint28_linear_10747_38409" x1="33.6321" y1="49.9761" x2="28.6072" y2="48.2587" gradientUnits="userSpaceOnUse">
<stop stop-color="#1B217C"/>
<stop offset="1" stop-color="#1B217C" stop-opacity="0"/>
</linearGradient>
</defs>
</svg>
