<svg width="640" height="952" viewBox="0 0 640 952" fill="none" xmlns="http://www.w3.org/2000/svg">
<g clip-path="url(#clip0_9151_75528)">
<g opacity="0.35">
<path d="M404.203 152.924L397.138 149.163" stroke="url(#paint0_linear_9151_75528)" stroke-width="2.5" stroke-linecap="round"/>
<path d="M401.813 155.48L394.468 156.151" stroke="url(#paint1_linear_9151_75528)" stroke-width="2.5" stroke-linecap="round"/>
<path d="M402.835 158.127L400.879 159.48" stroke="url(#paint2_linear_9151_75528)" stroke-width="2.5" stroke-linecap="round"/>
</g>
<path opacity="0.35" d="M72.753 850.753C67.0904 856.416 57.9096 856.416 52.247 850.753C46.5844 845.09 46.5844 835.91 52.247 830.247C57.9096 824.584 67.0904 824.584 72.753 830.247C78.4156 835.91 78.4156 845.09 72.753 850.753Z" fill="url(#paint3_linear_9151_75528)"/>
<g opacity="0.35">
<path d="M134.8 754.085L126.801 754.359" stroke="url(#paint4_linear_9151_75528)" stroke-width="2.5" stroke-linecap="round"/>
<path d="M134.007 757.494L127.982 761.746" stroke="url(#paint5_linear_9151_75528)" stroke-width="2.5" stroke-linecap="round"/>
<path d="M136.218 759.275L135.201 761.424" stroke="url(#paint6_linear_9151_75528)" stroke-width="2.5" stroke-linecap="round"/>
</g>
<g opacity="0.22">
<path d="M13.1064 99.8395C13.1064 99.8395 15.1222 103.918 23.5495 103.765C31.9768 103.613 29.7549 109.577 34.7336 110.871C39.7454 112.174 48.0574 110.081 48.0574 110.081" stroke="black" stroke-width="1.5" stroke-linecap="round"/>
<path d="M13.1064 99.8395C13.1064 99.8395 15.1222 103.918 23.5495 103.765C31.9768 103.613 29.7549 109.577 34.7336 110.871C39.7454 112.174 48.0574 110.081 48.0574 110.081" stroke="url(#paint7_linear_9151_75528)" stroke-width="1.5" stroke-linecap="round"/>
<path d="M9.41501 104.775C9.41501 104.775 11.4308 108.853 19.8581 108.701C28.2854 108.549 26.0635 114.513 31.0422 115.807C36.054 117.11 44.366 115.017 44.366 115.017" stroke="black" stroke-width="1.5" stroke-linecap="round"/>
<path d="M9.41501 104.775C9.41501 104.775 11.4308 108.853 19.8581 108.701C28.2854 108.549 26.0635 114.513 31.0422 115.807C36.054 117.11 44.366 115.017 44.366 115.017" stroke="url(#paint8_linear_9151_75528)" stroke-width="1.5" stroke-linecap="round"/>
</g>
<path opacity="0.4" d="M488.145 54.4955C508.231 60.1092 511.593 66.1177 508.512 74.0851C505.324 82.3286 498.137 80.2707 499.76 73.8396C501.496 66.9636 508.352 68.3262 516.142 78.6747" stroke="url(#paint9_linear_9151_75528)" stroke-width="3" stroke-linecap="round" stroke-linejoin="round"/>
<circle opacity="0.55" cx="209.5" cy="78.5" r="44.5" fill="url(#paint10_linear_9151_75528)"/>
<g opacity="0.12">
<circle cx="313.787" cy="511.651" r="7.5" transform="rotate(-15 313.787 511.651)" fill="url(#paint11_radial_9151_75528)"/>
<circle cx="307.965" cy="491.919" r="7.5" transform="rotate(-15 307.965 491.919)" fill="url(#paint12_radial_9151_75528)"/>
<circle cx="302.141" cy="473.184" r="7.5" transform="rotate(-15 302.141 473.184)" fill="url(#paint13_radial_9151_75528)"/>
<circle cx="275.15" cy="522.004" r="7.5" transform="rotate(-15 275.15 522.004)" fill="url(#paint14_radial_9151_75528)"/>
<circle cx="269.328" cy="502.27" r="7.5" transform="rotate(-15 269.328 502.27)" fill="url(#paint15_radial_9151_75528)"/>
<circle cx="263.504" cy="483.536" r="7.5" transform="rotate(-15 263.504 483.536)" fill="url(#paint16_radial_9151_75528)"/>
<circle cx="294.469" cy="516.829" r="7.5" transform="rotate(-15 294.469 516.829)" fill="url(#paint17_radial_9151_75528)"/>
<circle cx="288.647" cy="497.094" r="7.5" transform="rotate(-15 288.647 497.094)" fill="url(#paint18_radial_9151_75528)"/>
<circle cx="282.822" cy="478.362" r="7.5" transform="rotate(-15 282.822 478.362)" fill="url(#paint19_radial_9151_75528)"/>
<circle cx="255.832" cy="527.18" r="7.5" transform="rotate(-15 255.832 527.18)" fill="url(#paint20_radial_9151_75528)"/>
<circle cx="250.01" cy="507.448" r="7.5" transform="rotate(-15 250.01 507.448)" fill="url(#paint21_radial_9151_75528)"/>
<circle cx="244.186" cy="488.713" r="7.5" transform="rotate(-15 244.186 488.713)" fill="url(#paint22_radial_9151_75528)"/>
</g>
<circle opacity="0.3" cx="196" cy="196" r="196" transform="matrix(-1 0 0 1 86 208)" fill="url(#paint23_linear_9151_75528)"/>
</g>
<defs>
<linearGradient id="paint0_linear_9151_75528" x1="404.4" y1="153.648" x2="391.581" y2="146.199" gradientUnits="userSpaceOnUse">
<stop stop-color="white"/>
<stop offset="1" stop-color="#008FFF"/>
</linearGradient>
<linearGradient id="paint1_linear_9151_75528" x1="402.434" y1="155.295" x2="386.882" y2="156.98" gradientUnits="userSpaceOnUse">
<stop stop-color="white"/>
<stop offset="1" stop-color="#008FFF"/>
</linearGradient>
<linearGradient id="paint2_linear_9151_75528" x1="403.4" y1="157.648" x2="394.663" y2="163.071" gradientUnits="userSpaceOnUse">
<stop stop-color="white"/>
<stop offset="1" stop-color="#008FFF"/>
</linearGradient>
<linearGradient id="paint3_linear_9151_75528" x1="48.4191" y1="837.721" x2="82.4821" y2="841.024" gradientUnits="userSpaceOnUse">
<stop stop-color="#F8EAC4"/>
<stop offset="1" stop-color="white"/>
</linearGradient>
<linearGradient id="paint4_linear_9151_75528" x1="135.333" y1="754.613" x2="120.506" y2="754.571" gradientUnits="userSpaceOnUse">
<stop stop-color="white"/>
<stop offset="1" stop-color="#008FFF"/>
</linearGradient>
<linearGradient id="paint5_linear_9151_75528" x1="134.453" y1="757.022" x2="121.827" y2="766.258" gradientUnits="userSpaceOnUse">
<stop stop-color="white"/>
<stop offset="1" stop-color="#008FFF"/>
</linearGradient>
<linearGradient id="paint6_linear_9151_75528" x1="136.468" y1="758.577" x2="131.613" y2="767.642" gradientUnits="userSpaceOnUse">
<stop stop-color="white"/>
<stop offset="1" stop-color="#008FFF"/>
</linearGradient>
<linearGradient id="paint7_linear_9151_75528" x1="55.7131" y1="111.205" x2="9.82012" y2="108.15" gradientUnits="userSpaceOnUse">
<stop stop-color="white"/>
<stop offset="1" stop-color="#008FFF"/>
</linearGradient>
<linearGradient id="paint8_linear_9151_75528" x1="52.0217" y1="116.14" x2="6.12871" y2="113.086" gradientUnits="userSpaceOnUse">
<stop stop-color="white"/>
<stop offset="1" stop-color="#008FFF"/>
</linearGradient>
<linearGradient id="paint9_linear_9151_75528" x1="516.146" y1="84.4961" x2="487.736" y2="54.9048" gradientUnits="userSpaceOnUse">
<stop stop-color="white"/>
<stop offset="1" stop-color="#008FFF"/>
</linearGradient>
<linearGradient id="paint10_linear_9151_75528" x1="172.911" y1="103.024" x2="254" y2="36.2744" gradientUnits="userSpaceOnUse">
<stop stop-color="#DAEFFF"/>
<stop offset="1" stop-color="white"/>
</linearGradient>
<radialGradient id="paint11_radial_9151_75528" cx="0" cy="0" r="1" gradientUnits="userSpaceOnUse" gradientTransform="translate(313.617 511.885) rotate(88.6561) scale(7.26763 7.27119)">
<stop stop-color="#008FFF"/>
<stop offset="1" stop-color="white"/>
</radialGradient>
<radialGradient id="paint12_radial_9151_75528" cx="0" cy="0" r="1" gradientUnits="userSpaceOnUse" gradientTransform="translate(307.794 492.153) rotate(88.6561) scale(7.26763 7.27119)">
<stop stop-color="#008FFF"/>
<stop offset="1" stop-color="white"/>
</radialGradient>
<radialGradient id="paint13_radial_9151_75528" cx="0" cy="0" r="1" gradientUnits="userSpaceOnUse" gradientTransform="translate(301.97 473.419) rotate(88.6561) scale(7.26763 7.27119)">
<stop stop-color="#008FFF"/>
<stop offset="1" stop-color="white"/>
</radialGradient>
<radialGradient id="paint14_radial_9151_75528" cx="0" cy="0" r="1" gradientUnits="userSpaceOnUse" gradientTransform="translate(274.98 522.239) rotate(88.6561) scale(7.26763 7.27119)">
<stop stop-color="#008FFF"/>
<stop offset="1" stop-color="white"/>
</radialGradient>
<radialGradient id="paint15_radial_9151_75528" cx="0" cy="0" r="1" gradientUnits="userSpaceOnUse" gradientTransform="translate(269.158 502.504) rotate(88.6561) scale(7.26763 7.27119)">
<stop stop-color="#008FFF"/>
<stop offset="1" stop-color="white"/>
</radialGradient>
<radialGradient id="paint16_radial_9151_75528" cx="0" cy="0" r="1" gradientUnits="userSpaceOnUse" gradientTransform="translate(263.333 483.77) rotate(88.6561) scale(7.26763 7.27119)">
<stop stop-color="#008FFF"/>
<stop offset="1" stop-color="white"/>
</radialGradient>
<radialGradient id="paint17_radial_9151_75528" cx="0" cy="0" r="1" gradientUnits="userSpaceOnUse" gradientTransform="translate(294.298 517.063) rotate(88.6561) scale(7.26763 7.27119)">
<stop stop-color="#008FFF"/>
<stop offset="1" stop-color="white"/>
</radialGradient>
<radialGradient id="paint18_radial_9151_75528" cx="0" cy="0" r="1" gradientUnits="userSpaceOnUse" gradientTransform="translate(288.476 497.329) rotate(88.6561) scale(7.26763 7.27119)">
<stop stop-color="#008FFF"/>
<stop offset="1" stop-color="white"/>
</radialGradient>
<radialGradient id="paint19_radial_9151_75528" cx="0" cy="0" r="1" gradientUnits="userSpaceOnUse" gradientTransform="translate(282.652 478.596) rotate(88.6561) scale(7.26763 7.27119)">
<stop stop-color="#008FFF"/>
<stop offset="1" stop-color="white"/>
</radialGradient>
<radialGradient id="paint20_radial_9151_75528" cx="0" cy="0" r="1" gradientUnits="userSpaceOnUse" gradientTransform="translate(255.662 527.415) rotate(88.6561) scale(7.26763 7.27119)">
<stop stop-color="#008FFF"/>
<stop offset="1" stop-color="white"/>
</radialGradient>
<radialGradient id="paint21_radial_9151_75528" cx="0" cy="0" r="1" gradientUnits="userSpaceOnUse" gradientTransform="translate(249.839 507.682) rotate(88.6561) scale(7.26763 7.27119)">
<stop stop-color="#008FFF"/>
<stop offset="1" stop-color="white"/>
</radialGradient>
<radialGradient id="paint22_radial_9151_75528" cx="0" cy="0" r="1" gradientUnits="userSpaceOnUse" gradientTransform="translate(244.015 488.948) rotate(88.6561) scale(7.26763 7.27119)">
<stop stop-color="#008FFF"/>
<stop offset="1" stop-color="white"/>
</radialGradient>
<linearGradient id="paint23_linear_9151_75528" x1="13" y1="205.5" x2="233" y2="196" gradientUnits="userSpaceOnUse">
<stop stop-color="#F8EAC4"/>
<stop offset="1" stop-color="white"/>
</linearGradient>
<clipPath id="clip0_9151_75528">
<rect width="640" height="952" fill="white"/>
</clipPath>
</defs>
</svg>
