<svg width="76" height="84" viewBox="0 0 76 84" fill="none" xmlns="http://www.w3.org/2000/svg">
<g id="Group 34862">
<g id="Group 34861">
<g id="Group 34841">
<g id="Group 34839">
<g id="bottle">
<g id="Group 34688">
<g id="Subtract" filter="url(#filter0_b_11455_141483)">
<path d="M66.9668 24.0144C66.8536 25.5091 58.8546 26.1222 49.1005 25.3836C39.3464 24.6451 31.5309 22.8346 31.6441 21.3398L31.1659 27.655L26.3736 30.6104C24.0332 32.0537 22.5253 34.5304 22.3177 37.2722L19.6767 72.1521L21.3536 76.8158C21.2404 78.3106 31.767 80.3263 44.8653 81.3181C57.9637 82.3099 68.6738 81.9021 68.787 80.4073L71.147 76.0493L73.788 41.1694C73.9956 38.4275 72.8778 35.752 70.7814 33.9728L66.4887 30.3296L66.9668 24.0144Z" fill="#DCEEFF" fill-opacity="0.2"/>
</g>
<g id="Subtract_2" filter="url(#filter1_b_11455_141483)">
<path d="M66.9668 24.0144C66.8536 25.5091 58.8546 26.1222 49.1005 25.3836C39.3464 24.6451 31.5309 22.8346 31.6441 21.3398L31.1659 27.655L26.3736 30.6104C24.0332 32.0537 22.5253 34.5304 22.3177 37.2722L19.6767 72.1521L21.3536 76.8158C21.2404 78.3106 31.767 80.3263 44.8653 81.3181C57.9637 82.3099 68.6738 81.9021 68.787 80.4073L71.147 76.0493L73.788 41.1694C73.9956 38.4275 72.8778 35.752 70.7814 33.9728L66.4887 30.3296L66.9668 24.0144Z" fill="#F2F2F2"/>
</g>
<g id="Ellipse 891" filter="url(#filter2_b_11455_141483)">
<path d="M68.733 79.7676C68.6014 81.5061 57.8915 82.1127 44.8117 81.1223C31.732 80.1319 21.2355 77.9197 21.3671 76.1811C21.4988 74.4426 32.2087 73.836 45.2884 74.8264C58.3682 75.8168 68.8647 78.029 68.733 79.7676Z" fill="#E7E7E7"/>
</g>
<g id="Ellipse 904" filter="url(#filter3_b_11455_141483)">
<path d="M62.0556 80.2753C61.9528 81.6335 54.219 82.1552 44.7817 81.4407C35.3444 80.7261 27.7774 79.0458 27.8802 77.6877C27.983 76.3295 35.7168 75.8078 45.1541 76.5223C54.5914 77.2369 62.1584 78.9172 62.0556 80.2753Z" fill="#E3E3E3"/>
</g>
<g id="Subtract_3" filter="url(#filter4_b_11455_141483)">
<path fill-rule="evenodd" clip-rule="evenodd" d="M47.6943 25.2635C38.6234 24.4636 31.5721 22.7582 31.6797 21.3379L31.5674 22.8209C34.6672 23.7967 40.0699 24.6952 46.2512 25.1632C46.7368 25.2 47.2181 25.2334 47.6943 25.2635ZM43.4588 81.202C55.8919 82.0578 65.8286 81.6264 65.9376 80.1869L67.4243 77.4416C68 76.3785 68.3448 75.2058 68.4361 74.0002L70.7917 42.8887C71.0916 38.9283 69.477 35.0637 66.4488 32.4936L65.1224 31.3679C64.1907 30.5771 63.6939 29.388 63.7862 28.1694L64.0052 25.277C65.8615 24.9892 66.961 24.56 67.0024 24.0124L66.6711 28.3879C66.5789 29.6065 67.0757 30.7956 68.0074 31.5864L69.3338 32.7121C72.362 35.2821 73.9766 39.1467 73.6767 43.1072L71.1826 76.0474L68.8226 80.4054C68.7094 81.9001 57.9993 82.3079 44.9009 81.3161C44.4166 81.2795 43.9357 81.2414 43.4588 81.202Z" fill="#0070FF" fill-opacity="0.1"/>
</g>
<g id="Subtract_4" filter="url(#filter5_b_11455_141483)">
<path fill-rule="evenodd" clip-rule="evenodd" d="M49.1005 25.3797C58.8546 26.1183 66.8536 25.5052 66.9668 24.0105L66.7163 27.3191C63.4922 27.8036 58.0639 27.8722 51.945 27.4089C42.1909 26.6703 34.3754 24.8598 34.4885 23.3651L34.1572 27.7405C34.065 28.9591 33.3948 30.0599 32.3546 30.7013L30.8738 31.6145C27.4932 33.6993 25.3151 37.2767 25.0153 41.2372L22.7211 71.5359C22.5893 73.2773 22.8266 75.0268 23.4174 76.6701L23.9975 78.2833C22.2769 77.7736 21.319 77.2684 21.3536 76.8119L19.6767 72.1482L22.1708 39.208C22.4707 35.2476 24.6487 31.6702 28.0294 29.5854L29.5102 28.6722C30.5503 28.0307 31.2205 26.93 31.3128 25.7114L31.6441 21.3359C31.5309 22.8307 39.3464 24.6412 49.1005 25.3797Z" fill="white"/>
</g>
<path id="Subtract_5" d="M31.1636 27.6504L30.3693 28.0185C25.6638 30.1989 22.5057 34.754 22.1141 39.9254L19.8748 69.5001C19.7427 71.2454 19.9805 72.9989 20.5727 74.6459V74.6459C21.086 76.0733 21.7579 77.5266 23.1905 78.0251C26.749 79.2635 35.0902 80.5735 44.863 81.3135C54.6359 82.0534 63.0792 82.0143 66.7836 81.3259C68.275 81.0487 69.158 79.7132 69.8804 78.3793V78.3793C70.7138 76.8403 71.213 75.1425 71.3451 73.3973L73.5844 43.8226C73.976 38.6512 71.5398 33.6725 67.2162 30.8084L66.4864 30.3249" stroke="url(#paint0_linear_11455_141483)" stroke-width="0.759858" stroke-linecap="round" stroke-linejoin="round"/>
<path id="Union" fill-rule="evenodd" clip-rule="evenodd" d="M67.1291 24.0267L31.4959 21.3287L31.1605 25.758C31.1534 25.7841 31.1489 25.8104 31.1469 25.8371C31.0337 27.3319 38.9187 29.1476 48.7586 29.8926C58.5943 30.6374 66.6602 30.0304 66.78 28.537L66.7876 28.5376L67.1291 24.0267Z" fill="#8AB5F5"/>
<g id="Subtract_6" style="mix-blend-mode:overlay">
<path fill-rule="evenodd" clip-rule="evenodd" d="M31.2522 26.0512C34.1844 27.1319 40.0611 28.1613 46.8752 28.6772C56.7151 29.4223 64.7836 28.8145 64.8968 27.3198C64.8978 27.3067 64.8982 27.2935 64.8979 27.2804L65.1558 23.874L67.2131 24.0298L66.8716 28.5406L66.8501 28.539L66.8501 28.5391C66.7369 30.0338 58.6684 30.6416 48.8285 29.8966C39.4456 29.1861 31.8402 27.5021 31.2522 26.0512Z" fill="#040A1F" fill-opacity="0.6"/>
</g>
<path id="Union_2" d="M31.4959 21.3287L31.5245 20.9499C31.4241 20.9422 31.3247 20.9749 31.2483 21.0405C31.1718 21.1062 31.1246 21.1995 31.117 21.3L31.4959 21.3287ZM67.1291 24.0267L67.508 24.0554C67.5238 23.8462 67.3671 23.6637 67.1578 23.6479L67.1291 24.0267ZM31.1605 25.758L31.5273 25.857C31.5335 25.834 31.5375 25.8104 31.5393 25.7866L31.1605 25.758ZM66.78 28.537L66.8087 28.1582C66.6001 28.1424 66.418 28.2981 66.4013 28.5066L66.78 28.537ZM66.7876 28.5376L66.7589 28.9164C66.9681 28.9323 67.1506 28.7755 67.1664 28.5663L66.7876 28.5376ZM31.4672 21.7075L67.1005 24.4056L67.1578 23.6479L31.5245 20.9499L31.4672 21.7075ZM31.5393 25.7866L31.8747 21.3574L31.117 21.3L30.7816 25.7293L31.5393 25.7866ZM31.5257 25.8658C31.5259 25.8633 31.5263 25.8605 31.5273 25.857L30.7937 25.6589C30.7805 25.7076 30.7719 25.7576 30.768 25.8084L31.5257 25.8658ZM48.7873 29.5138C43.8803 29.1422 39.4689 28.5042 36.3056 27.7758C34.721 27.4109 33.4662 27.027 32.6223 26.6497C32.1981 26.4601 31.8996 26.2817 31.7164 26.1229C31.5242 25.9562 31.5253 25.8718 31.5257 25.8658L30.768 25.8084C30.7402 26.1761 30.963 26.4754 31.2187 26.697C31.4835 26.9266 31.8593 27.141 32.3122 27.3434C33.2224 27.7503 34.5326 28.1472 36.1351 28.5162C39.3459 29.2556 43.797 29.898 48.7299 30.2715L48.7873 29.5138ZM66.4013 28.5066C66.4008 28.513 66.3883 28.5971 66.1724 28.733C65.9667 28.8624 65.6441 28.9938 65.1959 29.1173C64.3041 29.363 63.0055 29.5533 61.3843 29.6753C58.1476 29.9187 53.6922 29.8852 48.7873 29.5138L48.7299 30.2715C53.6607 30.6448 58.1561 30.6801 61.4413 30.433C63.0809 30.3096 64.4361 30.1148 65.3977 29.8499C65.8762 29.7181 66.2803 29.5629 66.577 29.3762C66.8635 29.1959 67.1293 28.9344 67.1587 28.5674L66.4013 28.5066ZM66.8163 28.1587L66.8087 28.1582L66.7513 28.9159L66.7589 28.9164L66.8163 28.1587ZM66.7503 23.9981L66.4088 28.5089L67.1664 28.5663L67.508 24.0554L66.7503 23.9981Z" fill="url(#paint1_linear_11455_141483)"/>
<path id="Ellipse 894" d="M40.0489 37.7069C42.5518 38.0224 45.2411 38.2944 48.0445 38.5067C50.8479 38.719 53.5476 38.855 56.0694 38.9199C56.5754 38.933 57.001 38.5455 57.0392 38.0408L57.0998 37.2404C57.1412 36.6939 56.7148 36.2252 56.1669 36.2106C53.6759 36.1446 51.0131 36.0094 48.2495 35.8002C45.4858 35.5909 42.8331 35.3236 40.3605 35.0138C39.8167 34.9457 39.3245 35.3448 39.2832 35.8914L39.2226 36.6918C39.1843 37.1965 39.5467 37.6436 40.0489 37.7069Z" fill="#B3D5FF"/>
<g id="Subtract_7" filter="url(#filter6_b_11455_141483)">
<path fill-rule="evenodd" clip-rule="evenodd" d="M39.9549 37.6947C39.9517 37.6486 39.9517 37.6018 39.9553 37.5544L40.0159 36.7541C40.0573 36.2075 40.5494 35.8083 41.0933 35.8765C43.5658 36.1863 46.2186 36.4536 48.9822 36.6629C51.7458 36.8721 54.4086 37.0073 56.8996 37.0733C56.963 37.075 57.0247 37.0827 57.0842 37.096C57.0478 36.6141 56.6498 36.2248 56.1512 36.2116C53.6602 36.1456 50.9974 36.0104 48.2338 35.8012C45.4702 35.5919 42.8174 35.3246 40.3449 35.0148C39.801 34.9466 39.3089 35.3458 39.2675 35.8924L39.2069 36.6927C39.1707 37.1708 39.4939 37.5972 39.9549 37.6947Z" fill="white"/>
</g>
<g id="Subtract_8" style="mix-blend-mode:overlay">
<path fill-rule="evenodd" clip-rule="evenodd" d="M39.2062 36.8057C41.6791 37.1156 44.3322 37.383 47.0963 37.5922C49.8997 37.8045 52.5993 37.9405 55.1211 38.0055C55.6272 38.0185 56.0527 37.6311 56.0909 37.1263L56.1515 36.326C56.1545 36.2873 56.1551 36.2489 56.1534 36.2111C56.7009 36.2262 57.1267 36.6947 57.0853 37.2409L57.0247 38.0413C56.9865 38.546 56.561 38.9334 56.055 38.9204C53.5331 38.8555 50.8335 38.7194 48.0301 38.5072C45.2267 38.2949 42.5373 38.0229 40.0345 37.7074C39.5703 37.6489 39.2256 37.2625 39.2062 36.8057Z" fill="#040A1F" fill-opacity="0.6"/>
</g>
<path id="Ellipse 902" opacity="0.5" d="M40.0489 37.7069C42.5518 38.0224 45.2411 38.2944 48.0445 38.5067C50.8479 38.719 53.5476 38.855 56.0694 38.9199C56.5754 38.933 57.001 38.5455 57.0392 38.0408L57.0998 37.2404C57.1412 36.6939 56.7148 36.2252 56.1669 36.2106C53.6759 36.1446 51.0131 36.0094 48.2495 35.8002C45.4858 35.5909 42.8331 35.3236 40.3605 35.0138C39.8167 34.9457 39.3245 35.3448 39.2832 35.8914L39.2226 36.6918C39.1843 37.1965 39.5467 37.6436 40.0489 37.7069Z" stroke="url(#paint2_linear_11455_141483)" stroke-width="0.759858" stroke-linecap="round" stroke-linejoin="round"/>
<path id="Ellipse 890" d="M67.1198 24.0198C67.0066 25.5146 58.9381 26.1223 49.0982 25.3773C39.2583 24.6322 31.3733 22.8165 31.4865 21.3217C31.5997 19.827 39.6682 19.2192 49.508 19.9643C59.3479 20.7093 67.2329 22.525 67.1198 24.0198Z" fill="#B3D5FF"/>
<g id="Ellipse 903" style="mix-blend-mode:overlay">
<path d="M61.7572 24.6064C61.6715 25.7382 55.9649 26.2289 49.0111 25.7023C42.0573 25.1758 36.4896 23.8315 36.5753 22.6997C36.661 21.5679 42.3676 21.0772 49.3214 21.6037C56.2752 22.1303 61.8429 23.4746 61.7572 24.6064Z" fill="#040A1F" fill-opacity="0.6"/>
</g>
<g id="Subtract_9" style="mix-blend-mode:overlay">
<path fill-rule="evenodd" clip-rule="evenodd" d="M65.5116 22.7408C66.5725 23.1731 67.1509 23.6103 67.1197 24.0229C67.0065 25.5177 58.938 26.1255 49.0981 25.3804C40.009 24.6922 32.5879 23.0905 31.5975 21.672C34.3792 22.8056 40.478 23.9061 47.6011 24.4454C57.441 25.1904 65.5095 24.5827 65.6227 23.0879C65.6313 22.9739 65.5934 22.8579 65.5116 22.7408Z" fill="#040A1F" fill-opacity="0.6"/>
</g>
<path id="Subtract_10" fill-rule="evenodd" clip-rule="evenodd" d="M33.8332 22.8681C32.3299 22.3521 31.4865 21.8207 31.5241 21.3247C31.6372 19.8299 39.7058 19.2221 49.5456 19.9672C58.1617 20.6196 65.279 22.0929 66.8401 23.4528C63.8135 22.4142 58.1118 21.4384 51.5375 20.9407C41.6977 20.1956 33.6291 20.8034 33.516 22.2981C33.5019 22.484 33.6115 22.6749 33.8332 22.8681Z" fill="white"/>
<path id="Ellipse 901" d="M67.1198 24.0198C67.0066 25.5146 58.9381 26.1223 49.0982 25.3773C39.2583 24.6322 31.3733 22.8165 31.4865 21.3217C31.5997 19.827 39.6682 19.2192 49.508 19.9643C59.3479 20.7093 67.2329 22.525 67.1198 24.0198Z" stroke="url(#paint3_linear_11455_141483)" stroke-width="0.759858" stroke-linecap="round" stroke-linejoin="round"/>
</g>
<g id="Group 34689">
<path id="Ellipse 905" opacity="0.4" d="M55.7981 79.3879C55.7467 80.0669 51.2758 80.2821 45.8121 79.8684C40.3485 79.4547 35.961 78.5688 36.0124 77.8897C36.0638 77.2107 40.5347 76.9955 45.9983 77.4092C51.462 77.8229 55.8495 78.7088 55.7981 79.3879Z" fill="#ADADAD"/>
<path id="Subtract_11" fill-rule="evenodd" clip-rule="evenodd" d="M47.7021 25.2635C38.6312 24.4636 31.58 22.7582 31.6875 21.3379L31.5752 22.8209C34.675 23.7967 40.0778 24.6952 46.259 25.1632C46.7446 25.2 47.2259 25.2334 47.7021 25.2635ZM43.4666 81.202C55.8997 82.0578 65.8364 81.6264 65.9454 80.1869L67.4321 77.4416C68.0078 76.3785 68.3526 75.2058 68.4439 74.0002L70.7995 42.8887C71.0994 38.9283 69.4849 35.0637 66.4567 32.4936L65.1302 31.3679C64.1985 30.5771 63.7017 29.388 63.794 28.1694L64.013 25.277C65.8693 24.9892 66.9688 24.56 67.0102 24.0124L66.6789 28.3879C66.5867 29.6065 67.0835 30.7956 68.0152 31.5864L69.3416 32.7121C72.3698 35.2821 73.9844 39.1467 73.6845 43.1072L71.1904 76.0474L68.8304 80.4054C68.7172 81.9001 58.0071 82.3079 44.9087 81.3161C44.4244 81.2795 43.9436 81.2414 43.4666 81.202Z" fill="#B0B0B0"/>
<path id="Union_3" fill-rule="evenodd" clip-rule="evenodd" d="M67.143 24.0272L31.5097 21.3292L31.1763 25.7321C31.1646 25.7669 31.1573 25.8021 31.1546 25.8378C31.0415 27.3326 38.9265 29.1483 48.7663 29.8934C58.6037 30.6382 66.6706 30.0309 66.7878 28.537L66.8014 28.538L67.143 24.0272Z" fill="#CCCCCC"/>
<g id="Subtract_12" filter="url(#filter7_b_11455_141483)">
<path fill-rule="evenodd" clip-rule="evenodd" d="M30.5538 27.0636C31.5888 27.3677 32.7997 27.6648 34.1566 27.9481C34.0102 29.0868 33.3575 30.1035 32.3743 30.7099L30.8935 31.6231C27.5129 33.7078 25.3348 37.2853 25.0349 41.2457L22.7408 71.5445C22.609 73.2858 22.8462 75.0354 23.4371 76.6787L24.0064 78.2619C22.4478 77.753 21.5967 77.2535 21.6304 76.8086L19.7234 72.1299L21.8431 39.1359C22.1018 35.108 24.3039 31.4578 27.7463 29.3506L29.2192 28.4489C29.7829 28.1038 30.2388 27.6241 30.5538 27.0636Z" fill="#E0E0E0"/>
</g>
<path id="Subtract_13" fill-rule="evenodd" clip-rule="evenodd" d="M31.2207 26.0508C34.1558 27.1303 40.0276 28.1582 46.8351 28.6736C56.6749 29.4187 64.7435 28.8109 64.8566 27.3162L64.8568 27.3142L64.8572 27.3142L65.118 23.8696L67.1638 24.0245L66.8222 28.5354L66.8166 28.5349C66.7003 30.029 58.633 30.6364 48.7951 29.8915C39.4222 29.1818 31.8229 27.5007 31.2207 26.0508Z" fill="#BBBBBB"/>
<path id="Union_4" d="M31.5097 21.3292L31.5384 20.9503C31.3291 20.9345 31.1467 21.0912 31.1308 21.3005L31.5097 21.3292ZM67.143 24.0272L67.5218 24.0559C67.5294 23.9554 67.4968 23.856 67.4311 23.7796C67.3655 23.7032 67.2721 23.656 67.1717 23.6484L67.143 24.0272ZM31.1763 25.7321L31.5363 25.8536C31.5464 25.8236 31.5528 25.7924 31.5551 25.7608L31.1763 25.7321ZM66.7878 28.537L66.8165 28.1582C66.6077 28.1424 66.4254 28.2985 66.4091 28.5073L66.7878 28.537ZM66.8014 28.538L66.7727 28.9169C66.8732 28.9245 66.9726 28.8919 67.049 28.8262C67.1254 28.7605 67.1727 28.6672 67.1803 28.5667L66.8014 28.538ZM31.481 21.708L67.1143 24.406L67.1717 23.6484L31.5384 20.9503L31.481 21.708ZM31.5551 25.7608L31.8885 21.3578L31.1308 21.3005L30.7975 25.7035L31.5551 25.7608ZM31.5335 25.8665C31.5337 25.8634 31.5344 25.8593 31.5363 25.8536L30.8163 25.6107C30.7948 25.6745 30.781 25.7408 30.7758 25.8091L31.5335 25.8665ZM48.795 29.5145C43.888 29.143 39.4767 28.5049 36.3134 27.7765C34.7288 27.4116 33.474 27.0277 32.63 26.6505C32.2059 26.4609 31.9073 26.2824 31.7242 26.1236C31.5319 25.957 31.533 25.8725 31.5335 25.8665L30.7758 25.8091C30.7479 26.1768 30.9707 26.4761 31.2265 26.6978C31.4912 26.9273 31.8671 27.1417 32.3199 27.3442C33.2301 27.7511 34.5403 28.148 36.1428 28.517C39.3537 29.2563 43.8048 29.8987 48.7377 30.2722L48.795 29.5145ZM66.4091 28.5073C66.4086 28.5135 66.3964 28.5975 66.1808 28.7333C65.9754 28.8627 65.653 28.9942 65.2049 29.1177C64.3134 29.3634 63.015 29.5538 61.3936 29.6759C58.1569 29.9195 53.7008 29.886 48.795 29.5145L48.7377 30.2722C53.6693 30.6456 58.1653 30.6809 61.4506 30.4336C63.0904 30.3102 64.4455 30.1152 65.4069 29.8502C65.8852 29.7183 66.2892 29.5631 66.5858 29.3762C66.8722 29.1958 67.1378 28.934 67.1666 28.5667L66.4091 28.5073ZM66.8301 28.1592L66.8165 28.1582L66.7591 28.9159L66.7727 28.9169L66.8301 28.1592ZM66.7641 23.9985L66.4226 28.5094L67.1803 28.5667L67.5218 24.0559L66.7641 23.9985Z" fill="#040A1F" fill-opacity="0.87"/>
<path id="Ellipse 894_2" d="M40.0372 37.705C42.54 38.0205 45.2294 38.2925 48.0328 38.5047C50.8362 38.717 53.5359 38.853 56.0577 38.918C56.5637 38.931 56.9893 38.5436 57.0275 38.0388L57.0881 37.2385C57.1295 36.6919 56.7031 36.2232 56.1551 36.2087C53.6641 36.1427 51.0013 36.0075 48.2377 35.7982C45.4741 35.589 42.8213 35.3217 40.3488 35.0119C39.8049 34.9437 39.3128 35.3429 39.2714 35.8894L39.2108 36.6898C39.1726 37.1946 39.535 37.6417 40.0372 37.705Z" fill="#515151"/>
<g id="Subtract_14" filter="url(#filter8_b_11455_141483)">
<path fill-rule="evenodd" clip-rule="evenodd" d="M39.9783 37.6966C39.9751 37.6506 39.9752 37.6037 39.9787 37.5564L40.0393 36.756C40.0807 36.2095 40.5728 35.8103 41.1167 35.8784C43.5892 36.1882 46.242 36.4556 49.0056 36.6648C51.7693 36.8741 54.432 37.0092 56.923 37.0752C56.9864 37.0769 57.0481 37.0847 57.1077 37.0979C57.0713 36.6161 56.6733 36.2268 56.1747 36.2135C53.6837 36.1475 51.0209 36.0124 48.2573 35.8031C45.4937 35.5939 42.8409 35.3265 40.3683 35.0167C39.8245 34.9486 39.3324 35.3478 39.291 35.8943L39.2304 36.6947C39.1942 37.1728 39.5173 37.5991 39.9783 37.6966Z" fill="white"/>
</g>
<g id="Subtract_15" style="mix-blend-mode:overlay">
<path fill-rule="evenodd" clip-rule="evenodd" d="M39.2257 36.8077C41.6986 37.1176 44.3518 37.3849 47.1158 37.5942C49.9192 37.8065 52.6189 37.9425 55.1407 38.0074C55.6467 38.0205 56.0723 37.6331 56.1105 37.1283L56.1711 36.3279C56.174 36.2892 56.1746 36.2509 56.1729 36.2131C56.7204 36.2281 57.1462 36.6966 57.1049 37.2428L57.0443 38.0432C57.0061 38.548 56.5805 38.9354 56.0745 38.9224C53.5527 38.8574 50.853 38.7214 48.0496 38.5091C45.2462 38.2968 42.5568 38.0248 40.054 37.7093C39.5898 37.6508 39.2451 37.2644 39.2257 36.8077Z" fill="#040A1F" fill-opacity="0.6"/>
</g>
<path id="Ellipse 902_2" opacity="0.5" d="M40.0372 37.705C42.54 38.0205 45.2294 38.2925 48.0328 38.5047C50.8362 38.717 53.5359 38.853 56.0577 38.918C56.5637 38.931 56.9893 38.5436 57.0275 38.0388L57.0881 37.2385C57.1295 36.6919 56.7031 36.2232 56.1551 36.2087C53.6641 36.1427 51.0013 36.0075 48.2377 35.7982C45.4741 35.589 42.8213 35.3217 40.3488 35.0119C39.8049 34.9437 39.3128 35.3429 39.2714 35.8894L39.2108 36.6898C39.1726 37.1946 39.535 37.6417 40.0372 37.705Z" stroke="black" stroke-opacity="0.77" stroke-width="0.759858" stroke-linecap="round" stroke-linejoin="round"/>
<path id="Ellipse 890_2" d="M67.1276 24.0198C67.0144 25.5146 58.9459 26.1223 49.106 25.3773C39.2661 24.6322 31.3811 22.8165 31.4943 21.3217C31.6075 19.827 39.676 19.2192 49.5159 19.9643C59.3557 20.7093 67.2408 22.525 67.1276 24.0198Z" fill="#C5C5C5"/>
<path id="Ellipse 903_2" d="M61.7337 24.6025C61.648 25.7343 55.9414 26.2249 48.9876 25.6984C42.0339 25.1719 36.4662 23.8276 36.5519 22.6958C36.6376 21.564 42.3442 21.0733 49.298 21.5998C56.2518 22.1264 61.8194 23.4707 61.7337 24.6025Z" fill="#B5B5B5"/>
<g id="Subtract_16" style="mix-blend-mode:overlay">
<path fill-rule="evenodd" clip-rule="evenodd" d="M65.535 22.7427C66.5959 23.1751 67.1744 23.6122 67.1431 24.0249C67.0299 25.5197 58.9614 26.1274 49.1215 25.3824C40.0325 24.6942 32.6113 23.0925 31.6209 21.674C34.4026 22.8076 40.5014 23.908 47.6246 24.4474C57.4644 25.1924 65.5329 24.5846 65.6461 23.0899C65.6548 22.9758 65.6168 22.8599 65.535 22.7427Z" fill="#040A1F" fill-opacity="0.6"/>
</g>
<path id="Subtract_17" fill-rule="evenodd" clip-rule="evenodd" d="M33.8059 22.8661C32.3025 22.3502 31.4592 21.8188 31.4967 21.3227C31.6099 19.8279 39.6784 19.2202 49.5183 19.9652C58.1344 20.6176 65.2517 22.0909 66.8127 23.4508C63.7861 22.4122 58.0845 21.4365 51.5102 20.9387C41.6703 20.1937 33.6018 20.8014 33.4886 22.2962C33.4745 22.4821 33.5842 22.673 33.8059 22.8661Z" fill="white"/>
<path id="Ellipse 901_2" d="M67.1276 24.0198C67.0144 25.5146 58.9459 26.1223 49.106 25.3773C39.2661 24.6322 31.3811 22.8165 31.4943 21.3217C31.6075 19.827 39.676 19.2192 49.5159 19.9643C59.3557 20.7093 67.2408 22.525 67.1276 24.0198Z" stroke="#040A1F" stroke-opacity="0.87" stroke-width="0.759858" stroke-linecap="round" stroke-linejoin="round"/>
<path id="Intersect" fill-rule="evenodd" clip-rule="evenodd" d="M35.5408 27.977C35.1361 27.8762 34.7552 27.774 34.3997 27.6707L34.7253 23.371C35.2644 23.5225 35.8581 23.6717 36.5005 23.817L36.1819 28.0255L35.5408 27.977ZM40.6316 28.9708C40.0135 28.875 39.4172 28.7754 38.8452 28.6727L39.1725 24.3494C39.7454 24.4504 40.3419 24.5482 40.9594 24.6422L40.6316 28.9708ZM44.4334 29.4789C44.0595 29.4362 43.6904 29.3921 43.3266 29.3467L43.6548 25.0114C44.24 25.0832 44.8384 25.1515 45.4484 25.2159L45.1216 29.531L44.4334 29.4789ZM54.1085 30.1687C53.7804 30.1595 53.4484 30.1487 53.1127 30.136L52.3066 30.075L52.6341 25.7496C53.2474 25.7759 53.8495 25.7966 54.4384 25.8118L54.1085 30.1687ZM58.6324 30.1837C58.0511 30.1981 57.4466 30.2058 56.8217 30.2065L57.1521 25.8429C57.7779 25.8405 58.3825 25.831 58.9632 25.8147L58.6324 30.1837ZM63.1808 29.8753C62.6263 29.946 62.0166 30.0059 61.3582 30.0545L61.6898 25.6741C62.3518 25.6217 62.9619 25.5575 63.5134 25.4821L63.1808 29.8753ZM48.1194 25.466C48.3686 25.4865 48.6192 25.5062 48.8711 25.5253C49.2225 25.5519 49.5717 25.5768 49.9183 25.6L49.595 29.8697L47.7963 29.7335L48.1194 25.466Z" fill="#7B7B7B"/>
<path id="Subtract_18" d="M31.1753 27.6523L30.381 28.0204C25.6755 30.2009 22.5174 34.756 22.1258 39.9273L21.9537 42.201M66.4981 30.3269L67.2279 30.8103C71.5515 33.6745 73.9877 38.6532 73.5961 43.8245L71.3568 73.3992C71.2247 75.1445 70.7255 76.8422 69.8921 78.3813V78.3813C69.1698 79.7152 68.2867 81.0507 66.7953 81.3278C63.091 82.0163 54.6476 82.0554 44.8747 81.3154C35.1019 80.5754 26.7607 79.2654 23.2022 78.0271C21.7696 77.5285 21.0977 76.0753 20.5844 74.6479V74.6479C19.9922 73.0008 19.7544 71.2473 19.8865 69.502L21.7985 44.2503" stroke="#040A1F" stroke-opacity="0.87" stroke-width="0.7" stroke-linecap="round" stroke-linejoin="round"/>
</g>
</g>
</g>
</g>
</g>
<g id="Group 34661">
<path id="Union_5" fill-rule="evenodd" clip-rule="evenodd" d="M17.1883 8.28455C17.6728 4.56609 20.5922 0.914978 26.1111 2.46138C32.2133 4.17123 31.8235 16.4675 21.632 24.5161C8.76202 22.781 2.16343 12.3979 6.54376 7.81827C10.5054 3.67643 14.8774 5.33136 17.1883 8.28455Z" fill="#E74944"/>
<path id="Union_6" d="M17.1883 8.28455C17.6728 4.56609 20.5922 0.914978 26.1111 2.46138C31.9079 4.08566 31.8463 15.2632 23.0889 23.2776C22.1888 24.1013 20.9415 24.4428 19.7474 24.1924C8.12905 21.7562 2.38265 12.1687 6.54376 7.81827C10.5054 3.67643 14.8774 5.33136 17.1883 8.28455Z" fill="#E74944"/>
<path id="Intersect_2" opacity="0.6" fill-rule="evenodd" clip-rule="evenodd" d="M17.1804 8.28128L21.522 24.1404C20.9492 24.2968 20.3397 24.3193 19.7435 24.1943C8.12514 21.7582 2.37874 12.1706 6.53985 7.82022C10.4991 3.68081 14.8684 5.33136 17.1804 8.28128Z" fill="white" fill-opacity="0.38"/>
<g id="Subtract_19" style="mix-blend-mode:overlay">
<path fill-rule="evenodd" clip-rule="evenodd" d="M15.6008 6.7216C15.5967 6.75027 15.5929 6.77895 15.5891 6.80763C15.5287 6.73044 15.4669 6.65414 15.4037 6.57881C15.4701 6.62537 15.5358 6.67298 15.6008 6.7216ZM27.2019 2.91341C29.8343 6.64788 28.6675 14.5845 22.4065 20.9187C20.977 22.3649 18.8768 22.9399 16.91 22.4234C13.5281 21.5355 10.696 20.035 8.52533 18.2643C11.3498 21.2181 15.8607 23.7362 21.6334 24.5145C31.1736 16.9802 32.1248 5.72382 27.2019 2.91341Z" fill="#040A1F" fill-opacity="0.87"/>
</g>
<path id="Subtract_20" d="M13.6082 5.65994C11.8559 5.55354 9.41477 6.2222 7.5964 8.12329C3.49905 12.407 9.54425 21.7798 20.8065 24.3916C8.48196 22.3349 2.25808 12.2989 6.54376 7.81827C8.92968 5.3238 11.4645 4.93192 13.6082 5.65994Z" fill="white" fill-opacity="0.38"/>
<path id="Union_7" d="M23.0962 2.11725C19.5167 2.38582 17.5754 5.31369 17.1883 8.28455C14.8774 5.33136 10.5054 3.67643 6.54376 7.81827C2.38265 12.1687 8.12905 21.7562 19.7474 24.1924C20.9415 24.4428 22.1888 24.1013 23.0889 23.2776C31.8463 15.2632 31.9079 4.08566 26.1111 2.46138C25.6733 2.33871 25.2519 2.24874 24.8467 2.18893" stroke="#040A1F" stroke-opacity="0.87" stroke-width="0.4" stroke-linecap="round"/>
<path id="Union_8" d="M9.26284 8.1306C8.94605 8.37402 8.63043 8.65563 8.3176 8.97831C7.47756 9.84481 7.32506 10.8349 7.29305 11.9148M10.2196 7.50956C10.4425 7.39049 10.6652 7.2888 10.887 7.20346" stroke="white" stroke-width="0.4" stroke-linecap="round" stroke-linejoin="round"/>
</g>
<g id="Group 34664">
<path id="Vector 1208" d="M3.17319 9.94058L4.69832 9.61989C4.86206 9.58546 4.86228 9.35177 4.69861 9.31703L3.17411 8.99339C2.84064 8.9226 2.54043 9.20949 2.59602 9.54582C2.64096 9.81772 2.9035 9.99729 3.17319 9.94058Z" fill="#040A1F" fill-opacity="0.87"/>
<path id="Vector 1209" d="M2.06821 7.06077L4.92048 8.15531C5.0814 8.21706 5.26099 8.12981 5.31191 7.96513C5.3512 7.83803 5.30148 7.70028 5.19006 7.62758L2.63151 5.95807C2.32692 5.75931 1.91754 5.86284 1.74405 6.1825C1.56465 6.51307 1.71706 6.92602 2.06821 7.06077Z" fill="#040A1F" fill-opacity="0.87"/>
<path id="Vector 1210" d="M5.51464 6.36641L5.86067 7.02216C5.92132 7.13709 6.06366 7.1811 6.1786 7.12045C6.2644 7.07517 6.31362 6.98188 6.30255 6.8855L6.21798 6.14889C6.18793 5.88712 5.90413 5.73739 5.67109 5.86036C5.48815 5.9569 5.4181 6.18346 5.51464 6.36641Z" fill="#040A1F" fill-opacity="0.87"/>
</g>
<g id="Group 34665">
<path id="Vector 1208_2" d="M31.9125 14.7389L31.1515 14.1575C31.0827 14.105 31.1318 13.9956 31.2167 14.012L32.157 14.1936C32.3979 14.2401 32.4896 14.5363 32.3172 14.7108C32.2086 14.8207 32.0352 14.8327 31.9125 14.7389Z" fill="#040A1F" fill-opacity="0.87"/>
<path id="Vector 1209_2" d="M33.1639 13.5338L31.4472 13.3984C31.3503 13.3907 31.2801 13.3027 31.2942 13.2066C31.3051 13.1324 31.3638 13.0744 31.4381 13.0645L33.145 12.8361C33.3482 12.8089 33.5313 12.961 33.542 13.1657C33.553 13.3774 33.3753 13.5505 33.1639 13.5338Z" fill="#040A1F" fill-opacity="0.87"/>
</g>
</g>
<defs>
<filter id="filter0_b_11455_141483" x="12.0415" y="13.7055" width="69.4053" height="75.7881" filterUnits="userSpaceOnUse" color-interpolation-filters="sRGB">
<feFlood flood-opacity="0" result="BackgroundImageFix"/>
<feGaussianBlur in="BackgroundImageFix" stdDeviation="3.81715"/>
<feComposite in2="SourceAlpha" operator="in" result="effect1_backgroundBlur_11455_141483"/>
<feBlend mode="normal" in="SourceGraphic" in2="effect1_backgroundBlur_11455_141483" result="shape"/>
</filter>
<filter id="filter1_b_11455_141483" x="19.4015" y="21.0656" width="54.6853" height="61.0681" filterUnits="userSpaceOnUse" color-interpolation-filters="sRGB">
<feFlood flood-opacity="0" result="BackgroundImageFix"/>
<feGaussianBlur in="BackgroundImageFix" stdDeviation="0.137142"/>
<feComposite in2="SourceAlpha" operator="in" result="effect1_backgroundBlur_11455_141483"/>
<feBlend mode="normal" in="SourceGraphic" in2="effect1_backgroundBlur_11455_141483" result="shape"/>
</filter>
<filter id="filter2_b_11455_141483" x="17.55" y="70.5344" width="55.0015" height="14.8804" filterUnits="userSpaceOnUse" color-interpolation-filters="sRGB">
<feFlood flood-opacity="0" result="BackgroundImageFix"/>
<feGaussianBlur in="BackgroundImageFix" stdDeviation="1.90857"/>
<feComposite in2="SourceAlpha" operator="in" result="effect1_backgroundBlur_11455_141483"/>
<feBlend mode="normal" in="SourceGraphic" in2="effect1_backgroundBlur_11455_141483" result="shape"/>
</filter>
<filter id="filter3_b_11455_141483" x="24.0618" y="72.386" width="41.8101" height="13.1929" filterUnits="userSpaceOnUse" color-interpolation-filters="sRGB">
<feFlood flood-opacity="0" result="BackgroundImageFix"/>
<feGaussianBlur in="BackgroundImageFix" stdDeviation="1.90857"/>
<feComposite in2="SourceAlpha" operator="in" result="effect1_backgroundBlur_11455_141483"/>
<feBlend mode="normal" in="SourceGraphic" in2="effect1_backgroundBlur_11455_141483" result="shape"/>
</filter>
<filter id="filter4_b_11455_141483" x="27.7493" y="17.5207" width="49.7788" height="68.1538" filterUnits="userSpaceOnUse" color-interpolation-filters="sRGB">
<feFlood flood-opacity="0" result="BackgroundImageFix"/>
<feGaussianBlur in="BackgroundImageFix" stdDeviation="1.90857"/>
<feComposite in2="SourceAlpha" operator="in" result="effect1_backgroundBlur_11455_141483"/>
<feBlend mode="normal" in="SourceGraphic" in2="effect1_backgroundBlur_11455_141483" result="shape"/>
</filter>
<filter id="filter5_b_11455_141483" x="15.8586" y="17.5188" width="54.9273" height="64.5816" filterUnits="userSpaceOnUse" color-interpolation-filters="sRGB">
<feFlood flood-opacity="0" result="BackgroundImageFix"/>
<feGaussianBlur in="BackgroundImageFix" stdDeviation="1.90857"/>
<feComposite in2="SourceAlpha" operator="in" result="effect1_backgroundBlur_11455_141483"/>
<feBlend mode="normal" in="SourceGraphic" in2="effect1_backgroundBlur_11455_141483" result="shape"/>
</filter>
<filter id="filter6_b_11455_141483" x="35.386" y="31.1907" width="25.5171" height="10.3218" filterUnits="userSpaceOnUse" color-interpolation-filters="sRGB">
<feFlood flood-opacity="0" result="BackgroundImageFix"/>
<feGaussianBlur in="BackgroundImageFix" stdDeviation="1.90857"/>
<feComposite in2="SourceAlpha" operator="in" result="effect1_backgroundBlur_11455_141483"/>
<feBlend mode="normal" in="SourceGraphic" in2="effect1_backgroundBlur_11455_141483" result="shape"/>
</filter>
<filter id="filter7_b_11455_141483" x="15.9055" y="23.2473" width="22.0679" height="58.8316" filterUnits="userSpaceOnUse" color-interpolation-filters="sRGB">
<feFlood flood-opacity="0" result="BackgroundImageFix"/>
<feGaussianBlur in="BackgroundImageFix" stdDeviation="1.90857"/>
<feComposite in2="SourceAlpha" operator="in" result="effect1_backgroundBlur_11455_141483"/>
<feBlend mode="normal" in="SourceGraphic" in2="effect1_backgroundBlur_11455_141483" result="shape"/>
</filter>
<filter id="filter8_b_11455_141483" x="35.4094" y="31.1926" width="25.5171" height="10.3218" filterUnits="userSpaceOnUse" color-interpolation-filters="sRGB">
<feFlood flood-opacity="0" result="BackgroundImageFix"/>
<feGaussianBlur in="BackgroundImageFix" stdDeviation="1.90857"/>
<feComposite in2="SourceAlpha" operator="in" result="effect1_backgroundBlur_11455_141483"/>
<feBlend mode="normal" in="SourceGraphic" in2="effect1_backgroundBlur_11455_141483" result="shape"/>
</filter>
<linearGradient id="paint0_linear_11455_141483" x1="69.7789" y1="83.7952" x2="52.9027" y2="7.99859" gradientUnits="userSpaceOnUse">
<stop stop-color="#1B217C"/>
<stop offset="1" stop-color="#1B217C" stop-opacity="0"/>
</linearGradient>
<linearGradient id="paint1_linear_11455_141483" x1="66.0396" y1="31.2926" x2="66.1426" y2="18.84" gradientUnits="userSpaceOnUse">
<stop stop-color="#1B217C"/>
<stop offset="1" stop-color="#1B217C" stop-opacity="0"/>
</linearGradient>
<linearGradient id="paint2_linear_11455_141483" x1="56.6825" y1="39.1907" x2="56.811" y2="35.1179" gradientUnits="userSpaceOnUse">
<stop stop-color="#1B217C"/>
<stop offset="1" stop-color="#1B217C" stop-opacity="0"/>
</linearGradient>
<linearGradient id="paint3_linear_11455_141483" x1="66.3745" y1="26.7403" x2="66.6374" y2="19.2603" gradientUnits="userSpaceOnUse">
<stop stop-color="#1B217C"/>
<stop offset="1" stop-color="#1B217C" stop-opacity="0"/>
</linearGradient>
</defs>
</svg>
