<svg width="88" height="88" viewBox="0 0 88 88" fill="none" xmlns="http://www.w3.org/2000/svg">
<path d="M43.9006 27.0552C44.0136 28.2651 42.8184 28.6672 41.8526 28.2275L32.269 23.8651C30.9154 23.2489 29.4226 23.4435 28.2686 24.3865L20.048 31.1046C19.2086 31.7905 17.9135 31.664 17.7625 30.4342L16.2457 18.0809C16.1031 16.9201 16.7748 15.8825 17.746 15.7633L40.3896 12.9839C41.3606 12.8647 42.2634 13.709 42.4059 14.8697L43.8901 26.9575C43.8941 26.9901 43.8976 27.0227 43.9006 27.0552Z" fill="#EEEEEE"/>
<path d="M18.2148 32.4372L16.3237 18.4923C16.1493 17.0722 16.9896 15.8005 18.2005 15.6519L39.9758 12.9791C41.1866 12.8304 42.3095 13.8611 42.4839 15.2811L43.9537 28.6087" stroke="#040A1F" stroke-opacity="0.87" stroke-width="0.7" stroke-linecap="round" stroke-linejoin="round"/>
<path fill-rule="evenodd" clip-rule="evenodd" d="M43.9294 26.1904L31.7327 21.7222C30.6614 21.3297 29.4661 21.484 28.5296 22.1357L17.7969 29.6043L17.9498 30.8488C18.0324 31.3321 18.2899 31.7694 18.6751 32.0762L18.7422 32.1297L28.8042 25.1278C29.016 24.9804 29.2402 24.8571 29.473 24.7584C30.0841 24.4876 30.7606 24.3975 31.421 24.4987C31.6815 24.5343 31.94 24.5981 32.192 24.6904L43.6037 28.871L43.6641 28.7932C43.9879 28.3759 44.1335 27.8475 44.0691 27.3233L43.4529 22.3046L42.2005 12.1043C42.1987 12.0896 42.1967 12.075 42.1944 12.0605L43.9294 26.1904Z" fill="#040A1F" fill-opacity="0.87"/>
<path opacity="0.06" d="M33.7885 69.8022C34.8679 70.1805 36.0621 70.0339 37.0179 69.4056L52.2415 59.3998C53.4079 58.6331 54.0384 57.2712 53.8683 55.8858L52.013 40.7757C51.8429 39.3903 50.9016 38.2214 49.5844 37.7597L32.3924 31.734C31.313 31.3556 30.1188 31.5022 29.163 32.1305L13.9394 42.1364C12.773 42.903 12.1425 44.2649 12.3126 45.6503L14.1679 60.7604C14.338 62.1458 15.2793 63.3147 16.5965 63.7764L33.7885 69.8022Z" fill="#6E82E9"/>
<path d="M35.7572 77.6423C36.3588 77.8713 37.0348 77.7873 37.5622 77.4182L60.1883 61.5828C60.777 61.1708 61.0903 60.4675 61.0027 59.7543L57.9414 34.8222C57.8525 34.0985 57.366 33.4855 56.6813 33.2347L30.9711 23.8158C30.3764 23.598 29.7129 23.6836 29.193 24.0454L6.83316 39.6051C6.24181 40.0166 5.92672 40.7216 6.01452 41.4366L9.07738 66.3817C9.16518 67.0967 9.64145 67.7045 10.3148 67.9607L35.7572 77.6423Z" fill="#EEEEEE"/>
<path fill-rule="evenodd" clip-rule="evenodd" d="M30.0781 23.9411L36.6593 77.5411C37.2365 77.4631 37.7953 77.249 38.2862 76.9055L59.3179 62.186C60.4396 61.4009 61.0364 60.0609 60.8695 58.702L58.0681 35.8865C57.8988 34.5076 56.9718 33.3396 55.6673 32.8618L31.8439 24.1341C31.2712 23.9243 30.6652 23.8623 30.0781 23.9411Z" fill="#E0E0E0"/>
<path d="M34.2451 77.0655C35.7934 77.6547 37.5331 77.4387 38.8903 76.4888L58.6844 62.6355C60.1994 61.5751 61.0055 59.7652 60.7802 57.9297L58.1706 36.6764C57.9419 34.8139 56.6897 33.2363 54.9278 32.5908L32.4653 24.3618C30.9349 23.8011 29.2273 24.0216 27.8894 24.9526L8.34727 38.5515C6.82543 39.6106 6.01454 41.4247 6.24049 43.265L8.85415 64.5515C9.0801 66.3918 10.3058 67.9559 12.0386 68.6153L34.2451 77.0655Z" stroke="#040A1F" stroke-opacity="0.87" stroke-width="0.7" stroke-linecap="round" stroke-linejoin="round"/>
<path d="M34.8551 70.0417C35.4349 70.25 36.0791 70.1709 36.5913 69.8286L53.5279 58.5101C54.1378 58.1024 54.4661 57.386 54.3767 56.6579L52.2609 39.426C52.1697 38.6835 51.6604 38.0593 50.9512 37.8211L31.8365 31.3999C31.2793 31.2128 30.6673 31.2879 30.1719 31.6043L13.1784 42.459C12.5479 42.8617 12.2047 43.5906 12.2958 44.3331L14.4117 61.565C14.5011 62.2931 14.993 62.9088 15.6834 63.1568L34.8551 70.0417Z" fill="#F5F5F5"/>
<g style="mix-blend-mode:overlay" opacity="0.5">
<path fill-rule="evenodd" clip-rule="evenodd" d="M37.1114 67.7881C36.1516 68.4295 34.9459 68.5819 33.8567 68.1995L17.6405 62.5058C16.3242 62.0437 15.3838 60.8752 15.2138 59.4905L13.3654 44.4362C13.2574 43.5567 13.4721 42.6878 13.9403 41.9746C12.8496 42.7527 12.2653 44.069 12.4298 45.4088L14.2835 60.5052C14.4523 61.8806 15.3814 63.0435 16.6855 63.5118L34.0371 69.7431C35.1322 70.1364 36.349 69.987 37.3165 69.3405L52.6451 59.0965C53.7972 58.3266 54.4174 56.9735 54.2485 55.5982L54.1838 55.0709C53.9996 56.0212 53.4439 56.8733 52.62 57.4239L37.1114 67.7881Z" fill="#424242"/>
</g>
<g style="mix-blend-mode:overlay" opacity="0.5">
<path d="M28.4375 32.7153C29.3779 32.3737 30.413 32.3499 31.3841 32.6642L48.2627 38.1262C49.9831 38.6829 51.23 40.2075 51.4535 42.0277L53.1386 55.7523C53.3191 57.2222 52.8054 58.6687 51.7893 59.6751L52.1436 59.4384C53.6039 58.4625 54.3905 56.727 54.1735 54.9597L52.4794 41.1624C52.2582 39.3607 51.0338 37.8468 49.3369 37.2768L33.0205 31.7957C31.7158 31.3574 30.2891 31.5326 29.1291 32.2735L28.4375 32.7153Z" fill="#424242"/>
</g>
<path fill-rule="evenodd" clip-rule="evenodd" d="M37.3233 69.3445C36.3558 69.991 35.139 70.1404 34.0439 69.7471L16.6923 63.5158C15.3882 63.0475 14.4591 61.8845 14.2903 60.5092L12.4366 45.4128C12.2966 44.2723 12.6992 43.1488 13.4949 42.3598L13.291 42.4851C12.068 43.2369 11.3956 44.633 11.5704 46.058L13.4939 61.7473C13.6671 63.1594 14.6408 64.3443 15.9927 64.7877L34.2503 70.7765C35.2878 71.1168 36.4229 70.9774 37.3473 70.3963L53.6175 60.1677C54.8219 59.4105 55.4801 58.0256 55.3068 56.6136L53.3805 40.9251C53.2054 39.4997 52.2151 38.3074 50.846 37.8738L50.6647 37.8164C51.6122 38.392 52.263 39.3764 52.4017 40.5057L54.2553 55.6021C54.4242 56.9774 53.804 58.3306 52.6519 59.1005L37.3233 69.3445Z" fill="white"/>
<path d="M33.4036 69.5209C34.8957 70.0568 36.5535 69.8532 37.8717 68.9723L51.9617 59.5561C53.5314 58.5071 54.3764 56.6635 54.1463 54.7896L52.4947 41.3381C52.26 39.4272 50.9491 37.8208 49.1241 37.2077L33.222 31.8658C31.788 31.3841 30.2131 31.5775 28.9383 32.3918L14.8008 41.4221C13.1783 42.4585 12.295 44.3343 12.5296 46.2452L14.1813 59.6967C14.4113 61.5705 15.6772 63.155 17.454 63.7931L33.4036 69.5209Z" stroke="#040A1F" stroke-opacity="0.87" stroke-width="0.7" stroke-linecap="round" stroke-linejoin="round"/>
<path d="M41.4297 49.5041C41.9996 54.1452 38.6991 58.3696 34.058 58.9395C29.4168 59.5093 25.1925 56.2089 24.6226 51.5677C24.0527 46.9266 27.3532 42.7022 31.9943 42.1323C36.6355 41.5625 40.8599 44.8629 41.4297 49.5041Z" fill="#F5F5F5"/>
<g style="mix-blend-mode:overlay">
<path fill-rule="evenodd" clip-rule="evenodd" d="M34.0558 58.9394L31.9922 42.1323C36.6334 41.5624 40.8577 44.8628 41.4276 49.504C41.9975 54.1452 38.6969 58.3695 34.0558 58.9394Z" fill="#040A1F" fill-opacity="0.6"/>
</g>
<g style="mix-blend-mode:overlay">
<path fill-rule="evenodd" clip-rule="evenodd" d="M24.6211 51.5675L41.4282 49.5039C41.9981 54.1451 38.6976 58.3696 34.0565 58.9394C29.4153 59.5093 25.1909 56.2086 24.6211 51.5675C24.6211 51.5676 24.6211 51.5674 24.6211 51.5675Z" fill="#040A1F" fill-opacity="0.6"/>
</g>
<path d="M41.4297 49.5041C41.9996 54.1452 38.6991 58.3696 34.058 58.9395C29.4168 59.5093 25.1925 56.2089 24.6226 51.5677C24.0527 46.9266 27.3532 42.7022 31.9943 42.1323C36.6355 41.5625 40.8599 44.8629 41.4297 49.5041Z" stroke="#040A1F" stroke-opacity="0.38" stroke-width="0.7" stroke-linecap="round" stroke-linejoin="round"/>
<path d="M64.487 31.3835C64.6689 32.2619 65.826 32.475 66.3089 31.719L69.5167 26.6975C69.6498 26.4891 69.8555 26.3374 70.094 26.2717L77.3306 24.2798C78.1366 24.058 78.3308 23.0038 77.6567 22.5093L71.6045 18.0701C71.405 17.9238 71.2669 17.7087 71.2167 17.4665L70.0084 11.6317C69.8265 10.7533 68.6694 10.5402 68.1864 11.2962L64.9787 16.3177C64.8456 16.5261 64.6399 16.6778 64.4014 16.7435L57.1647 18.7354C56.3587 18.9572 56.1646 20.0114 56.8387 20.5059L62.8909 24.9451C63.0903 25.0914 63.2285 25.3065 63.2787 25.5487L64.487 31.3835Z" fill="#FF9D42"/>
<path opacity="0.6" fill-rule="evenodd" clip-rule="evenodd" d="M65.2148 32.5436C65.5871 32.6122 65.9971 32.4765 66.2386 32.0985L69.4464 27.077C69.5796 26.8685 69.7852 26.7168 70.0237 26.6512L77.2603 24.6593C78.0663 24.4374 78.2605 23.3833 77.5864 22.8888L71.5342 18.4495C71.3347 18.3032 71.1965 18.0882 71.1464 17.846L69.9381 12.0112C69.8471 11.572 69.5124 11.2991 69.14 11.2305L65.2148 32.5436Z" fill="white" fill-opacity="0.38"/>
<g style="mix-blend-mode:overlay">
<path fill-rule="evenodd" clip-rule="evenodd" d="M66.1114 31.9485C65.7808 31.8462 65.505 31.5754 65.4264 31.1954L64.0162 24.3862C63.9661 24.144 63.8279 23.929 63.6285 23.7827L57.5763 19.3434C57.3568 19.1824 57.2294 18.9621 57.1851 18.7305L57.1648 18.7361C56.3587 18.958 56.1646 20.0122 56.8387 20.5066L62.8909 24.9459C63.0903 25.0922 63.2285 25.3072 63.2787 25.5495L64.487 31.3843C64.6473 32.1585 65.5652 32.4159 66.1114 31.9485Z" fill="#040A1F" fill-opacity="0.6"/>
</g>
<path fill-rule="evenodd" clip-rule="evenodd" d="M68.207 11.2679C68.3109 11.3902 68.3872 11.5403 68.4227 11.712L69.863 18.6668C69.9132 18.909 70.0513 19.1241 70.2508 19.2704L76.9911 24.2144C77.0417 24.2515 77.0876 24.2922 77.1288 24.3359L77.3325 24.2799C78.1385 24.058 78.3326 23.0038 77.6585 22.5094L71.6063 18.0701C71.4069 17.9238 71.2687 17.7088 71.2186 17.4665L70.0102 11.6317C69.8306 10.7645 68.7004 10.5457 68.207 11.2679Z" fill="white"/>
<path d="M64.487 31.3835C64.6689 32.2619 65.826 32.475 66.3089 31.719L69.5167 26.6975C69.6498 26.4891 69.8555 26.3374 70.094 26.2717L77.3306 24.2798C78.1366 24.058 78.3308 23.0038 77.6567 22.5093L71.6045 18.0701C71.405 17.9238 71.2669 17.7087 71.2167 17.4665L70.0084 11.6317C69.8265 10.7533 68.6694 10.5402 68.1864 11.2962L64.9787 16.3177C64.8456 16.5261 64.6399 16.6778 64.4014 16.7435L57.1647 18.7354C56.3587 18.9572 56.1646 20.0114 56.8387 20.5059L62.8909 24.9451C63.0903 25.0914 63.2285 25.3065 63.2787 25.5487L64.487 31.3835Z" stroke="#040A1F" stroke-opacity="0.38" stroke-width="0.7" stroke-linecap="round" stroke-linejoin="round"/>
<path d="M72.2867 47.3703C72.3201 48.2668 73.4257 48.6692 74.0276 48.004L75.9288 45.9024C76.0947 45.719 76.3228 45.6036 76.5688 45.5785L80.5193 45.1755C81.351 45.0906 81.7176 44.0834 81.1351 43.4838L78.3679 40.6357C78.1955 40.4583 78.095 40.2233 78.0858 39.9761L77.9802 37.1442C77.9468 36.2478 76.8411 35.8453 76.2393 36.5106L74.3381 38.6121C74.1721 38.7955 73.9441 38.911 73.698 38.9361L69.7475 39.3391C68.9159 39.4239 68.5492 40.4312 69.1318 41.0308L71.899 43.8788C72.0714 44.0562 72.1719 44.2912 72.1811 44.5384L72.2867 47.3703Z" fill="#FF9D42"/>
<path opacity="0.6" fill-rule="evenodd" clip-rule="evenodd" d="M77.1201 36.3125C77.5408 36.3947 77.9068 36.7392 77.9318 37.2459L78.0716 40.0764C78.0838 40.3234 78.1871 40.5572 78.3616 40.7325L81.163 43.5469C81.7528 44.1394 81.3984 45.151 80.5678 45.2459L76.6225 45.6966C76.3767 45.7247 76.1501 45.8429 75.9863 46.0283L74.1107 48.1526C73.802 48.5022 73.3538 48.5649 72.9883 48.4187L77.1201 36.3125Z" fill="white" fill-opacity="0.38"/>
<g style="mix-blend-mode:overlay">
<path fill-rule="evenodd" clip-rule="evenodd" d="M73.312 48.3357C73.2848 48.2509 73.2686 48.1609 73.2651 48.0673L73.1073 43.8338C73.0981 43.5866 72.9975 43.3516 72.8252 43.1742L69.4171 39.6666C69.3677 39.6158 69.3249 39.5612 69.2886 39.5039C68.8035 39.831 68.6718 40.5585 69.1317 41.0318L71.8989 43.8799C72.0713 44.0573 72.1718 44.2923 72.181 44.5395L72.2866 47.3714C72.3088 47.9674 72.805 48.345 73.312 48.3357Z" fill="#040A1F" fill-opacity="0.6"/>
</g>
<path fill-rule="evenodd" clip-rule="evenodd" d="M81.1178 44.9008C81.1013 44.8809 81.0839 44.8615 81.0656 44.8428L77.4039 41.074C77.2315 40.8966 77.131 40.6616 77.1218 40.4144L76.9731 36.4258C76.9699 36.3403 76.9563 36.2583 76.9336 36.1806C77.449 36.1582 77.9611 36.5384 77.9837 37.1441L78.0893 39.9761C78.0985 40.2232 78.199 40.4583 78.3714 40.6357L81.1386 43.4837C81.552 43.9092 81.4874 44.54 81.1178 44.9008Z" fill="white"/>
<path d="M72.2867 47.3703C72.3201 48.2668 73.4257 48.6692 74.0276 48.004L75.9288 45.9024C76.0947 45.719 76.3228 45.6036 76.5689 45.5785L80.5193 45.1755C81.351 45.0906 81.7176 44.0834 81.1351 43.4838L78.3679 40.6357C78.1955 40.4583 78.095 40.2233 78.0858 39.9761L77.9802 37.1442C77.9468 36.2478 76.8411 35.8453 76.2393 36.5106L74.3381 38.6121C74.1721 38.7955 73.9441 38.911 73.698 38.9361L69.7475 39.3391C68.9159 39.4239 68.5492 40.4312 69.1318 41.0308L71.899 43.8788C72.0714 44.0562 72.1719 44.2912 72.1811 44.5384L72.2867 47.3703Z" stroke="#040A1F" stroke-opacity="0.38" stroke-width="0.7" stroke-linecap="round" stroke-linejoin="round"/>
</svg>
