<svg width="88" height="88" viewBox="0 0 88 88" fill="none" xmlns="http://www.w3.org/2000/svg">
<path d="M24.2269 50.2842H75.2461V83.0921H22.2486V52.3125C22.2486 51.1969 23.1388 50.2842 24.2269 50.2842Z" fill="#FAFAFA"/>
<path fill-rule="evenodd" clip-rule="evenodd" d="M24.2483 83.0921H23.248C22.6957 83.0921 22.248 82.6444 22.248 82.0921V52.3125C22.248 51.1969 23.1382 50.2842 24.2262 50.2842H25.2266C24.1385 50.2842 23.2483 51.1969 23.2483 52.3125V82.0921C23.2483 82.6444 23.696 83.0921 24.2483 83.0921Z" fill="#FAFAFA"/>
<path d="M57.5803 50.2842H75.2461V83.0921H57.5803V50.2842Z" fill="#E0E0E0"/>
<path d="M57.5 50L57.5 81" stroke="#040A1F" stroke-opacity="0.87" stroke-width="0.7" stroke-linecap="round" stroke-linejoin="round"/>
<path d="M22 63.5V82C22 82.5523 22.4477 83 23 83H74C74.5523 83 75 82.5523 75 82V50H32.5" stroke="#040A1F" stroke-opacity="0.87" stroke-width="0.7" stroke-linecap="round" stroke-linejoin="round"/>
<g style="mix-blend-mode:overlay">
<path d="M22.2467 52.8068L75.2441 57.5V50.2695H24.2467C23.1421 50.2695 22.2467 51.165 22.2467 52.2695V52.8068Z" fill="#2B2B2B"/>
</g>
<path fill-rule="evenodd" clip-rule="evenodd" d="M54.5957 53.4297C54.3076 53.4297 54.0741 53.6496 54.0741 53.9209V59.8836C54.0741 60.1549 54.3076 60.3748 54.5957 60.3748C54.8837 60.3748 55.1172 60.1549 55.1172 59.8836V53.9209C55.1172 53.6496 54.8837 53.4297 54.5957 53.4297Z" fill="white"/>
<path fill-rule="evenodd" clip-rule="evenodd" d="M54.5957 63.3613C54.3076 63.3613 54.0741 63.5812 54.0741 63.8525V64.8447C54.0741 65.1159 54.3076 65.3358 54.5957 65.3358C54.8837 65.3358 55.1172 65.1159 55.1172 64.8447V63.8525C55.1172 63.5812 54.8837 63.3613 54.5957 63.3613Z" fill="white"/>
<path d="M62.6711 29.9094L80.2466 38.5479C81.1214 38.9735 81.4743 40.0267 81.0486 40.9015L78.5349 46.0156C78.1093 46.8904 77.056 47.2432 76.1812 46.8176L58.6057 38.1791L62.6692 29.9179L62.6711 29.9094Z" fill="#E0E0E0"/>
<path fill-rule="evenodd" clip-rule="evenodd" d="M80.9293 39.1382L78.7467 43.5786C78.3211 44.4534 77.2678 44.8062 76.393 44.3806L59.6128 36.133L58.6066 38.1786L76.1821 46.8171C77.0569 47.2427 78.1101 46.8899 78.5358 46.0151L81.0495 40.9011C81.3359 40.3124 81.2698 39.6428 80.9293 39.1382Z" fill="#BDBDBD"/>
<path d="M67.0621 32.0678L71.4559 34.2275L80.2437 38.5467C81.1185 38.9723 81.4713 40.0256 81.0457 40.9004L78.5319 46.0144C78.1063 46.8892 77.0531 47.242 76.1783 46.8164L67.3905 42.4972L62.9966 40.3375" stroke="#040A1F" stroke-opacity="0.87" stroke-width="0.7" stroke-linecap="round" stroke-linejoin="round"/>
<path d="M34.0457 15.8306L68.6636 32.8413L64.6001 41.1025L29.9823 24.0918C29.1074 23.6662 28.7546 22.6129 29.1803 21.7381L31.694 16.6241C32.1196 15.7493 33.1729 15.3965 34.0477 15.8221L34.0457 15.8306Z" fill="#FAFAFA"/>
<path fill-rule="evenodd" clip-rule="evenodd" d="M34.0422 15.832C34.0399 15.8308 34.0386 15.8283 34.0392 15.8258C34.0398 15.8233 34.0385 15.8207 34.0362 15.8195C33.1622 15.3969 32.1115 15.75 31.6865 16.6235L29.1728 21.7375C28.8125 22.4781 29.01 23.3465 29.6099 23.8538C29.6252 23.6324 29.6827 23.4099 29.7858 23.198L32.2996 18.084C32.7245 17.2105 33.7752 16.8574 34.6493 17.28C34.6516 17.2811 34.6528 17.2837 34.6523 17.2862C34.6517 17.2887 34.6529 17.2913 34.6552 17.2924L68.159 33.7557C68.167 33.7596 68.175 33.7636 68.1828 33.7677C68.3588 33.197 68.0991 32.567 67.546 32.2952L34.0422 15.832Z" fill="white"/>
<path d="M34.0467 15.8264C34.0461 15.8289 34.0474 15.8314 34.0497 15.8326L48.7274 23.045L55.201 26.226L67.5535 32.2958C68.1665 32.597 68.4191 33.3383 68.1176 33.9512L65.1456 39.9935C64.8443 40.606 64.1036 40.8585 63.4909 40.5574L51.0647 34.4514L44.5331 31.2419L29.9823 24.0918C29.1074 23.6662 28.7546 22.6129 29.1803 21.7381L31.694 16.6241C32.119 15.7506 33.1697 15.3975 34.0437 15.8202C34.046 15.8213 34.0473 15.8239 34.0467 15.8264V15.8264Z" stroke="#040A1F" stroke-opacity="0.87" stroke-width="0.7" stroke-linecap="round" stroke-linejoin="round"/>
<rect width="7.99636" height="11.045" rx="1" transform="matrix(-0.905036 -0.425334 -0.425334 0.905036 54.2539 24.1602)" fill="#040A1F" fill-opacity="0.87"/>
<rect width="7.99636" height="11.045" rx="1.23637" transform="matrix(-0.905036 -0.425334 -0.425334 0.905036 54.2539 24.1602)" stroke="#040A1F" stroke-opacity="0.87" stroke-width="0.7" stroke-linecap="round" stroke-linejoin="round"/>
<path d="M10 83L18 83M76 83L20 83" stroke="#040A1F" stroke-opacity="0.87" stroke-width="0.7" stroke-linecap="round" stroke-linejoin="round"/>
<path d="M24.5804 63.2198L20.9442 62.117C20.6563 62.0322 20.3404 62.0467 20.0583 62.1644L16.5656 63.6736C15.7713 64.0148 14.8711 63.495 14.8662 62.6916L14.846 50.0281L24.7896 49.46L26.1512 62.0434C26.2349 62.8411 25.3996 63.4694 24.5717 63.2204L24.5804 63.2198Z" fill="#38D8B4"/>
<path d="M24.5804 63.2198L20.9442 62.117C20.6563 62.0322 20.3404 62.0467 20.0583 62.1644L16.5656 63.6736C15.7713 64.0148 14.8711 63.495 14.8662 62.6916L14.846 50.0281L24.7896 49.46L26.1512 62.0434C26.2349 62.8411 25.3996 63.4694 24.5717 63.2204L24.5804 63.2198Z" fill="#38D8B4"/>
<path d="M24.5804 63.2198L20.9442 62.117C20.6563 62.0322 20.3404 62.0467 20.0583 62.1644L16.5656 63.6736C15.7713 64.0148 14.8711 63.495 14.8662 62.6916L14.846 50.0281L24.7896 49.46L26.1512 62.0434C26.2349 62.8411 25.3996 63.4694 24.5717 63.2204L24.5804 63.2198Z" stroke="#040A1F" stroke-opacity="0.38" stroke-width="0.751824" stroke-linecap="round" stroke-linejoin="round"/>
<path d="M32.7502 45.4371C32.8473 47.1406 31.2865 48.6061 30.7475 50.1228C30.2085 51.6395 30.4554 53.7888 29.3485 55.0142C28.2416 56.2395 26.1022 56.2105 24.5806 56.9342C23.059 57.6579 21.8156 59.3249 20.0893 59.4239C18.3629 59.523 16.8809 57.9854 15.3451 57.4564C13.8093 56.9274 11.6308 57.1752 10.3913 56.0852C9.15179 54.9952 9.18527 52.8838 8.45483 51.3835C7.72439 49.8833 6.03769 48.6594 5.94059 46.9559C5.84349 45.2524 7.40435 43.7869 7.94336 42.2702C8.48236 40.7536 8.23543 38.6042 9.34232 37.3788C10.4492 36.1535 12.5886 36.1825 14.1102 35.4588C15.6318 34.7351 16.8752 33.0682 18.6016 32.9691C20.3279 32.87 21.8099 34.4076 23.3457 34.9366C24.8816 35.4656 27.06 35.2178 28.2995 36.3079C29.539 37.3979 29.5056 39.5093 30.236 41.0095C30.9664 42.5097 32.6531 43.7337 32.7502 45.4371Z" fill="#8BEAD6"/>
<path d="M32.7502 45.445C32.8473 47.1484 31.2865 48.6139 30.7475 50.1306C30.2085 51.6473 30.4554 53.7967 29.3485 55.022C28.2416 56.2473 26.1022 56.2183 24.5806 56.942C23.059 57.6658 21.8156 59.3327 20.0893 59.4317C18.3629 59.5308 16.8809 57.9933 15.3451 57.4642C13.8093 56.9352 11.6308 57.183 10.3913 56.093C9.15179 55.003 9.18527 52.8916 8.45483 51.3913C7.7244 49.8911 6.03769 48.6672 5.94059 46.9637C5.84349 45.2602 7.40435 43.7947 7.94336 42.278C8.48236 40.7614 8.23543 38.612 9.34232 37.3867C10.4492 36.1613 12.5886 36.1903 14.1102 35.4666C15.6318 34.7429 16.8752 33.076 18.6016 32.9769C20.3279 32.8778 21.8099 34.4154 23.3457 34.9444C24.8816 35.4735 27.06 35.2257 28.2995 36.3157C29.539 37.4057 29.5056 39.5171 30.236 41.0173C30.9664 42.5175 32.6531 43.7415 32.7502 45.445V45.445Z" stroke="#040A1F" stroke-opacity="0.38" stroke-width="0.751824" stroke-linecap="round" stroke-linejoin="round"/>
<path d="M20.033 56.1772C25.6355 55.7748 29.8553 50.9672 29.4582 45.4391C29.0612 39.9109 24.1977 35.7557 18.5953 36.1581C12.9928 36.5605 8.77303 41.3681 9.17007 46.8963C9.5671 52.4244 14.4306 56.5796 20.033 56.1772Z" fill="#D8F8F2"/>
<g style="mix-blend-mode:overlay" opacity="0.6">
<path d="M18.7893 36.1354C13.1577 36.4569 8.84623 41.217 9.16061 46.7658C9.47558 52.3229 14.2908 56.5687 19.914 56.2478C25.5457 55.9264 29.8571 51.1662 29.5428 45.6174C29.2278 40.0603 24.4126 35.8146 18.7893 36.1354ZM19.859 55.2471C14.7889 55.5365 10.4583 51.7126 10.1748 46.7096C9.89116 41.7066 13.7742 37.4256 18.8444 37.1361C23.9145 36.8467 28.245 40.6706 28.5286 45.6737C28.8122 50.6767 24.9291 54.9577 19.859 55.2471Z" fill="white"/>
</g>
<path d="M20.0738 56.2451C25.696 55.8413 29.9306 51.0168 29.5322 45.4692C29.1338 39.9216 24.2531 35.7517 18.631 36.1556C13.0088 36.5594 8.77417 41.3839 9.1726 46.9315C9.57103 52.4791 14.4517 56.6489 20.0738 56.2451Z" stroke="white" stroke-width="0.751824" stroke-linecap="round" stroke-linejoin="round"/>
<path d="M14.1357 40.0322C13.2112 40.7462 12.4521 41.656 11.9214 42.6988" stroke="white" stroke-width="0.751824" stroke-linecap="round" stroke-linejoin="round"/>
<g style="mix-blend-mode:overlay">
<path d="M22.1897 43.49L17.4717 51.1639C17.1053 51.7554 16.3338 51.9552 15.7196 51.616C15.1055 51.2768 14.8754 50.5112 15.2173 49.8862L19.5188 41.9811C19.918 41.2442 20.8464 40.9629 21.5909 41.3464C22.3767 41.7511 22.6519 42.7335 22.1882 43.4809L22.1897 43.49Z" fill="black"/>
<path d="M14.7315 45.9046C15.4542 45.7874 15.9448 45.1143 15.8275 44.4011C15.7101 43.6879 15.0292 43.2048 14.3065 43.322C13.5839 43.4392 13.0932 44.1123 13.2105 44.8255C13.3279 45.5386 14.0089 46.0218 14.7315 45.9046Z" fill="black"/>
<path d="M23.5402 49.5169C24.2628 49.3997 24.7535 48.7266 24.6361 48.0135C24.5187 47.3003 23.8378 46.8172 23.1151 46.9343C22.3925 47.0515 21.9018 47.7246 22.0192 48.4378C22.1366 49.1509 22.8175 49.6341 23.5402 49.5169Z" fill="black"/>
</g>
<path d="M23.0179 43.3603L18.3001 51.034C17.9337 51.6256 17.1622 51.8253 16.548 51.4861C15.9339 51.1469 15.7038 50.3813 16.0457 49.7563L20.3469 41.8514C20.7461 41.1145 21.6746 40.8332 22.419 41.2167C23.2049 41.6214 23.4801 42.6038 23.0164 43.3512L23.0179 43.3603Z" fill="url(#paint0_linear_9267_35695)"/>
<path d="M15.5577 45.7737C16.2803 45.6565 16.771 44.9834 16.6537 44.2702C16.5363 43.5571 15.8553 43.074 15.1327 43.1911C14.41 43.3083 13.9194 43.9814 14.0367 44.6946C14.1541 45.4078 14.835 45.8909 15.5577 45.7737Z" fill="url(#paint1_linear_9267_35695)"/>
<path d="M24.3585 49.387C25.0812 49.2699 25.5719 48.5967 25.4545 47.8836C25.3371 47.1704 24.6561 46.6873 23.9335 46.8045C23.2108 46.9216 22.7202 47.5947 22.8375 48.3079C22.9549 49.021 23.6359 49.5042 24.3585 49.387Z" fill="url(#paint2_linear_9267_35695)"/>
<defs>
<linearGradient id="paint0_linear_9267_35695" x1="19.4764" y1="51.0433" x2="16.4217" y2="41.0475" gradientUnits="userSpaceOnUse">
<stop stop-color="#1B217C"/>
<stop offset="1" stop-color="#1B217C" stop-opacity="0"/>
</linearGradient>
<linearGradient id="paint1_linear_9267_35695" x1="15.2926" y1="45.7488" x2="14.5224" y2="43.0537" gradientUnits="userSpaceOnUse">
<stop stop-color="#1B217C"/>
<stop offset="1" stop-color="#1B217C" stop-opacity="0"/>
</linearGradient>
<linearGradient id="paint2_linear_9267_35695" x1="24.0934" y1="49.3621" x2="23.3233" y2="46.6669" gradientUnits="userSpaceOnUse">
<stop stop-color="#1B217C"/>
<stop offset="1" stop-color="#1B217C" stop-opacity="0"/>
</linearGradient>
</defs>
</svg>
