<svg width="88" height="88" viewBox="0 0 88 88" fill="none" xmlns="http://www.w3.org/2000/svg">
<path d="M56.6797 46.7486L60.2286 13.1074L61.9451 13.5366C62.654 13.7138 63.1301 14.3827 63.0649 15.1098L60.4266 46.3977C60.3686 47.0449 59.8984 47.561 59.2886 47.6969C59.0805 47.7433 58.8668 47.6886 58.6709 47.6044L56.6797 46.7486Z" fill="#BDBDBD"/>
<path d="M60.8954 13.0791L62.1642 13.5866C62.8047 13.8428 63.2032 14.4868 63.1467 15.1744L60.6429 45.6366C60.5342 46.9596 59.1904 47.8115 57.9474 47.3454L56.6719 46.8671" stroke="#040A1F" stroke-opacity="0.87" stroke-width="0.7" stroke-linecap="round" stroke-linejoin="round"/>
<path d="M16.4271 29.6299C14.8639 28.9599 14.9699 26.708 16.5881 26.209L59.1652 13.0783C60.4119 12.6938 61.654 13.7122 61.5255 15.0136L58.5542 45.1178C58.4336 46.3402 57.1642 47.0882 56.033 46.6034L16.4271 29.6299Z" fill="#F5F5F5"/>
<circle opacity="0.5" cx="53.5893" cy="27.1186" r="2.21231" fill="#E0E0E0"/>
<path opacity="0.7" fill-rule="evenodd" clip-rule="evenodd" d="M41.0237 40.1746L29.3008 35.1506C29.7049 31.8722 32.4998 29.334 35.8875 29.334C39.553 29.334 42.5244 32.3054 42.5244 35.9709C42.5244 37.5662 41.9616 39.03 41.0237 40.1746Z" fill="#E0E0E0"/>
<path d="M16.5881 26.208C14.9699 26.7071 14.8639 28.959 16.4271 29.6289L16.8262 29.7999C16.6501 28.947 17.0743 27.9878 18.063 27.6829L60.6401 14.5522C60.9348 14.4613 61.2292 14.4488 61.5053 14.4999C61.3158 13.46 60.2423 12.7451 59.1652 13.0773L16.5881 26.208Z" fill="white"/>
<path d="M43.6823 18.0044L16.2057 26.4278C14.6281 26.9114 14.5292 29.1088 16.056 29.7529L56.4788 46.8036C57.3926 47.189 58.413 46.5839 58.5102 45.5987L61.5797 14.5069C61.6841 13.4495 60.6706 12.6248 59.6601 12.9448L45.8451 17.3195" stroke="#040A1F" stroke-opacity="0.87" stroke-width="0.7" stroke-linecap="round" stroke-linejoin="round"/>
<path d="M69.0755 13.9512L61.7012 17.5171L66.7309 19.8507" stroke="#040A1F" stroke-opacity="0.87" stroke-width="0.7" stroke-linecap="round" stroke-linejoin="round"/>
<path d="M63.5235 44.9385L59.041 41.8257L64.7064 39.8652" stroke="#040A1F" stroke-opacity="0.87" stroke-width="0.7" stroke-linecap="round" stroke-linejoin="round"/>
<path d="M69.8436 13.582C69.848 13.5204 69.8403 13.4585 69.821 13.3997V13.3997C69.6613 12.9132 68.9533 12.9838 68.899 13.4917L61.5024 82.6732L64.9512 82.6732L69.8436 13.582Z" fill="#040A1F" fill-opacity="0.87"/>
<path d="M68.873 11.6709L69.6334 13.0844C69.7753 13.3482 69.8394 13.6465 69.8184 13.9444L64.9516 82.6728" stroke="#040A1F" stroke-opacity="0.87" stroke-width="0.7" stroke-linecap="round" stroke-linejoin="round"/>
<path d="M66.9623 12.1192C67.0233 11.553 67.5277 11.1439 68.0944 11.201V11.201C68.6666 11.2586 69.0868 11.7695 69.0329 12.342L62.4208 82.6742L59.3808 82.4668L66.9623 12.1192Z" fill="#E0E0E0"/>
<path d="M62.4355 82.4668L69.0329 12.3421C69.0867 11.7695 68.6665 11.2586 68.0943 11.201V11.201C67.5277 11.1439 67.0233 11.5529 66.9623 12.1191L61.8298 59.7431M59.3808 82.4668L61.5559 62.2844" stroke="#040A1F" stroke-opacity="0.87" stroke-width="0.7" stroke-linecap="round" stroke-linejoin="round"/>
<path d="M28.9844 82.8457L36.4928 82.8457M73.0964 82.8457L39.7778 82.8457" stroke="#040A1F" stroke-opacity="0.87" stroke-width="0.7" stroke-linecap="round" stroke-linejoin="round"/>
<path d="M32.6488 58.3454C32.9641 57.8323 32.9034 57.174 32.4999 56.7293L21.3786 44.4747C20.4707 43.4744 18.8535 43.6283 18.1441 44.7827L9.45428 58.9234C9.139 59.4364 9.19965 60.0948 9.60315 60.5394L20.7245 72.7941C21.6324 73.7944 23.2496 73.6405 23.959 72.4861L32.6488 58.3454Z" fill="#CE097F"/>
<g style="mix-blend-mode:overlay" opacity="0.4">
<path d="M32.6488 58.3454C32.9641 57.8323 32.9034 57.174 32.4999 56.7293L21.3786 44.4747C20.4707 43.4744 18.8535 43.6283 18.1441 44.7827L9.45428 58.9234C9.139 59.4364 9.19965 60.0948 9.60315 60.5394L20.7245 72.7941C21.6324 73.7944 23.2496 73.6405 23.959 72.4861L32.6488 58.3454Z" fill="url(#paint0_linear_9267_35747)"/>
</g>
<path opacity="0.1" fill-rule="evenodd" clip-rule="evenodd" d="M22.8711 73.3572L14.1249 59.2987L9.53446 59.0367C9.22763 59.5479 9.29051 60.1994 9.69079 60.6404L20.8122 72.8951C20.8208 72.9046 20.8295 72.914 20.8383 72.9233C21.4044 73.4522 22.1907 73.5865 22.8711 73.3572Z" fill="white"/>
<g style="mix-blend-mode:overlay" opacity="0.3" filter="url(#filter0_f_9267_35747)">
<path d="M22.6117 73.4244L24.7376 61.6837L17.627 58.2852L22.8401 63.2229L22.5072 73.4416C22.5421 73.4368 22.577 73.431 22.6117 73.4244Z" fill="black"/>
</g>
<path d="M32.1605 56.3566C32.7658 57.0235 32.8567 58.0111 32.3838 58.7806L23.96 72.4885C23.6419 73.0061 23.1413 73.3226 22.6039 73.424L24.7218 61.5766L28.4025 57.2577L30.4318 54.4518L32.1605 56.3566Z" fill="#B50870"/>
<g style="mix-blend-mode:overlay">
<path d="M24.0789 72.2918L25.3893 61.7551C25.4002 61.6675 25.4394 61.5857 25.5009 61.5222L29.7508 57.1309L31.1293 55.2249L30.4304 54.4548L28.4022 57.2591L24.7215 61.578L22.6037 73.425C23.1401 73.323 23.6396 73.0067 23.9571 72.49L24.0789 72.2918Z" fill="url(#paint1_linear_9267_35747)"/>
</g>
<g style="mix-blend-mode:overlay">
<path d="M22.6141 73.4234L23.9896 65.8271C24.4525 65.5431 25.0188 65.2603 25.7227 64.9851C30.3156 63.1894 31.3531 59.6942 30.4312 57.0649C30.2901 56.6625 30.5117 56.4344 30.9951 56.3398L32.637 58.149C32.64 58.1523 32.643 58.1556 32.6459 58.1589C32.5978 58.3742 32.514 58.5842 32.3936 58.7801L23.9698 72.4879C23.6518 73.0054 23.1513 73.3218 22.6141 73.4234Z" fill="#686868"/>
</g>
<path d="M16.0624 59.1138L17.6176 58.2865L19.6842 43.8254C19.0776 43.883 18.4957 44.2101 18.1409 44.7874L11.0471 56.3309C10.1703 57.7577 11.2963 59.5676 12.9621 59.409L16.0624 59.1138Z" fill="#F9D1EA"/>
<path d="M16.0624 59.1138L12.9621 59.409C11.7251 59.5268 10.9788 60.6551 11.1361 61.7344L16.0624 59.1138Z" fill="#F9D1EA"/>
<path d="M10.8318 61.8933L17.6208 58.2818L19.6875 43.8206C19.0808 43.8782 18.4989 44.2053 18.1441 44.7827L9.45428 58.9234C9.139 59.4364 9.19965 60.0948 9.60314 60.5394L10.8318 61.8933Z" fill="url(#paint2_linear_9267_35747)"/>
<path d="M10.8318 61.8933L17.6208 58.2818L19.6875 43.8206C19.0808 43.8782 18.4989 44.2053 18.1441 44.7827L9.45428 58.9234C9.139 59.4364 9.19965 60.0948 9.60314 60.5394L10.8318 61.8933Z" fill="url(#paint3_linear_9267_35747)"/>
<path opacity="0.2" d="M19.6181 43.8302L12.753 60.873L10.8317 61.8951L9.60304 60.5412C9.19954 60.0966 9.13889 59.4382 9.45417 58.9252L18.144 44.7844C18.4853 44.2291 19.0366 43.9053 19.6181 43.8302Z" fill="white"/>
<g style="mix-blend-mode:overlay" filter="url(#filter1_f_9267_35747)">
<path d="M17.4902 56.8641L11.1848 60.2889L10.2409 59.9685L9.47255 59.1218C9.44535 59.0918 9.4197 59.0608 9.39562 59.029C9.14873 59.5242 9.22685 60.1248 9.60314 60.5394L10.8318 61.8933L17.6208 58.2818L19.6875 43.8206C19.5721 43.8316 19.4576 43.8523 19.3454 43.8826L17.4902 56.8641Z" fill="#6C6C6C"/>
</g>
<path d="M19.6445 43.8258L17.6249 58.2819L24.5351 61.5847C24.6529 61.641 24.7942 61.6098 24.8778 61.509L28.4065 57.2555L20.7332 43.9969C20.3894 43.8382 20.0115 43.7826 19.6445 43.8258Z" fill="#F187C7"/>
<path opacity="0.4" d="M24.6407 50.9445L18.0474 54.8822L17.6302 58.2773L17.9534 58.4318L26.0857 53.3611L24.6407 50.9445Z" fill="url(#paint4_linear_9267_35747)"/>
<path opacity="0.5" d="M24.7354 51.1223L18.0102 55.1387L18.0407 54.8904L24.634 50.9527L24.7354 51.1223Z" fill="url(#paint5_linear_9267_35747)"/>
<path opacity="0.3" d="M23.3829 48.8872L18.3988 51.8638L18.2252 53.277L23.8942 49.7421L23.3829 48.8872Z" fill="url(#paint6_linear_9267_35747)"/>
<path d="M17.8086 58.3707C17.6925 58.3151 17.5567 58.3182 17.4427 58.3788L16.3063 58.9833L19.4808 43.8522C19.5502 43.8383 19.6202 43.828 19.6906 43.8213L17.8201 56.9094C17.8036 57.0251 17.8594 57.139 17.9609 57.1966L24.4662 60.8897C24.5863 60.9578 24.7383 60.9298 24.8266 60.8233L28.1468 56.8211L28.4068 57.2558L24.8781 61.5094C24.7945 61.6102 24.6532 61.6414 24.5354 61.5851L17.8086 58.3707Z" fill="white"/>
<path d="M20.4121 43.8828L28.4109 57.259L32.3827 58.7947L32.6567 58.3488C32.9719 57.8358 32.9113 57.1774 32.5078 56.7328L21.3864 44.4782C21.1117 44.1754 20.772 43.9784 20.4121 43.8828Z" fill="#E854AF"/>
<g style="mix-blend-mode:overlay" filter="url(#filter2_f_9267_35747)">
<path d="M28.4101 57.2578L20.4121 43.8828C20.4512 43.8933 20.49 43.9049 20.5285 43.9177L28.2809 55.9113L32.8536 57.6793C32.8467 57.9101 32.7806 58.1409 32.6534 58.3479L32.3801 58.7927L28.4101 57.2578Z" fill="#575757"/>
</g>
<path d="M32.6488 58.3454C32.9641 57.8323 32.9034 57.174 32.4999 56.7293L21.3786 44.4747C20.4707 43.4744 18.8535 43.6283 18.1441 44.7827L9.45428 58.9234C9.139 59.4364 9.19965 60.0948 9.60315 60.5394L20.7245 72.7941C21.6324 73.7944 23.2496 73.6405 23.959 72.4861L32.6488 58.3454Z" stroke="#040A1F" stroke-opacity="0.38" stroke-width="0.746909" stroke-linecap="round" stroke-linejoin="round"/>
<defs>
<filter id="filter0_f_9267_35747" x="17.3736" y="58.0318" width="7.61812" height="15.663" filterUnits="userSpaceOnUse" color-interpolation-filters="sRGB">
<feFlood flood-opacity="0" result="BackgroundImageFix"/>
<feBlend mode="normal" in="SourceGraphic" in2="BackgroundImageFix" result="shape"/>
<feGaussianBlur stdDeviation="0.126698" result="effect1_foregroundBlur_9267_35747"/>
</filter>
<filter id="filter1_f_9267_35747" x="8.87381" y="43.4402" width="11.1938" height="18.8334" filterUnits="userSpaceOnUse" color-interpolation-filters="sRGB">
<feFlood flood-opacity="0" result="BackgroundImageFix"/>
<feBlend mode="normal" in="SourceGraphic" in2="BackgroundImageFix" result="shape"/>
<feGaussianBlur stdDeviation="0.190046" result="effect1_foregroundBlur_9267_35747"/>
</filter>
<filter id="filter2_f_9267_35747" x="20.032" y="43.5027" width="13.2016" height="15.6703" filterUnits="userSpaceOnUse" color-interpolation-filters="sRGB">
<feFlood flood-opacity="0" result="BackgroundImageFix"/>
<feBlend mode="normal" in="SourceGraphic" in2="BackgroundImageFix" result="shape"/>
<feGaussianBlur stdDeviation="0.190046" result="effect1_foregroundBlur_9267_35747"/>
</filter>
<linearGradient id="paint0_linear_9267_35747" x1="22.66" y1="61.0217" x2="18.1574" y2="71.0266" gradientUnits="userSpaceOnUse">
<stop stop-color="#AFAFAF" stop-opacity="0"/>
<stop offset="1" stop-color="#373737"/>
</linearGradient>
<linearGradient id="paint1_linear_9267_35747" x1="31.5227" y1="54.2464" x2="28.4822" y2="83.0213" gradientUnits="userSpaceOnUse">
<stop stop-color="#464646" stop-opacity="0"/>
<stop offset="1" stop-color="#323232"/>
</linearGradient>
<linearGradient id="paint2_linear_9267_35747" x1="15.6733" y1="47.5001" x2="13.9874" y2="68.1355" gradientUnits="userSpaceOnUse">
<stop stop-color="#F9D1EA"/>
<stop offset="1" stop-color="#F187C7"/>
</linearGradient>
<linearGradient id="paint3_linear_9267_35747" x1="15.6733" y1="47.5001" x2="13.9874" y2="68.1355" gradientUnits="userSpaceOnUse">
<stop stop-color="#F9D1EA"/>
<stop offset="1" stop-color="#F187C7"/>
</linearGradient>
<linearGradient id="paint4_linear_9267_35747" x1="17.1856" y1="55.4241" x2="26.4093" y2="54.5745" gradientUnits="userSpaceOnUse">
<stop stop-color="white"/>
<stop offset="1" stop-color="white" stop-opacity="0"/>
</linearGradient>
<linearGradient id="paint5_linear_9267_35747" x1="19.0638" y1="54.538" x2="26.8539" y2="51.6686" gradientUnits="userSpaceOnUse">
<stop stop-color="white"/>
<stop offset="1" stop-color="white" stop-opacity="0"/>
</linearGradient>
<linearGradient id="paint6_linear_9267_35747" x1="20.8403" y1="49.1292" x2="21.2082" y2="52.9929" gradientUnits="userSpaceOnUse">
<stop stop-color="white"/>
<stop offset="1" stop-color="white" stop-opacity="0"/>
</linearGradient>
</defs>
</svg>
