<svg width="88" height="88" viewBox="0 0 88 88" fill="none" xmlns="http://www.w3.org/2000/svg">
<path d="M78.6446 38.0818C71.7414 26.125 56.4522 22.0282 44.4953 28.9315C32.5385 35.8348 28.4418 51.124 35.3451 63.0808C42.2484 75.0377 57.5375 79.1344 69.4944 72.2311C81.4512 65.3278 85.5479 50.0387 78.6446 38.0818Z" fill="#F5F5F5"/>
<g style="mix-blend-mode:overlay" opacity="0.5">
<path fill-rule="evenodd" clip-rule="evenodd" d="M75.6797 67.1964C73.9456 69.1465 71.8742 70.8561 69.4903 72.2324C57.5335 79.1357 42.2443 75.039 35.3411 63.0821C29.2993 52.6176 31.6832 39.6007 40.3878 31.8867C33.424 39.7179 31.8999 51.427 37.4269 61C44.3302 72.9568 59.6193 77.0535 71.5762 70.1502C73.0685 69.2887 74.4384 68.2964 75.6797 67.1964Z" fill="#040A1F" fill-opacity="0.38"/>
</g>
<path fill-rule="evenodd" clip-rule="evenodd" d="M44.4954 28.9315C56.4522 22.0282 71.7414 26.125 78.6446 38.0818C84.6795 48.5345 82.3079 61.5337 73.6275 69.2509C80.5706 61.4198 82.0849 49.7268 76.5643 40.1649C69.661 28.2081 54.3718 24.1113 42.415 31.0146C40.9108 31.8831 39.531 32.8843 38.2818 33.9948C40.0208 32.0334 42.1004 30.3142 44.4954 28.9315Z" fill="white"/>
<path d="M78.6446 38.0818C71.7414 26.125 56.4522 22.0282 44.4954 28.9315C32.5385 35.8348 28.4418 51.124 35.3451 63.0808C42.2484 75.0377 57.5375 79.1344 69.4944 72.2311C81.4512 65.3278 85.5479 50.0387 78.6446 38.0818Z" stroke="#040A1F" stroke-opacity="0.87" stroke-width="0.7" stroke-linecap="round" stroke-linejoin="round"/>
<g opacity="0.25">
<path d="M42.7522 54.1302C46.2407 54.1302 49.0687 51.3022 49.0687 47.8137C49.0687 44.3251 46.2407 41.4971 42.7522 41.4971C39.2636 41.4971 36.4356 44.3251 36.4356 47.8137C36.4356 51.3022 39.2636 54.1302 42.7522 54.1302Z" fill="#BDBDBD"/>
<path d="M42.7522 54.1302C46.2407 54.1302 49.0687 51.3022 49.0687 47.8137C49.0687 44.3251 46.2407 41.4971 42.7522 41.4971C39.2636 41.4971 36.4356 44.3251 36.4356 47.8137C36.4356 51.3022 39.2636 54.1302 42.7522 54.1302Z" fill="#BDBDBD"/>
<g opacity="0.8">
<path d="M46.9409 51.5011C47.5106 51.092 47.8417 50.4154 47.6805 49.9899C47.5193 49.5644 46.9268 49.551 46.3571 49.9601C45.7874 50.3692 45.4562 51.0458 45.6174 51.4713C45.7786 51.8968 46.3711 51.9102 46.9409 51.5011Z" fill="white"/>
<path d="M46.9409 51.5011C47.5106 51.092 47.8417 50.4154 47.6805 49.9899C47.5193 49.5644 46.9268 49.551 46.3571 49.9601C45.7874 50.3692 45.4562 51.0458 45.6174 51.4713C45.7786 51.8968 46.3711 51.9102 46.9409 51.5011Z" fill="white"/>
</g>
<g opacity="0.8">
<path d="M45.1695 52.4789C45.3776 52.3592 45.4504 52.0941 45.332 51.8868C45.2137 51.6795 44.9491 51.6085 44.741 51.7282C44.5329 51.8479 44.4601 52.113 44.5784 52.3203C44.6968 52.5276 44.9614 52.5986 45.1695 52.4789Z" fill="white"/>
<path d="M45.1695 52.4789C45.3776 52.3592 45.4504 52.0941 45.332 51.8868C45.2137 51.6795 44.9491 51.6085 44.741 51.7282C44.5329 51.8479 44.4601 52.113 44.5784 52.3203C44.6968 52.5276 44.9614 52.5986 45.1695 52.4789Z" fill="white"/>
</g>
<g style="mix-blend-mode:overlay" opacity="0.5">
<path fill-rule="evenodd" clip-rule="evenodd" d="M48.4333 50.5834C47.4073 52.6844 45.2497 54.1317 42.7541 54.1317C39.2656 54.1317 36.4376 51.3037 36.4376 47.8151C36.4376 46.502 36.8383 45.2824 37.5241 44.272C37.1159 45.1079 36.8868 46.0473 36.8868 47.0402C36.8868 50.5287 39.7148 53.3567 43.2034 53.3567C45.3787 53.3567 47.2972 52.2571 48.4333 50.5834Z" fill="#040A1F" fill-opacity="0.38"/>
</g>
<path opacity="0.2" fill-rule="evenodd" clip-rule="evenodd" d="M47.941 51.4558C49.3635 49.499 49.5905 46.8099 48.3028 44.5797C46.5586 41.5586 42.6954 40.5234 39.6743 42.2677C38.7261 42.8151 37.9736 43.5713 37.4412 44.4445C37.9456 43.7506 38.6004 43.1487 39.3913 42.6921C42.4125 40.9478 46.2756 41.9829 48.0199 45.0041C49.2167 47.0771 49.105 49.5465 47.941 51.4558Z" fill="white"/>
</g>
<ellipse opacity="0.3" cx="3.31676" cy="2.48757" rx="3.31676" ry="2.48757" transform="matrix(-1 0 0 1 45.7363 46.7539)" fill="url(#paint0_linear_9267_35624)"/>
<g opacity="0.55">
<path d="M53.9563 70.1708C58.4094 70.1708 62.0194 66.5608 62.0194 62.1077C62.0194 57.6545 58.4094 54.0446 53.9563 54.0446C49.5032 54.0446 45.8932 57.6545 45.8932 62.1077C45.8932 66.5608 49.5032 70.1708 53.9563 70.1708Z" fill="#BDBDBD"/>
<path d="M53.9563 70.1708C58.4094 70.1708 62.0194 66.5608 62.0194 62.1077C62.0194 57.6545 58.4094 54.0446 53.9563 54.0446C49.5032 54.0446 45.8932 57.6545 45.8932 62.1077C45.8932 66.5608 49.5032 70.1708 53.9563 70.1708Z" fill="#BDBDBD"/>
<g opacity="0.8">
<path d="M58.9249 66.9007C59.3397 66.56 59.6502 66.0933 59.6185 65.8583C59.5868 65.6232 59.2249 65.7088 58.8101 66.0495C58.3954 66.3901 58.0848 66.8568 58.1165 67.0918C58.1483 67.3269 58.5102 67.2413 58.9249 66.9007Z" fill="white"/>
<path d="M58.9249 66.9007C59.3397 66.56 59.6502 66.0933 59.6185 65.8583C59.5868 65.6232 59.2249 65.7088 58.8101 66.0495C58.3954 66.3901 58.0848 66.8568 58.1165 67.0918C58.1483 67.3269 58.5102 67.2413 58.9249 66.9007Z" fill="white"/>
</g>
<g style="mix-blend-mode:overlay" opacity="0.5">
<ellipse cx="7.60278" cy="3.85664" rx="7.60278" ry="3.85664" transform="matrix(0.998986 0.0450206 0.0450206 -0.998986 46.2871 64.8838)" fill="#040A1F" fill-opacity="0.38"/>
</g>
<g style="mix-blend-mode:overlay" opacity="0.5">
<path fill-rule="evenodd" clip-rule="evenodd" d="M61.2093 65.6216C59.9032 68.3135 57.1437 70.1693 53.9508 70.1693C49.4977 70.1693 45.8877 66.5593 45.8877 62.1062C45.8877 60.4376 46.3945 58.8875 47.2626 57.6012C46.7471 58.6636 46.458 59.8563 46.458 61.1166C46.458 65.5697 50.068 69.1797 54.5211 69.1797C57.3057 69.1797 59.7606 67.7681 61.2093 65.6216Z" fill="#040A1F" fill-opacity="0.38"/>
</g>
<path opacity="0.2" fill-rule="evenodd" clip-rule="evenodd" d="M60.6052 66.7154C62.3952 64.221 62.6732 60.8097 61.0383 57.9779C58.8117 54.1214 53.8804 52.8 50.0238 55.0266C48.7983 55.7342 47.8288 56.7149 47.1478 57.8474C47.7955 56.9448 48.6413 56.1622 49.666 55.5705C53.5225 53.344 58.4538 54.6653 60.6804 58.5218C62.1994 61.1528 62.0671 64.284 60.6052 66.7154Z" fill="white"/>
<ellipse opacity="0.4" cx="2.34286" cy="1.5256" rx="2.34286" ry="1.5256" transform="matrix(-0.785029 0.619458 0.619458 0.785029 50.6133 55.9756)" fill="url(#paint1_linear_9267_35624)"/>
<ellipse opacity="0.4" cx="0.626364" cy="0.6771" rx="0.626364" ry="0.6771" transform="matrix(-0.785029 0.619458 0.619458 0.785029 52.459 55.1797)" fill="url(#paint2_linear_9267_35624)"/>
</g>
<path d="M74.4551 46.3037C74.4551 42.0224 70.9844 38.5518 66.7032 38.5518C62.4219 38.5518 58.9513 42.0224 58.9513 46.3037C58.9513 50.5849 62.4219 54.0556 66.7032 54.0556C70.9844 54.0556 74.4551 50.5849 74.4551 46.3037Z" fill="#BDBDBD"/>
<path d="M74.4551 46.3037C74.4551 42.0224 70.9844 38.5518 66.7032 38.5518C62.4219 38.5518 58.9513 42.0224 58.9513 46.3037C58.9513 50.5849 62.4219 54.0556 66.7032 54.0556C70.9844 54.0556 74.4551 50.5849 74.4551 46.3037Z" fill="#BDBDBD"/>
<path d="M66.7032 38.5518C70.9844 38.5518 74.4551 42.0224 74.4551 46.3037C74.4551 50.5849 70.9844 54.0556 66.7032 54.0556C62.4219 54.0556 58.9513 50.5849 58.9513 46.3037C58.9513 42.0224 62.4219 38.5518 66.7032 38.5518Z" stroke="url(#paint3_linear_9267_35624)" stroke-opacity="0.4" stroke-width="0.7" stroke-linejoin="round"/>
<path d="M66.7032 38.5518C70.9844 38.5518 74.4551 42.0224 74.4551 46.3037C74.4551 50.5849 70.9844 54.0556 66.7032 54.0556C62.4219 54.0556 58.9513 50.5849 58.9513 46.3037C58.9513 42.0224 62.4219 38.5518 66.7032 38.5518Z" stroke="url(#paint4_linear_9267_35624)" stroke-opacity="0.2" stroke-width="0.7" stroke-linecap="round" stroke-linejoin="round"/>
<g opacity="0.8">
<path d="M71.2257 41.159C70.7237 40.4598 69.8933 40.0534 69.3711 40.2512C68.8489 40.449 68.8325 41.1762 69.3346 41.8754C69.8366 42.5746 70.6669 42.981 71.1892 42.7832C71.7114 42.5853 71.7278 41.8582 71.2257 41.159Z" fill="white"/>
<path d="M71.2257 41.159C70.7237 40.4598 69.8933 40.0534 69.3711 40.2512C68.8489 40.449 68.8325 41.1762 69.3346 41.8754C69.8366 42.5746 70.6669 42.981 71.1892 42.7832C71.7114 42.5853 71.7278 41.8582 71.2257 41.159Z" fill="white"/>
</g>
<g opacity="0.8">
<path d="M72.4247 43.3394C72.2778 43.084 71.9525 42.9947 71.6981 43.1399C71.4437 43.2851 71.3565 43.6099 71.5035 43.8653C71.6504 44.1207 71.9757 44.21 72.2301 44.0648C72.4845 43.9196 72.5716 43.5948 72.4247 43.3394Z" fill="white"/>
<path d="M72.4247 43.3394C72.2778 43.084 71.9525 42.9947 71.6981 43.1399C71.4437 43.2851 71.3565 43.6099 71.5035 43.8653C71.6504 44.1207 71.9757 44.21 72.2301 44.0648C72.4845 43.9196 72.5716 43.5948 72.4247 43.3394Z" fill="white"/>
</g>
<g style="mix-blend-mode:overlay" opacity="0.5">
<path d="M66.327 38.9014C64.2813 38.8092 62.4757 42.0036 62.2939 46.0364C62.1122 50.0691 63.6232 53.413 65.6689 53.5052C67.7146 53.5974 69.5202 50.403 69.702 46.3702C69.8837 42.3375 68.3727 38.9936 66.327 38.9014Z" fill="#040A1F" fill-opacity="0.38"/>
</g>
<g style="mix-blend-mode:overlay" opacity="0.5">
<path d="M70.0996 39.3329C72.6785 40.592 74.4551 43.2401 74.4551 46.3031C74.4551 50.5844 70.9844 54.055 66.7032 54.055C65.0919 54.055 63.5955 53.5634 62.3557 52.7221C63.3813 53.2228 64.5339 53.5038 65.7521 53.5038C70.0334 53.5038 73.504 50.0332 73.504 45.7519C73.504 43.0819 72.1541 40.7272 70.0996 39.3329Z" fill="#040A1F" fill-opacity="0.38"/>
</g>
<path opacity="0.2" d="M71.14 39.9146C68.7411 38.1881 65.4568 37.9183 62.731 39.492C59.0233 41.6326 57.753 46.3736 59.8936 50.0813C60.572 51.2563 61.5115 52.1865 62.5965 52.8409C61.7324 52.219 60.9832 51.408 60.4163 50.4262C58.2756 46.7185 59.546 41.9775 63.2537 39.8369C65.7864 38.3746 68.8012 38.504 71.14 39.9146Z" fill="white"/>
<ellipse opacity="0.4" cx="3.10582" cy="2.72098" rx="3.10582" ry="2.72098" transform="matrix(-0.866025 -0.5 -0.5 0.866025 70.1562 47.5537)" fill="url(#paint5_linear_9267_35624)"/>
<path d="M56.2309 75.7207L51.8437 77.6009L49.9634 80.1079L43.0692 81.9882H69.3926L62.4984 80.1079L60.6181 77.6009L56.2309 75.7207Z" fill="#040A1F" fill-opacity="0.87"/>
<path d="M43.0692 81.9882L48.9704 80.3788C49.614 80.2032 50.1807 79.8182 50.581 79.2845L51.3625 78.2425C51.6777 77.8222 52.0978 77.492 52.5807 77.285L55.837 75.8895C56.0885 75.7817 56.3733 75.7817 56.6248 75.8895L59.881 77.285C60.3639 77.492 60.784 77.8222 61.0993 78.2425L61.8808 79.2845C62.281 79.8182 62.8478 80.2032 63.4914 80.3788L69.3926 81.9882" stroke="#040A1F" stroke-opacity="0.87" stroke-width="0.7" stroke-linecap="round" stroke-linejoin="round"/>
<path d="M52.2852 30.2773C50.1378 30.3114 46.236 31.0272 43.1793 33.2757M39.7168 37.5101C40.1869 36.4432 40.8138 35.5235 41.543 34.7329" stroke="white" stroke-width="0.7" stroke-linecap="round" stroke-linejoin="round"/>
<path d="M16.6875 82.0743L26 82.0743M74 82.0742L27.905 82.0743" stroke="#040A1F" stroke-opacity="0.87" stroke-width="0.7" stroke-linecap="round" stroke-linejoin="round"/>
<path d="M30.5775 9.00738L30.1908 11.2474C30.1652 11.3955 30.0359 11.5032 29.8856 11.5016C29.7426 11.5 29.6197 11.3997 29.5895 11.26L28.9642 8.36631C28.8316 7.75256 29.527 7.2996 30.0347 7.66905C30.4556 7.97541 30.6661 8.49429 30.5775 9.00738Z" fill="#FFBB00" fill-opacity="0.6"/>
<path d="M38.381 13.344L33.6449 14.4273C33.495 14.4616 33.3419 14.3848 33.2798 14.2442C33.2096 14.0853 33.2785 13.8995 33.4353 13.8247L37.4795 11.8975C37.9985 11.6503 38.6192 11.8804 38.8514 12.4063C39.0241 12.7973 38.7976 13.2487 38.381 13.344Z" fill="#FFBB00" fill-opacity="0.6"/>
<path d="M34.6339 10.1909L32.9838 11.9365C32.847 12.0811 32.623 12.0987 32.4653 11.9772C32.3289 11.8719 32.2782 11.6892 32.3411 11.5287L33.217 9.29199C33.4248 8.76146 34.0836 8.57888 34.5348 8.92681C34.9354 9.23577 34.9815 9.82323 34.6339 10.1909Z" fill="#FFBB00" fill-opacity="0.6"/>
<path d="M28.4876 38.4268C34.9436 34.6992 37.1555 26.4434 33.4282 19.987C29.7008 13.5306 21.4455 11.3185 14.9895 15.0461C8.53354 18.7737 6.32155 27.0295 10.0489 33.4859C13.7763 39.9423 22.0316 42.1545 28.4876 38.4268Z" fill="url(#paint6_linear_9267_35624)"/>
<path d="M28.4876 38.4268C34.9436 34.6992 37.1555 26.4434 33.4282 19.987C29.7008 13.5306 21.4455 11.3185 14.9895 15.0461C8.53354 18.7737 6.32155 27.0295 10.0489 33.4859C13.7763 39.9423 22.0316 42.1545 28.4876 38.4268Z" fill="url(#paint7_linear_9267_35624)"/>
<g style="mix-blend-mode:overlay">
<path fill-rule="evenodd" clip-rule="evenodd" d="M34.4031 31.4692C33.2724 33.2627 31.7013 34.8153 29.7375 35.949C23.2814 39.6761 15.0261 37.4643 11.2986 31.0088C9.18469 27.3476 8.98112 23.1078 10.3787 19.4434C7.79208 23.546 7.51002 28.9089 10.1036 33.4008C13.831 39.8563 22.0864 42.0681 28.5425 38.341C31.3371 36.7277 33.3365 34.2661 34.4031 31.4692Z" fill="#040A1F" fill-opacity="0.6"/>
</g>
<path d="M33.4282 19.987C37.1555 26.4434 34.9436 34.6992 28.4876 38.4268C22.0316 42.1545 13.7763 39.9423 10.0489 33.4859C6.32155 27.0295 8.53354 18.7737 14.9895 15.0461C21.4455 11.3185 29.7008 13.5306 33.4282 19.987Z" stroke="#040A1F" stroke-opacity="0.38" stroke-width="0.83658" stroke-linecap="round" stroke-linejoin="round"/>
<path d="M27.3064 30.5332C27.5248 31.6933 26.7614 32.8109 25.6014 33.0293C24.4413 33.2477 23.3239 32.4843 23.1055 31.3242" stroke="#FFBB00" stroke-width="1.1311" stroke-linecap="round" stroke-linejoin="round"/>
<g filter="url(#filter0_d_9267_35624)">
<path d="M17.0812 23.6417C17.1193 23.2432 17.6325 23.1071 17.863 23.4344L19.01 25.0634C19.0824 25.1663 19.1962 25.2324 19.3215 25.2444L21.3046 25.4339C21.7031 25.472 21.8391 25.9852 21.5119 26.2157L19.883 27.3628C19.7801 27.4352 19.714 27.549 19.702 27.6743L19.5125 29.6576C19.4744 30.0561 18.9612 30.1921 18.7308 29.8648L17.5837 28.2359C17.5113 28.133 17.3975 28.0669 17.2722 28.0549L15.2891 27.8653C14.8907 27.8272 14.7546 27.314 15.0819 27.0835L16.7107 25.9365C16.8136 25.864 16.8797 25.7502 16.8917 25.6249L17.0812 23.6417Z" fill="#FFBB00"/>
<path d="M17.7068 23.5444L18.8539 25.1733C18.9584 25.3218 19.1226 25.4172 19.3033 25.4345L21.2865 25.624C21.5084 25.6452 21.5843 25.9312 21.4019 26.0596L19.7731 27.2067C19.6246 27.3112 19.5292 27.4754 19.5119 27.6561L19.3224 29.6394C19.3012 29.8614 19.0153 29.9372 18.8869 29.7549L17.7399 28.1259C17.6353 27.9775 17.4712 27.8821 17.2904 27.8648L15.3073 27.6752C15.0853 27.654 15.0095 27.3681 15.1918 27.2397L16.8207 26.0926C16.9691 25.988 17.0645 25.8238 17.0818 25.6431L17.2713 23.6598C17.2926 23.4378 17.5785 23.362 17.7068 23.5444Z" stroke="url(#paint8_linear_9267_35624)" stroke-opacity="0.05" stroke-width="0.381925"/>
</g>
<g filter="url(#filter1_d_9267_35624)">
<path d="M26.8898 20.67C26.9279 20.2715 27.4411 20.1355 27.6716 20.4627L28.8186 22.0917C28.891 22.1946 29.0048 22.2607 29.1301 22.2727L31.1132 22.4622C31.5117 22.5003 31.6477 23.0136 31.3205 23.244L29.6916 24.3911C29.5887 24.4636 29.5226 24.5774 29.5106 24.7026L29.3211 26.6859C29.283 27.0844 28.7698 27.2204 28.5393 26.8931L27.3923 25.2642C27.3199 25.1613 27.2061 25.0952 27.0808 25.0832L25.0977 24.8936C24.6992 24.8556 24.5632 24.3423 24.8905 24.1119L26.5193 22.9648C26.6222 22.8923 26.6883 22.7785 26.7003 22.6532L26.8898 20.67Z" fill="#FFBB00"/>
<path d="M27.5154 20.5727L28.6624 22.2016C28.767 22.3501 28.9312 22.4455 29.1119 22.4628L31.0951 22.6523C31.317 22.6736 31.3928 22.9595 31.2105 23.0879L29.5816 24.235C29.4332 24.3395 29.3378 24.5037 29.3205 24.6845L29.131 26.6677C29.1098 26.8898 28.8239 26.9655 28.6955 26.7832L27.5485 25.1542C27.4439 25.0058 27.2798 24.9104 27.099 24.8931L25.1159 24.7035C24.8939 24.6823 24.8181 24.3964 25.0004 24.268L26.6293 23.1209C26.7777 23.0164 26.8731 22.8522 26.8904 22.6714L27.0799 20.6881C27.1012 20.4661 27.3871 20.3904 27.5154 20.5727Z" stroke="url(#paint9_linear_9267_35624)" stroke-opacity="0.05" stroke-width="0.381925"/>
</g>
<path d="M57 25.5V22.5" stroke="#040A1F" stroke-opacity="0.87" stroke-width="0.7" stroke-linecap="round" stroke-linejoin="round"/>
<defs>
<filter id="filter0_d_9267_35624" x="12.3523" y="21.9779" width="11.8892" height="11.8892" filterUnits="userSpaceOnUse" color-interpolation-filters="sRGB">
<feFlood flood-opacity="0" result="BackgroundImageFix"/>
<feColorMatrix in="SourceAlpha" type="matrix" values="0 0 0 0 0 0 0 0 0 0 0 0 0 0 0 0 0 0 127 0" result="hardAlpha"/>
<feOffset dy="1.27308"/>
<feGaussianBlur stdDeviation="1.27308"/>
<feComposite in2="hardAlpha" operator="out"/>
<feColorMatrix type="matrix" values="0 0 0 0 1 0 0 0 0 1 0 0 0 0 1 0 0 0 0.45 0"/>
<feBlend mode="normal" in2="BackgroundImageFix" result="effect1_dropShadow_9267_35624"/>
<feBlend mode="normal" in="SourceGraphic" in2="effect1_dropShadow_9267_35624" result="shape"/>
</filter>
<filter id="filter1_d_9267_35624" x="22.1609" y="19.0062" width="11.8892" height="11.8892" filterUnits="userSpaceOnUse" color-interpolation-filters="sRGB">
<feFlood flood-opacity="0" result="BackgroundImageFix"/>
<feColorMatrix in="SourceAlpha" type="matrix" values="0 0 0 0 0 0 0 0 0 0 0 0 0 0 0 0 0 0 127 0" result="hardAlpha"/>
<feOffset dy="1.27308"/>
<feGaussianBlur stdDeviation="1.27308"/>
<feComposite in2="hardAlpha" operator="out"/>
<feColorMatrix type="matrix" values="0 0 0 0 1 0 0 0 0 1 0 0 0 0 1 0 0 0 0.45 0"/>
<feBlend mode="normal" in2="BackgroundImageFix" result="effect1_dropShadow_9267_35624"/>
<feBlend mode="normal" in="SourceGraphic" in2="effect1_dropShadow_9267_35624" result="shape"/>
</filter>
<linearGradient id="paint0_linear_9267_35624" x1="3.31676" y1="0" x2="3.31676" y2="4.97514" gradientUnits="userSpaceOnUse">
<stop stop-color="white"/>
<stop offset="1" stop-color="white"/>
</linearGradient>
<linearGradient id="paint1_linear_9267_35624" x1="2.34286" y1="0" x2="2.34286" y2="3.05119" gradientUnits="userSpaceOnUse">
<stop stop-color="white"/>
<stop offset="1" stop-color="white"/>
</linearGradient>
<linearGradient id="paint2_linear_9267_35624" x1="0.626364" y1="0" x2="0.626364" y2="1.3542" gradientUnits="userSpaceOnUse">
<stop stop-color="white"/>
<stop offset="1" stop-color="white"/>
</linearGradient>
<linearGradient id="paint3_linear_9267_35624" x1="51.3133" y1="58.7695" x2="47.5125" y2="36.5793" gradientUnits="userSpaceOnUse">
<stop stop-color="white"/>
<stop offset="1" stop-color="white" stop-opacity="0"/>
</linearGradient>
<linearGradient id="paint4_linear_9267_35624" x1="66.7032" y1="38.5518" x2="66.7032" y2="54.0556" gradientUnits="userSpaceOnUse">
<stop stop-color="#C8C8C8"/>
<stop offset="1" stop-color="#888888"/>
</linearGradient>
<linearGradient id="paint5_linear_9267_35624" x1="3.10582" y1="0" x2="3.10582" y2="5.44197" gradientUnits="userSpaceOnUse">
<stop stop-color="white"/>
<stop offset="1" stop-color="white"/>
</linearGradient>
<linearGradient id="paint6_linear_9267_35624" x1="32.9999" y1="62.8298" x2="7.18358" y2="19.4015" gradientUnits="userSpaceOnUse">
<stop stop-color="#FFBB00"/>
<stop offset="1" stop-color="#FFEAAF"/>
</linearGradient>
<linearGradient id="paint7_linear_9267_35624" x1="32.9999" y1="62.8298" x2="7.18358" y2="19.4015" gradientUnits="userSpaceOnUse">
<stop stop-color="#FFBB00"/>
<stop offset="1" stop-color="#FFEAAF"/>
</linearGradient>
<linearGradient id="paint8_linear_9267_35624" x1="18.3811" y1="28.7152" x2="20.2653" y2="19.2941" gradientUnits="userSpaceOnUse">
<stop stop-color="#767FB7"/>
<stop offset="0.980284" stop-color="#1B2FA9"/>
</linearGradient>
<linearGradient id="paint9_linear_9267_35624" x1="27.5929" y1="26.7593" x2="29.4772" y2="17.3382" gradientUnits="userSpaceOnUse">
<stop stop-color="#767FB7"/>
<stop offset="0.980284" stop-color="#1B2FA9"/>
</linearGradient>
</defs>
</svg>
