<svg width="56" height="56" viewBox="0 0 56 56" fill="none" xmlns="http://www.w3.org/2000/svg">
<path d="M8.91305 13.8617C14.9098 3.47503 28.1912 -0.0837212 38.578 5.91305C48.9647 11.9098 52.5234 25.1912 46.5266 35.578C40.5299 45.9647 27.2484 49.5234 16.8617 43.5266C6.47503 37.5299 2.91628 24.2484 8.91305 13.8617Z" fill="url(#paint0_linear_8968_23226)"/>
<g style="mix-blend-mode:overlay" opacity="0.5">
<path fill-rule="evenodd" clip-rule="evenodd" d="M11.4883 39.1526C12.9947 40.8466 14.794 42.3317 16.8648 43.5272C27.2515 49.524 40.5329 45.9652 46.5297 35.5785C51.7781 26.4881 49.7072 15.1805 42.1456 8.47949C48.195 15.2823 49.5189 25.4538 44.7177 33.7698C38.721 44.1565 25.4395 47.7152 15.0528 41.7184C13.7565 40.97 12.5666 40.1081 11.4883 39.1526Z" fill="#040A1F" fill-opacity="0.38"/>
</g>
<path fill-rule="evenodd" clip-rule="evenodd" d="M38.578 5.91305C28.1912 -0.0837212 14.9098 3.47503 8.91305 13.8617C3.67038 22.9423 5.7311 34.2354 13.2727 40.939C7.24062 34.1363 5.92494 23.9782 10.7208 15.6716C16.7175 5.28488 29.999 1.72613 40.3857 7.7229C41.6918 8.477 42.89 9.3463 43.9748 10.3105C42.4643 8.60707 40.658 7.11398 38.578 5.91305Z" fill="white"/>
<path d="M8.91305 13.8617C14.9098 3.47503 28.1912 -0.0837213 38.578 5.91305C48.9647 11.9098 52.5234 25.1912 46.5266 35.578C40.5299 45.9647 27.2484 49.5234 16.8617 43.5266C6.47503 37.5299 2.91628 24.2484 8.91305 13.8617Z" stroke="url(#paint1_linear_8968_23226)" stroke-width="0.5" stroke-linecap="round" stroke-linejoin="round"/>
<g opacity="0.4">
<path d="M41.8381 30.9594C38.0306 30.9594 34.9441 27.8728 34.9441 24.0654C34.9441 20.258 38.0306 17.1714 41.8381 17.1714C45.6455 17.1714 48.7321 20.258 48.7321 24.0654C48.7321 27.8728 45.6455 30.9594 41.8381 30.9594Z" fill="#259DFF"/>
<path d="M41.8381 30.9594C38.0306 30.9594 34.9441 27.8728 34.9441 24.0654C34.9441 20.258 38.0306 17.1714 41.8381 17.1714C45.6455 17.1714 48.7321 20.258 48.7321 24.0654C48.7321 27.8728 45.6455 30.9594 41.8381 30.9594Z" fill="#259DFF"/>
<path d="M34.9441 24.0654C34.9441 27.8728 38.0306 30.9594 41.8381 30.9594C45.6455 30.9594 48.7321 27.8728 48.7321 24.0654C48.7321 20.258 45.6455 17.1714 41.8381 17.1714C38.0306 17.1714 34.9441 20.258 34.9441 24.0654Z" stroke="url(#paint2_linear_8968_23226)" stroke-width="0.5" stroke-linecap="round" stroke-linejoin="round"/>
<g opacity="0.8">
<path d="M37.2665 28.0881C36.6447 27.6416 36.2832 26.9032 36.4592 26.4387C36.6351 25.9743 37.2818 25.9597 37.9036 26.4062C38.5254 26.8527 38.8869 27.5911 38.7109 28.0556C38.535 28.52 37.8883 28.5346 37.2665 28.0881Z" fill="white"/>
<path d="M37.2665 28.0881C36.6447 27.6416 36.2832 26.9032 36.4592 26.4387C36.6351 25.9743 37.2818 25.9597 37.9036 26.4062C38.5254 26.8527 38.8869 27.5911 38.7109 28.0556C38.535 28.52 37.8883 28.5346 37.2665 28.0881Z" fill="white"/>
</g>
<g opacity="0.8">
<path d="M39.199 29.1558C38.9719 29.0252 38.8925 28.7358 39.0216 28.5096C39.1507 28.2833 39.4395 28.2058 39.6667 28.3365C39.8938 28.4671 39.9732 28.7565 39.8441 28.9827C39.715 29.2089 39.4261 29.2864 39.199 29.1558Z" fill="white"/>
<path d="M39.199 29.1558C38.9719 29.0252 38.8925 28.7358 39.0216 28.5096C39.1507 28.2833 39.4395 28.2058 39.6667 28.3365C39.8938 28.4671 39.9732 28.7565 39.8441 28.9827C39.715 29.2089 39.4261 29.2864 39.199 29.1558Z" fill="white"/>
</g>
<g style="mix-blend-mode:overlay" opacity="0.5">
<path fill-rule="evenodd" clip-rule="evenodd" d="M35.6317 27.0797C36.7498 29.3775 39.1071 30.961 41.8343 30.961C45.6417 30.961 48.7283 27.8744 48.7283 24.067C48.7283 22.6372 48.293 21.309 47.5478 20.2078C47.9907 21.118 48.2391 22.1403 48.2391 23.2206C48.2391 27.028 45.1526 30.1146 41.3451 30.1146C38.9675 30.1146 36.871 28.9109 35.6317 27.0797Z" fill="#040A1F" fill-opacity="0.38"/>
</g>
<path opacity="0.2" fill-rule="evenodd" clip-rule="evenodd" d="M36.1709 28.0333C34.6222 25.8981 34.3762 22.9663 35.7802 20.5344C37.684 17.2371 41.9003 16.1073 45.1976 18.0111C46.2347 18.6098 47.0574 19.4374 47.6387 20.3932C47.0876 19.6333 46.3714 18.9744 45.506 18.4747C42.2086 16.571 37.9923 17.7007 36.0886 20.9981C34.7837 23.2583 34.9041 25.9503 36.1709 28.0333Z" fill="white"/>
</g>
<ellipse opacity="0.3" cx="42.204" cy="25.6242" rx="3.61997" ry="2.71498" fill="url(#paint3_linear_8968_23226)"/>
<path d="M28.7948 44.4754C23.7319 44.4754 19.6275 40.3711 19.6275 35.3082C19.6275 30.2452 23.7319 26.1409 28.7948 26.1409C33.8577 26.1409 37.962 30.2452 37.962 35.3082C37.962 40.3711 33.8577 44.4754 28.7948 44.4754Z" fill="url(#paint4_linear_8968_23226)"/>
<path d="M28.7948 44.4754C23.7319 44.4754 19.6275 40.3711 19.6275 35.3082C19.6275 30.2452 23.7319 26.1409 28.7948 26.1409C33.8577 26.1409 37.962 30.2452 37.962 35.3082C37.962 40.3711 33.8577 44.4754 28.7948 44.4754Z" fill="url(#paint5_linear_8968_23226)"/>
<path d="M19.6275 35.3082C19.6275 40.3711 23.7319 44.4754 28.7948 44.4754C33.8577 44.4754 37.962 40.3711 37.962 35.3082C37.962 30.2452 33.8577 26.1409 28.7948 26.1409C23.7319 26.1409 19.6275 30.2452 19.6275 35.3082Z" stroke="url(#paint6_linear_8968_23226)" stroke-width="0.5" stroke-linecap="round" stroke-linejoin="round"/>
<g opacity="0.8">
<path d="M23.144 40.7575C22.6725 40.3702 22.3195 39.8396 22.3555 39.5724C22.3916 39.3052 22.8031 39.4025 23.2746 39.7898C23.7462 40.177 24.0992 40.7076 24.0631 40.9749C24.0271 41.2421 23.6156 41.1448 23.144 40.7575Z" fill="white"/>
<path d="M23.144 40.7575C22.6725 40.3702 22.3195 39.8396 22.3555 39.5724C22.3916 39.3052 22.8031 39.4025 23.2746 39.7898C23.7462 40.177 24.0992 40.7076 24.0631 40.9749C24.0271 41.2421 23.6156 41.1448 23.144 40.7575Z" fill="white"/>
</g>
<g style="mix-blend-mode:overlay" opacity="0.5">
<ellipse cx="28.6792" cy="34.4737" rx="8.64389" ry="4.38476" transform="rotate(177.42 28.6792 34.4737)" fill="#040A1F" fill-opacity="0.38"/>
</g>
<g style="mix-blend-mode:overlay" opacity="0.5">
<path fill-rule="evenodd" clip-rule="evenodd" d="M20.5548 39.3167C22.0423 42.3701 25.1759 44.4742 28.8009 44.4742C33.8638 44.4742 37.9681 40.3699 37.9681 35.3069C37.9681 33.4043 37.3885 31.6371 36.3963 30.1722C36.9863 31.3834 37.3174 32.744 37.3174 34.1819C37.3174 39.2448 33.213 43.3492 28.1501 43.3492C24.9898 43.3492 22.203 41.75 20.5548 39.3167Z" fill="#040A1F" fill-opacity="0.38"/>
</g>
<path opacity="0.2" fill-rule="evenodd" clip-rule="evenodd" d="M21.233 40.5442C19.1994 37.7084 18.8839 33.8312 20.7423 30.6125C23.2737 26.2279 28.8803 24.7256 33.265 27.2571C34.6589 28.0619 35.7616 29.1775 36.5359 30.4658C35.7992 29.4386 34.8371 28.548 33.6712 27.8749C29.2865 25.3434 23.6799 26.8457 21.1485 31.2303C19.4218 34.221 19.5718 37.7801 21.233 40.5442Z" fill="white"/>
<ellipse opacity="0.4" cx="33.6045" cy="31.3515" rx="2.66368" ry="1.73451" transform="rotate(38.2766 33.6045 31.3515)" fill="url(#paint7_linear_8968_23226)"/>
<ellipse opacity="0.4" cx="30.5724" cy="28.481" rx="0.712137" ry="0.76982" transform="rotate(38.2766 30.5724 28.481)" fill="url(#paint8_linear_8968_23226)"/>
<path d="M9.27734 21.0939C9.27734 15.3369 13.9443 10.6699 19.7013 10.6699C25.4583 10.6699 30.1253 15.3369 30.1253 21.0939C30.1253 26.8509 25.4583 31.5178 19.7013 31.5178C13.9443 31.5178 9.27734 26.8509 9.27734 21.0939Z" fill="url(#paint9_linear_8968_23226)"/>
<path d="M9.27734 21.0939C9.27734 15.3369 13.9443 10.6699 19.7013 10.6699C25.4583 10.6699 30.1253 15.3369 30.1253 21.0939C30.1253 26.8509 25.4583 31.5178 19.7013 31.5178C13.9443 31.5178 9.27734 26.8509 9.27734 21.0939Z" fill="url(#paint10_linear_8968_23226)"/>
<path d="M9.27734 21.0939C9.27734 15.3369 13.9443 10.6699 19.7013 10.6699C25.4583 10.6699 30.1253 15.3369 30.1253 21.0939C30.1253 26.8509 25.4583 31.5178 19.7013 31.5178C13.9443 31.5178 9.27734 26.8509 9.27734 21.0939Z" stroke="url(#paint11_linear_8968_23226)" stroke-opacity="0.4" stroke-width="0.5" stroke-linejoin="round"/>
<path d="M9.27734 21.0939C9.27734 15.3369 13.9443 10.6699 19.7013 10.6699C25.4583 10.6699 30.1253 15.3369 30.1253 21.0939C30.1253 26.8509 25.4583 31.5178 19.7013 31.5178C13.9443 31.5178 9.27734 26.8509 9.27734 21.0939Z" stroke="url(#paint12_linear_8968_23226)" stroke-opacity="0.4" stroke-width="0.5" stroke-linejoin="round"/>
<path d="M19.7013 10.6699C13.9443 10.6699 9.27734 15.3369 9.27734 21.0939C9.27734 26.8509 13.9443 31.5178 19.7013 31.5178C25.4583 31.5178 30.1253 26.8509 30.1253 21.0939C30.1253 15.3369 25.4583 10.6699 19.7013 10.6699Z" stroke="url(#paint13_linear_8968_23226)" stroke-width="0.5" stroke-linecap="round" stroke-linejoin="round"/>
<g opacity="0.8">
<path d="M13.6192 14.1766C14.2943 13.2364 15.4109 12.6899 16.1131 12.956C16.8153 13.222 16.8373 14.1998 16.1622 15.14C15.4871 16.0802 14.3706 16.6267 13.6684 16.3607C12.9661 16.0947 12.9441 15.1168 13.6192 14.1766Z" fill="white"/>
<path d="M13.6192 14.1766C14.2943 13.2364 15.4109 12.6899 16.1131 12.956C16.8153 13.222 16.8373 14.1998 16.1622 15.14C15.4871 16.0802 14.3706 16.6267 13.6684 16.3607C12.9661 16.0947 12.9441 15.1168 13.6192 14.1766Z" fill="white"/>
</g>
<g opacity="0.8">
<path d="M12.0061 17.108C12.2037 16.7645 12.6411 16.6444 12.9832 16.8397C13.3253 17.035 13.4425 17.4716 13.245 17.8151C13.0474 18.1585 12.61 18.2786 12.2679 18.0833C11.9258 17.8881 11.8086 17.4514 12.0061 17.108Z" fill="white"/>
<path d="M12.0061 17.108C12.2037 16.7645 12.6411 16.6444 12.9832 16.8397C13.3253 17.035 13.4425 17.4716 13.245 17.8151C13.0474 18.1585 12.61 18.2786 12.2679 18.0833C11.9258 17.8881 11.8086 17.4514 12.0061 17.108Z" fill="white"/>
</g>
<g style="mix-blend-mode:overlay" opacity="0.5">
<path d="M20.2086 11.1403C22.9594 11.0163 25.3875 15.3119 25.6319 20.7347C25.8763 26.1575 23.8444 30.6541 21.0936 30.7781C18.3428 30.902 15.9147 26.6065 15.6703 21.1837C15.4259 15.7608 17.4578 11.2643 20.2086 11.1403Z" fill="#040A1F" fill-opacity="0.38"/>
</g>
<path opacity="0.61" d="M15.1341 11.7211C11.6663 13.4141 9.27734 16.975 9.27734 21.0939C9.27734 26.8509 13.9443 31.5178 19.7013 31.5178C21.8679 31.5179 23.8802 30.8568 25.5474 29.7254C24.1682 30.3988 22.6183 30.7766 20.9802 30.7766C15.2232 30.7766 10.5562 26.1097 10.5562 20.3527C10.5562 16.7623 12.3714 13.5959 15.1341 11.7211Z" fill="url(#paint14_linear_8968_23226)"/>
<path opacity="0.2" d="M13.7361 12.5018C16.9619 10.1801 21.3782 9.81724 25.0436 11.9334C30.0293 14.8119 31.7375 21.1871 28.859 26.1728C27.9468 27.7528 26.6835 29.0037 25.2244 29.8837C26.3864 29.0474 27.3939 27.9569 28.1562 26.6366C31.0347 21.6509 29.3265 15.2757 24.3408 12.3972C20.9351 10.4309 16.881 10.6049 13.7361 12.5018Z" fill="white"/>
<ellipse opacity="0.4" cx="20.5049" cy="23.8559" rx="4.17638" ry="3.6589" transform="rotate(-30 20.5049 23.8559)" fill="url(#paint15_linear_8968_23226)"/>
<path d="M27.9867 46.7245C28.2382 46.6167 28.523 46.6167 28.7745 46.7245L31.4546 47.8731C31.9375 48.0801 32.3576 48.4102 32.6729 48.8305L33.2074 49.5433C33.6077 50.077 34.1745 50.4621 34.8181 50.6376L38.3731 51.6072C38.5982 51.6686 38.5538 52.0001 38.3205 52.0001H18.4407C18.2074 52.0001 18.163 51.6686 18.3881 51.6072L21.9431 50.6376C22.5867 50.4621 23.1535 50.077 23.5537 49.5433L24.0883 48.8305C24.4036 48.4102 24.8237 48.0801 25.3066 47.8731L27.9867 46.7245Z" fill="url(#paint16_linear_8968_23226)"/>
<path d="M27.9867 46.7245C28.2382 46.6167 28.523 46.6167 28.7745 46.7245L31.4546 47.8731C31.9375 48.0801 32.3576 48.4102 32.6729 48.8305L33.2074 49.5433C33.6077 50.077 34.1745 50.4621 34.8181 50.6376L38.3731 51.6072C38.5982 51.6686 38.5538 52.0001 38.3205 52.0001H18.4407C18.2074 52.0001 18.163 51.6686 18.3881 51.6072L21.9431 50.6376C22.5867 50.4621 23.1535 50.077 23.5537 49.5433L24.0883 48.8305C24.4036 48.4102 24.8237 48.0801 25.3066 47.8731L27.9867 46.7245Z" stroke="url(#paint17_linear_8968_23226)" stroke-width="0.5" stroke-linecap="round" stroke-linejoin="round"/>
<path d="M33 8C35.3378 8.5556 39.4292 10.2856 42.2305 13.5M45 19C44.7418 17.7113 44.2769 16.5468 43.6695 15.5" stroke="white" stroke-linecap="round" stroke-linejoin="round"/>
<defs>
<linearGradient id="paint0_linear_8968_23226" x1="27.9118" y1="-0.455431" x2="51.8632" y2="85.418" gradientUnits="userSpaceOnUse">
<stop stop-color="#F1F8FF"/>
<stop offset="1" stop-color="#85C5FF"/>
</linearGradient>
<linearGradient id="paint1_linear_8968_23226" x1="53.4619" y1="93.805" x2="-14.5236" y2="68.9667" gradientUnits="userSpaceOnUse">
<stop stop-color="#1B217C"/>
<stop offset="1" stop-color="#1B217C" stop-opacity="0"/>
</linearGradient>
<linearGradient id="paint2_linear_8968_23226" x1="55.4091" y1="4.99459" x2="32.5192" y2="7.0252" gradientUnits="userSpaceOnUse">
<stop stop-color="#1B217C"/>
<stop offset="1" stop-color="#1B217C" stop-opacity="0"/>
</linearGradient>
<linearGradient id="paint3_linear_8968_23226" x1="42.204" y1="22.9092" x2="42.204" y2="28.3391" gradientUnits="userSpaceOnUse">
<stop stop-color="white"/>
<stop offset="1" stop-color="white"/>
</linearGradient>
<linearGradient id="paint4_linear_8968_23226" x1="40.3422" y1="19.7679" x2="22.8377" y2="45.0536" gradientUnits="userSpaceOnUse">
<stop stop-color="#0592FF"/>
<stop offset="1" stop-color="#DBEEFF"/>
</linearGradient>
<linearGradient id="paint5_linear_8968_23226" x1="40.3422" y1="19.7679" x2="22.8377" y2="45.0536" gradientUnits="userSpaceOnUse">
<stop stop-color="#0592FF"/>
<stop offset="1" stop-color="#DBEEFF"/>
</linearGradient>
<linearGradient id="paint6_linear_8968_23226" x1="46.8407" y1="9.94885" x2="16.4031" y2="12.649" gradientUnits="userSpaceOnUse">
<stop stop-color="#1B217C"/>
<stop offset="1" stop-color="#1B217C" stop-opacity="0"/>
</linearGradient>
<linearGradient id="paint7_linear_8968_23226" x1="33.6045" y1="29.617" x2="33.6045" y2="33.086" gradientUnits="userSpaceOnUse">
<stop stop-color="white"/>
<stop offset="1" stop-color="white"/>
</linearGradient>
<linearGradient id="paint8_linear_8968_23226" x1="30.5724" y1="27.7112" x2="30.5724" y2="29.2508" gradientUnits="userSpaceOnUse">
<stop stop-color="white"/>
<stop offset="1" stop-color="white"/>
</linearGradient>
<linearGradient id="paint9_linear_8968_23226" x1="39.9798" y1="44.0179" x2="1.55763" y2="26.3525" gradientUnits="userSpaceOnUse">
<stop stop-color="#001BC1"/>
<stop offset="1" stop-color="#12B3FD"/>
</linearGradient>
<linearGradient id="paint10_linear_8968_23226" x1="39.9798" y1="44.0179" x2="1.55763" y2="26.3525" gradientUnits="userSpaceOnUse">
<stop stop-color="#001BC1"/>
<stop offset="1" stop-color="#12B3FD"/>
</linearGradient>
<linearGradient id="paint11_linear_8968_23226" x1="40.396" y1="37.8566" x2="45.5069" y2="8.0175" gradientUnits="userSpaceOnUse">
<stop stop-color="white"/>
<stop offset="1" stop-color="white" stop-opacity="0"/>
</linearGradient>
<linearGradient id="paint12_linear_8968_23226" x1="40.396" y1="37.8566" x2="45.5069" y2="8.0175" gradientUnits="userSpaceOnUse">
<stop stop-color="white"/>
<stop offset="1" stop-color="white" stop-opacity="0"/>
</linearGradient>
<linearGradient id="paint13_linear_8968_23226" x1="32.0556" y1="54.2497" x2="-0.572491" y2="42.3292" gradientUnits="userSpaceOnUse">
<stop stop-color="#1B217C"/>
<stop offset="1" stop-color="#1B217C" stop-opacity="0"/>
</linearGradient>
<linearGradient id="paint14_linear_8968_23226" x1="9.29918" y1="19.6294" x2="26.9828" y2="24.3677" gradientUnits="userSpaceOnUse">
<stop stop-color="#73A2FE"/>
<stop offset="1" stop-color="#C1E0FF"/>
</linearGradient>
<linearGradient id="paint15_linear_8968_23226" x1="20.5049" y1="20.197" x2="20.5049" y2="27.5148" gradientUnits="userSpaceOnUse">
<stop stop-color="white"/>
<stop offset="1" stop-color="white"/>
</linearGradient>
<linearGradient id="paint16_linear_8968_23226" x1="46.9068" y1="55.9411" x2="46.4521" y2="44.7588" gradientUnits="userSpaceOnUse">
<stop stop-color="#001BC1"/>
<stop offset="1" stop-color="#12B3FD"/>
</linearGradient>
<linearGradient id="paint17_linear_8968_23226" x1="41.9312" y1="57.9366" x2="29.8389" y2="39.3814" gradientUnits="userSpaceOnUse">
<stop stop-color="#1B217C"/>
<stop offset="1" stop-color="#1B217C" stop-opacity="0"/>
</linearGradient>
</defs>
</svg>
