<svg width="56" height="56" viewBox="0 0 56 56" fill="none" xmlns="http://www.w3.org/2000/svg">
<path opacity="0.06" d="M29.9269 44.9024C28.9016 45.4095 27.6985 45.4095 26.6732 44.9024L16.5891 39.9152C15.338 39.2964 14.5462 38.0215 14.5462 36.6257L14.5462 27.5796C14.5462 26.1838 15.338 24.9089 16.5891 24.2901L26.6732 19.3029C27.6985 18.7958 28.9016 18.7958 29.9269 19.3029L40.011 24.2901C41.2621 24.9089 42.0539 26.1838 42.0539 27.5796L42.0539 36.6257C42.0539 38.0215 41.2621 39.2964 40.011 39.9152L29.9269 44.9024Z" fill="#6E82E9"/>
<path d="M29.0433 50.5054C28.4573 50.8148 27.7561 50.8138 27.1709 50.5029L11.0622 41.9423C10.409 41.5952 10.0007 40.9159 10.0007 40.1762L10.0007 23.706C10.0007 22.9554 10.4209 22.2681 11.089 21.9259L27.1807 13.6842C27.761 13.387 28.4497 13.3913 29.0262 13.6957L44.9338 22.0946C45.5896 22.4409 46 23.1216 46 23.8632L46 40.3468C46 41.0884 45.5896 41.7692 44.9338 42.1154L29.0433 50.5054Z" fill="url(#paint0_linear_8961_78131)"/>
<path d="M29.0433 50.5054C28.4573 50.8148 27.7561 50.8138 27.1709 50.5029L11.0622 41.9423C10.409 41.5952 10.0007 40.9159 10.0007 40.1762L10.0007 23.706C10.0007 22.9554 10.4209 22.2681 11.089 21.9259L27.1807 13.6842C27.761 13.387 28.4497 13.3913 29.0262 13.6957L44.9338 22.0946C45.5896 22.4409 46 23.1216 46 23.8632L46 40.3468C46 41.0884 45.5896 41.7692 44.9338 42.1154L29.0433 50.5054Z" stroke="url(#paint1_linear_8961_78131)" stroke-width="0.5" stroke-linecap="round" stroke-linejoin="round"/>
<path d="M29.462 45.0281C28.6126 45.4564 27.6104 45.4564 26.761 45.0282L15.9154 39.5605C14.9039 39.0506 14.2659 38.0144 14.2659 36.8817L14.2659 27.0149C14.2659 25.8598 14.9291 24.8073 15.9711 24.3087L26.8167 19.1197C27.6354 18.728 28.5875 18.728 29.4062 19.1197L40.2518 24.3087C41.2938 24.8073 41.957 25.8598 41.957 27.0149L41.957 36.8817C41.957 38.0144 41.319 39.0506 40.3075 39.5605L29.462 45.0281Z" fill="url(#paint2_linear_8961_78131)"/>
<g style="mix-blend-mode:overlay">
<path fill-rule="evenodd" clip-rule="evenodd" d="M28.1094 13.6875L28.1094 50.5303C27.5268 50.5233 26.9459 50.3789 26.4166 50.0976L11.9694 42.42C10.7604 41.7776 10.0047 40.5203 10.0047 39.1512L10.0047 24.7442C10.0047 23.3549 10.7825 22.0827 12.019 21.4494L26.3798 14.0942C26.9228 13.8162 27.5169 13.6808 28.1094 13.6875Z" fill="#040A1F" fill-opacity="0.87"/>
</g>
<g style="mix-blend-mode:overlay" opacity="0.5">
<path fill-rule="evenodd" clip-rule="evenodd" d="M28.1008 13.6831C28.684 13.6881 29.2661 13.8309 29.7969 14.1112L44.0146 21.6179C44.2357 21.7346 44.4418 21.8719 44.6309 22.0266L28.1008 31.1631L28.1008 13.6831Z" fill="#040A1F" fill-opacity="0.38"/>
</g>
<g style="mix-blend-mode:overlay" opacity="0.5">
<path fill-rule="evenodd" clip-rule="evenodd" d="M11.5179 21.7663C11.6763 21.6499 11.8451 21.5452 12.0235 21.4539L26.4015 14.0899C26.9377 13.8153 27.5239 13.6797 28.1094 13.683L28.1094 31.1611L11.5179 21.7663Z" fill="#040A1F" fill-opacity="0.38"/>
</g>
<path opacity="0.2" fill-rule="evenodd" clip-rule="evenodd" d="M11.5179 42.1058C11.6763 42.2222 11.8451 42.3268 12.0235 42.4182L26.4015 49.7822C26.9377 50.0568 27.5239 50.1923 28.1094 50.1891L28.1094 32.7109L11.5179 42.1058Z" fill="white"/>
<path opacity="0.2" fill-rule="evenodd" clip-rule="evenodd" d="M28.105 50.5117C28.7018 50.5132 29.299 50.3705 29.8425 50.0835L44.0287 42.5934C44.7593 42.2077 45.3253 41.5977 45.6602 40.874L28.105 31.1594L28.105 50.5117Z" fill="white"/>
<g style="mix-blend-mode:overlay" opacity="0.5">
<path fill-rule="evenodd" clip-rule="evenodd" d="M26.4698 43.7992C27.5006 44.3189 28.7159 44.3232 29.7505 43.8109L39.1917 39.1351C40.4419 38.516 41.2329 37.2416 41.2329 35.8466L41.2328 26.8568C41.2328 25.8881 40.8517 24.9791 40.2022 24.3066C41.2821 24.9688 41.9528 26.1499 41.9528 27.4347L41.9528 36.467C41.9528 37.8526 41.1724 39.1201 39.9351 39.7439L29.7593 44.8739C28.7202 45.3977 27.4943 45.3977 26.4553 44.8739L16.2795 39.7439C15.0422 39.1201 14.2617 37.8526 14.2617 36.467V36.4264C14.5602 37.3473 15.2158 38.1257 16.1008 38.5718L26.4698 43.7992Z" fill="#424242"/>
</g>
<g style="mix-blend-mode:overlay" opacity="0.5">
<path d="M29.9645 19.3898C29.294 19.2355 28.5855 19.306 27.9489 19.6019L16.8855 24.7449C15.7579 25.2691 15.0345 26.4143 15.0345 27.6754L15.0345 37.185C15.0345 38.2034 15.5064 39.1478 16.2843 39.7496L16.0227 39.6177C14.9441 39.0739 14.2617 37.9552 14.2617 36.7307V27.1708C14.2617 25.9224 14.9706 24.7864 16.0811 24.2551L26.7591 19.1462C27.613 18.7377 28.6015 18.7377 29.4554 19.1462L29.9645 19.3898Z" fill="#424242"/>
</g>
<path d="M28.403 37.401C28.3354 37.5672 28.1 37.5672 28.0324 37.401L26.6665 34.0429C26.6478 33.9971 26.6129 33.9598 26.5683 33.9382L22.739 32.085C22.5885 32.0122 22.5885 31.7978 22.739 31.725L26.5683 29.8718C26.6129 29.8502 26.6478 29.813 26.6665 29.7671L28.0324 26.409C28.1 26.2428 28.3354 26.2428 28.403 26.409L29.769 29.7671C29.7876 29.813 29.8226 29.8502 29.8671 29.8718L33.6964 31.725C33.8469 31.7978 33.8469 32.0122 33.6964 32.085L29.8671 33.9382C29.8226 33.9598 29.7876 33.9971 29.769 34.0429L28.403 37.401Z" fill="url(#paint3_linear_8961_78131)" stroke="url(#paint4_linear_8961_78131)" stroke-opacity="0.4" stroke-width="0.5" stroke-linejoin="round"/>
<path d="M28.403 37.401C28.3354 37.5672 28.1 37.5672 28.0324 37.401L26.6665 34.0429C26.6478 33.9971 26.6129 33.9598 26.5683 33.9382L22.739 32.085C22.5885 32.0122 22.5885 31.7978 22.739 31.725L26.5683 29.8718C26.6129 29.8502 26.6478 29.813 26.6665 29.7671L28.0324 26.409C28.1 26.2428 28.3354 26.2428 28.403 26.409L29.769 29.7671C29.7876 29.813 29.8226 29.8502 29.8671 29.8718L33.6964 31.725C33.8469 31.7978 33.8469 32.0122 33.6964 32.085L29.8671 33.9382C29.8226 33.9598 29.7876 33.9971 29.769 34.0429L28.403 37.401Z" stroke="url(#paint5_linear_8961_78131)" stroke-width="0.5" stroke-linecap="round" stroke-linejoin="round"/>
<path fill-rule="evenodd" clip-rule="evenodd" d="M26.4516 44.8767C27.4907 45.4005 28.7166 45.4005 29.7556 44.8767L39.9314 39.7467C41.1687 39.1229 41.9492 37.8554 41.9492 36.4698L41.9492 27.4375C41.9492 26.2613 41.3871 25.1721 40.4635 24.4883C41.7621 25.088 42.5943 26.388 42.5946 27.8192L42.5963 37.2261C42.5965 38.6488 41.7744 39.9434 40.4867 40.5483L29.6722 45.6281C28.6839 46.0923 27.5403 46.0923 26.552 45.6282L15.7348 40.548C14.4472 39.9433 13.625 38.6489 13.625 37.2263V27.82C13.625 26.401 14.4429 25.1108 15.7223 24.5042C14.8115 25.189 14.258 26.2704 14.258 27.4375L14.258 36.4698C14.258 37.8554 15.0385 39.1229 16.2758 39.7467L26.4516 44.8767Z" fill="white"/>
<path d="M29.462 45.0281C28.6126 45.4564 27.6104 45.4564 26.761 45.0282L15.9154 39.5605C14.9039 39.0506 14.2659 38.0144 14.2659 36.8817L14.2659 27.0149C14.2659 25.8598 14.9291 24.8073 15.9711 24.3087L26.8167 19.1197C27.6354 18.728 28.5875 18.728 29.4062 19.1197L40.2518 24.3087C41.2938 24.8073 41.957 25.8598 41.957 27.0149L41.957 36.8817C41.957 38.0144 41.319 39.0506 40.3075 39.5605L29.462 45.0281Z" stroke="url(#paint6_linear_8961_78131)" stroke-width="0.5" stroke-linecap="round" stroke-linejoin="round"/>
<path fill-rule="evenodd" clip-rule="evenodd" d="M19.4965 17.6156L26.3925 14.0837C27.4665 13.5336 28.7412 13.5416 29.8083 14.105L36.7232 17.7559C37.0091 17.4017 37.1669 16.9587 37.1669 16.4997V13.2233V6.52539C37.1669 5.69694 36.4953 5.02536 35.6669 5.02539L20.541 5.02588C19.7126 5.02591 19.041 5.69747 19.041 6.52588V13.1251V16.345C19.041 16.8104 19.2032 17.2592 19.4965 17.6156Z" fill="url(#paint7_linear_8961_78131)"/>
<path d="M37.1669 16.5071V6.52539C37.1669 5.69694 36.4868 5.02536 35.6477 5.02539L20.5601 5.02588C19.7211 5.02591 19.041 5.69747 19.041 6.52588V16.3524" stroke="url(#paint8_linear_8961_78131)" stroke-width="0.5" stroke-linecap="round" stroke-linejoin="round"/>
<g style="mix-blend-mode:overlay">
<path fill-rule="evenodd" clip-rule="evenodd" d="M19.0435 15.8203L26.4885 12.0073C27.5039 11.4872 28.7092 11.4947 29.7181 12.0274L37.1674 15.9604V16.5791C37.1508 17.0105 36.9951 17.424 36.7252 17.7584L29.8103 14.1075C29.6576 14.0268 29.5006 13.9576 29.3406 13.8997C28.553 13.5967 27.6817 13.5886 26.889 13.8766C26.7206 13.934 26.5553 14.0039 26.3944 14.0862L19.4985 17.6181C19.2052 17.2617 19.043 16.8129 19.043 16.3475V13.1276V6.52839C19.043 6.51498 19.0431 6.50161 19.0435 6.48828V15.8203Z" fill="#040A1F" fill-opacity="0.87"/>
</g>
<path opacity="0.1" fill-rule="evenodd" clip-rule="evenodd" d="M23.781 15.4202L22.0547 16.3043V16.303L23.781 15.4188V15.4202ZM23.781 13.387L22.0547 14.2712V5.0274L23.781 5.02734V13.387Z" fill="white"/>
<path opacity="0.1" fill-rule="evenodd" clip-rule="evenodd" d="M32.418 13.4492L34.1442 14.3606V5.02344H32.418V13.4492Z" fill="white"/>
<path opacity="0.1" d="M29.1754 5V11.4181C28.4893 11.2586 27.761 11.2544 27.0723 11.406V5.00005L29.1754 5Z" fill="white"/>
<defs>
<linearGradient id="paint0_linear_8961_78131" x1="14.0006" y1="-4.98505" x2="36.1618" y2="53.9967" gradientUnits="userSpaceOnUse">
<stop stop-color="#0592FF"/>
<stop offset="1" stop-color="#DBEEFF"/>
</linearGradient>
<linearGradient id="paint1_linear_8961_78131" x1="6.66744" y1="-27.9948" x2="63.6289" y2="-8.17025" gradientUnits="userSpaceOnUse">
<stop stop-color="#1B217C"/>
<stop offset="1" stop-color="#1B217C" stop-opacity="0"/>
</linearGradient>
<linearGradient id="paint2_linear_8961_78131" x1="27.9891" y1="47.8733" x2="13.2115" y2="-6.04847" gradientUnits="userSpaceOnUse">
<stop stop-color="#F1F8FF"/>
<stop offset="1" stop-color="#85C5FF"/>
</linearGradient>
<linearGradient id="paint3_linear_8961_78131" x1="18.7375" y1="17.3375" x2="22.867" y2="41.1079" gradientUnits="userSpaceOnUse">
<stop stop-color="#001BC1"/>
<stop offset="1" stop-color="#12B3FD"/>
</linearGradient>
<linearGradient id="paint4_linear_8961_78131" x1="22.1374" y1="18.0183" x2="39.0576" y2="19.5557" gradientUnits="userSpaceOnUse">
<stop stop-color="white"/>
<stop offset="1" stop-color="white" stop-opacity="0"/>
</linearGradient>
<linearGradient id="paint5_linear_8961_78131" x1="28.2819" y1="40.1867" x2="28.2819" y2="24.7055" gradientUnits="userSpaceOnUse">
<stop stop-color="#1B217C"/>
<stop offset="1" stop-color="#1B217C" stop-opacity="0"/>
</linearGradient>
<linearGradient id="paint6_linear_8961_78131" x1="11.7019" y1="-11.1673" x2="54.8582" y2="4.87925" gradientUnits="userSpaceOnUse">
<stop stop-color="#1B217C"/>
<stop offset="1" stop-color="#1B217C" stop-opacity="0"/>
</linearGradient>
<linearGradient id="paint7_linear_8961_78131" x1="42.7893" y1="26.9709" x2="39.6924" y2="1.1521" gradientUnits="userSpaceOnUse">
<stop stop-color="#001BC1"/>
<stop offset="1" stop-color="#12B3FD"/>
</linearGradient>
<linearGradient id="paint8_linear_8961_78131" x1="38.8452" y1="30.6814" x2="13.9409" y2="17.2441" gradientUnits="userSpaceOnUse">
<stop stop-color="#1B217C"/>
<stop offset="1" stop-color="#1B217C" stop-opacity="0"/>
</linearGradient>
</defs>
</svg>
