<svg width="89" height="72" viewBox="0 0 89 72" fill="none" xmlns="http://www.w3.org/2000/svg">
<path d="M43.9145 40.0037C40.4036 41.1236 38.648 39.3038 40.2572 37.344C40.9887 36.504 43.3293 34.8242 44.3533 36.644C44.3533 36.644 44.4997 36.784 44.4997 37.064C44.4997 37.204 44.6459 37.204 44.6459 37.344C44.6459 37.344 44.6459 37.344 44.6459 37.4839C44.9385 38.0439 44.9385 39.0238 43.9145 40.0037ZM49.1809 29.5047C48.8883 27.265 48.1568 27.545 47.1329 29.0848C46.2551 30.3447 45.9625 31.1846 46.1088 31.8845C46.2551 33.0044 46.4014 33.7043 46.4014 33.7043C43.6219 29.6448 37.624 33.0044 35.576 39.0238C33.8205 44.4832 39.9647 44.2033 39.9647 44.2033C39.9647 44.2033 36.3074 47.7029 28.4078 47.5629C23.7265 47.5629 21.9711 45.7431 21.3859 44.9032C20.5081 43.3634 19.923 44.3433 20.0693 45.6031C20.0693 46.0231 20.2156 46.443 20.0693 47.143C19.923 48.8228 21.0933 50.0827 22.4099 50.7826C26.3598 52.6024 32.9428 52.6024 39.5258 49.1028C44.2071 46.583 47.8643 42.5235 48.8883 36.504C49.3272 34.9642 49.6198 32.1645 49.1809 29.5047Z" fill="#BDBDBD"/>
<path d="M73.1721 40.281C62.3467 45.7405 56.7878 41.2609 56.7878 41.2609C60.8839 34.5417 71.4167 29.3622 77.4147 30.762C80.1938 31.4619 82.535 35.5216 73.1721 40.281ZM82.2419 31.4619C81.9495 27.6823 78.7312 26.1425 75.9514 26.0025C62.2005 25.8625 54.5934 38.6012 54.5934 38.6012C51.6676 35.5216 52.8379 29.0822 53.4231 27.4024C54.0082 25.8625 52.8379 25.1626 52.1065 26.9824C48.3029 36.5014 52.2528 43.3607 52.2528 43.3607C52.2528 43.3607 50.7899 46.4404 50.6436 49.6601C50.6436 51.1999 51.5213 51.8999 52.8379 51.8999C54.7397 51.8999 55.1786 49.8 54.4471 48.6802C53.862 47.7003 54.7397 45.7405 54.7397 45.7405C54.7397 45.7405 60.8839 50.5 72.2944 45.1805C79.609 41.6809 82.535 35.2415 82.2419 31.4619Z" fill="#BDBDBD"/>
<path d="M40.7008 27.1254C41.4322 27.5453 42.0174 27.8253 42.31 27.8253C43.0414 27.9653 43.6265 27.6853 44.0654 27.2654C44.9431 26.4255 44.7969 24.7456 43.3339 24.6056C42.8951 24.6056 42.4562 24.6056 42.1636 25.0256C43.3339 24.4657 44.358 25.5855 43.7728 26.5654C43.4803 26.9854 43.0414 27.2654 42.4562 27.1254C41.4322 26.9854 40.847 26.0055 41.1396 25.1656C41.4322 24.1857 42.6025 23.7657 43.4803 23.9057C45.382 24.1857 45.382 26.1455 45.2357 26.5654C45.0895 27.2654 44.6505 27.8253 44.0654 28.1053C41.7248 29.0852 40.7008 27.1254 40.7008 27.1254ZM42.0174 29.3652C44.0654 29.6451 46.1135 28.2453 46.2597 26.4255C46.5523 24.7456 45.382 23.9057 44.9431 23.6257C44.6505 23.4858 44.2117 23.3458 43.7728 23.2058C42.31 23.0658 40.847 23.9057 40.5545 25.1656C40.5545 25.5855 40.5545 25.8655 40.7008 26.2855C39.6767 24.6056 41.2859 22.7858 42.6025 22.5059C40.847 22.6458 39.2378 23.7657 38.9453 25.4456V25.5855C38.9453 25.5855 38.9453 25.5855 38.9453 25.7255C38.9453 26.0055 38.9453 26.4255 39.0916 26.8454C39.3842 28.2453 40.5545 29.2251 42.0174 29.3652Z" fill="#BDBDBD"/>
<path d="M62.7767 25.7222C62.7767 27.402 61.1675 28.8019 59.412 28.6618C57.5103 28.6618 56.0474 27.262 56.1937 25.5822C56.1937 23.9023 57.6565 22.5025 59.5583 22.6425C61.4601 22.6425 62.923 24.0423 62.7767 25.7222Z" fill="#BDBDBD"/>
<path d="M31.7753 26.7054C34.1159 25.8655 35.2862 26.2855 34.4085 27.4054C33.677 28.2452 30.0199 28.9452 28.4107 28.3852C29.5809 27.5453 30.8976 26.9854 31.7753 26.7054ZM25.4849 30.205C26.07 31.8849 29.2884 31.8849 31.7753 32.0249C34.7011 32.0249 37.188 30.905 37.188 28.6652C37.188 26.4255 35.7251 22.5059 32.5068 22.5059C29.4347 22.5059 24.4608 25.3056 21.0962 28.8052C19.6333 30.205 18.6093 31.7449 18.0241 33.1448C17.7315 33.7047 17.4389 34.5446 17.4389 35.5245C17.4389 36.9244 18.463 38.1842 22.1202 37.6243C31.0439 36.2244 31.1901 37.0644 31.1901 37.0644C31.1901 37.0644 22.559 42.8038 15.2446 40.844C9.10046 39.3041 11.4411 31.185 16.2686 26.5654C17.8778 24.7456 16.8538 24.0457 14.952 25.5855C12.904 27.4054 9.8319 30.4851 9.24675 35.6645C8.36901 43.2237 13.3428 44.9036 16.5612 45.3235C22.1202 46.0235 27.3866 43.2237 29.2884 42.2439C30.4587 41.6839 34.8474 39.5841 34.5548 35.1046C34.4085 32.5848 30.8976 32.4448 25.4849 33.4247C21.6813 33.9847 21.2425 33.7047 21.2425 33.7047C21.8277 32.5848 23.4368 31.325 25.4849 30.205Z" fill="#BDBDBD"/>
</svg>
