<svg width="89" height="72" viewBox="0 0 89 72" fill="none" xmlns="http://www.w3.org/2000/svg">
<g clip-path="url(#clip0_10169_87896)">
<path d="M36.7261 29.8516H29.8438V32.6061H36.7261V29.8516Z" fill="#BDBDBD"/>
<path d="M33.288 24.9688L31.5352 26.7208L33.288 28.4729L35.0409 26.7208L33.288 24.9688Z" fill="#BDBDBD"/>
<path d="M11.6513 46.0059L9.89844 47.7579L11.6513 49.51L13.4042 47.7579L11.6513 46.0059Z" fill="#BDBDBD"/>
<path d="M37.4115 34.6237V40.8669H36.036C35.6711 40.8661 35.3215 40.7208 35.0637 40.4628C34.8058 40.2048 34.6609 39.8551 34.6604 39.4905V36.0462L31.9039 36.736V39.4944C31.8919 39.8508 31.7418 40.1886 31.4853 40.4365C31.2288 40.6844 30.886 40.823 30.5292 40.823C30.1724 40.823 29.8295 40.6844 29.5731 40.4365C29.3166 40.1886 29.1665 39.8508 29.1544 39.4944V36.0462L26.4042 36.736V38.1132C26.4042 38.4741 26.333 38.8314 26.1949 39.1648C26.0568 39.4982 25.8543 39.8011 25.599 40.0563C25.3437 40.3114 25.0406 40.5138 24.7071 40.6519C24.3735 40.79 24.0161 40.8611 23.6551 40.8611C23.294 40.8611 22.9366 40.79 22.603 40.6519C22.2695 40.5138 21.9664 40.3114 21.7112 40.0563C21.4559 39.8011 21.2534 39.4982 21.1152 39.1648C20.9771 38.8314 20.9059 38.4741 20.9059 38.1132V34.6682H20.8927L18.1494 35.3619V35.6347C18.1476 37.0203 17.597 38.3487 16.6179 39.3296C15.6389 40.3106 14.3112 40.8641 12.9249 40.8693H4.0932L3.38672 43.6268H12.9273C14.063 43.6278 15.1857 43.3853 16.2197 42.9158C17.2537 42.4463 18.1749 41.7606 18.9214 40.9051C19.3346 41.6162 19.9026 42.2252 20.5833 42.6869C21.264 43.1486 22.04 43.4513 22.8537 43.5724C23.6674 43.6936 24.4979 43.6301 25.2837 43.3866C26.0695 43.1432 26.7904 42.7261 27.3929 42.1662C27.7397 42.5799 28.1647 42.9211 28.6438 43.1702C29.1228 43.4193 29.6463 43.5713 30.1843 43.6176C30.7223 43.6639 31.2641 43.6035 31.7787 43.4399C32.2932 43.2763 32.7704 43.0127 33.1828 42.6643L33.2989 42.5637C34.0518 43.2465 35.0319 43.6249 36.0484 43.6253H40.1695V33.9355L37.4115 34.6237Z" fill="#BDBDBD"/>
<path d="M64.7952 50.8781C63.0126 51.268 61.1706 51.3017 59.3749 50.9772C57.5792 50.6527 55.8655 49.9764 54.3327 48.9873C52.7998 47.9982 51.4775 46.7157 50.4423 45.2138C49.4075 43.7118 48.6797 42.0201 48.3012 40.2359C47.505 36.6318 48.1693 32.8592 50.1488 29.7436C52.1282 26.6279 55.262 24.4228 58.8641 23.6108C60.818 23.174 62.8442 23.174 64.7981 23.6108C61.7061 24.3136 58.9444 26.0456 56.9663 28.5229C54.9881 31.0003 53.9103 34.0759 53.9103 37.2456C53.9103 40.4153 54.9881 43.4909 56.9663 45.9683C58.9444 48.4456 61.7061 50.1777 64.7981 50.8804L64.7952 50.8781Z" fill="#BDBDBD"/>
<path d="M75.64 37.2384C75.6434 39.8637 74.9076 42.4368 73.5168 44.6639C72.1264 46.8909 70.1368 48.6819 67.7758 49.8323C64.4553 48.2066 61.9106 45.3368 60.6947 41.8465C59.4787 38.3562 59.69 34.5273 61.282 31.1917C62.6371 28.3337 64.9279 26.0239 67.7754 24.6445C70.1364 25.7948 72.1256 27.5858 73.5164 29.8128C74.9072 32.0399 75.6434 34.6131 75.64 37.2384Z" fill="#BDBDBD"/>
<path d="M81.6047 37.2379C81.6115 40.407 80.5388 43.484 78.5637 45.9629C76.5885 48.4418 73.8281 50.1752 70.7365 50.8778C67.9166 50.2258 65.3676 48.7166 63.4409 46.5576C61.5142 44.3987 60.3037 41.6962 59.9767 38.8217C59.6492 35.9471 60.2208 33.0418 61.6129 30.5052C63.0045 27.9687 65.1486 25.9254 67.7498 24.6565C68.706 24.1922 69.7131 23.8414 70.7513 23.6113C73.84 24.3119 76.5978 26.0431 78.5709 28.5196C80.544 30.9962 81.6141 34.0706 81.6056 37.2364L81.6047 37.2379Z" fill="#BDBDBD"/>
<path d="M59.9276 37.2337C59.9187 34.066 60.9905 30.9898 62.9657 28.5126C64.9409 26.0354 67.7016 24.3051 70.7929 23.6071C69.0018 23.2169 67.1508 23.1832 65.3466 23.508C63.5424 23.8327 61.8194 24.5095 60.2768 25.4997C58.7341 26.4899 57.4016 27.7741 56.3553 29.2791C55.3094 30.784 54.5698 32.4802 54.1794 34.2707C53.7893 36.0613 53.7553 37.9111 54.0803 39.7147C54.4052 41.5183 55.0823 43.2402 56.0729 44.7822C57.0635 46.3242 58.3484 47.6561 59.854 48.7018C61.3596 49.7475 63.0567 50.4865 64.8481 50.8767C66.8021 51.3135 68.8283 51.3135 70.7822 50.8767C67.6918 50.1723 64.9336 48.4377 62.961 45.9581C60.9883 43.4786 59.9182 40.4017 59.9276 37.2337Z" fill="#E0E0E0"/>
<path d="M87.6139 37.2372C87.5939 39.9737 86.7641 42.6431 85.2287 44.909C83.6937 47.1749 81.5216 48.9359 78.9871 49.97C76.4522 51.0042 73.6676 51.2652 70.9847 50.7202C68.3018 50.1752 65.84 48.8485 63.9103 46.9075C61.9802 44.9664 60.6685 42.4978 60.1398 39.8126C59.6112 37.1275 59.8897 34.3461 60.9403 31.8189C61.9904 29.2917 63.7657 27.1318 66.042 25.6114C68.3183 24.0911 70.9945 23.2782 73.7323 23.2754H73.7612C77.45 23.2915 80.9819 24.7713 83.5797 27.3894C86.1776 30.0076 87.6288 33.5497 87.6144 37.2372H87.6139Z" fill="#BDBDBD"/>
</g>
<defs>
<clipPath id="clip0_10169_87896">
<rect width="84.639" height="27.9309" fill="white" transform="translate(3.38672 23.2754)"/>
</clipPath>
</defs>
</svg>
