<svg width="88" height="72" viewBox="0 0 88 72" fill="none" xmlns="http://www.w3.org/2000/svg">
<path fill-rule="evenodd" clip-rule="evenodd" d="M40.6064 30.6833H46.8885V43.684H54.0483C55.394 43.684 56.1288 42.6937 55.759 41.4043C55.0194 38.8251 51.9062 37.8101 48.921 37.8101C48.921 35.5671 48.921 30.6956 48.921 30.6956L62.0406 25.0586V31.9068L56.1388 34.2824C58.8096 35.7978 60.8554 37.6246 61.497 39.7626C62.3171 42.6432 61.848 46.1915 59.425 48.5041C57.5436 50.2999 55.865 50.113 54.0483 50.2383L40.6062 50.2514V50.2383H40.5742L40.6064 30.6833Z" fill="#BDBDBD"/>
<path fill-rule="evenodd" clip-rule="evenodd" d="M31.2535 30.6816V42.1425C31.2535 42.9434 30.6493 43.6011 29.8769 43.675L26.6174 30.6819H21.0625L24.3664 43.5899H24.3426L24.3606 43.6826H21.9724L23.225 50.2406L25.6599 50.2423L25.6614 50.2501L30.0099 50.2461L30.0108 50.2446C34.1542 50.2155 37.5049 46.809 37.5049 42.609V30.6816H31.2535Z" fill="#BDBDBD"/>
<path fill-rule="evenodd" clip-rule="evenodd" d="M71.4488 50.2503H65.1641V31.6327L71.4488 29.0723V50.2503Z" fill="#BDBDBD"/>
<path d="M70.5664 22.4913C70.0497 21.9688 69.3501 21.6843 68.6092 21.6725C68.6061 21.6725 68.6031 21.6719 68.5998 21.6719C68.5998 21.6719 68.5961 21.6719 68.5942 21.6719H68.5925H68.5898C68.5871 21.6719 68.5852 21.6719 68.5852 21.6719C68.5802 21.6719 68.5771 21.6723 68.5771 21.6723C67.8329 21.6708 67.1368 21.9513 66.6111 22.4645C66.0844 22.9788 65.7907 23.6675 65.7844 24.4042C65.7775 25.1943 66.0392 25.9164 66.5142 26.4537C66.2549 26.562 66.1292 26.618 65.8358 26.7337C65.3215 26.9365 65.07 27.516 65.2739 28.028C65.4288 28.4166 65.8013 28.6546 66.1966 28.658C66.3223 28.6591 66.4512 28.639 66.5742 28.5877C67.9574 28.0102 69.5266 27.3906 70.1488 26.9103C70.193 26.8763 70.322 26.7808 70.3977 26.7114C71.1167 26.0503 71.3588 25.4773 71.3684 24.3791C71.3744 23.6424 71.084 23.0149 70.5664 22.4913ZM68.5883 25.449C68.0478 25.4441 67.6135 25.004 67.6181 24.4661C67.6226 23.9279 68.0647 23.4958 68.6053 23.5005C69.1458 23.5053 69.5801 23.9455 69.5754 24.4834C69.5709 25.0213 69.1287 25.4539 68.5883 25.449Z" fill="#BDBDBD"/>
</svg>
