<svg width="89" height="72" viewBox="0 0 89 72" fill="none" xmlns="http://www.w3.org/2000/svg">
<path fill-rule="evenodd" clip-rule="evenodd" d="M88.0231 32.959L85.3499 32.9592L85.35 36.5823H79.559V32.959H76.886V36.5823H72.2087C71.3493 36.5823 70.6498 35.8711 70.6498 34.9971L70.6496 32.959L67.9766 32.9592L67.9768 34.9973C67.9768 35.8711 67.2773 36.5823 66.4177 36.5823C65.5579 36.5823 64.8586 35.8711 64.8586 34.9973V32.959H62.1856V34.9973C62.1856 35.8711 61.4861 36.5823 60.6265 36.5823H59.0676V32.959H56.3945V36.5823H42.1395V39.3H45.2576V39.7528C45.2576 42.0005 43.4592 43.829 41.2484 43.829C39.0379 43.829 37.2394 42.0005 37.2394 39.7528V36.5823H34.5664V39.7528C34.5664 43.4991 37.5641 46.5467 41.2484 46.5467C44.9331 46.5467 47.9307 43.4991 47.9307 39.7528V39.3H56.3945H59.0676H60.6265C61.7459 39.3 62.7644 38.855 63.5221 38.131C64.2796 38.855 65.2982 39.3 66.4177 39.3C67.537 39.3 68.5556 38.855 69.3133 38.131C70.0708 38.855 71.0893 39.3 72.2087 39.3H76.886H79.559H88.0231V32.959Z" fill="#BDBDBD"/>
<path fill-rule="evenodd" clip-rule="evenodd" d="M73.6719 44.2607H76.87V46.5481H79.6115V41.5156H73.6719V44.2607Z" fill="#BDBDBD"/>
<path fill-rule="evenodd" clip-rule="evenodd" d="M88.054 27.9316H82.6094V30.4479H88.054V27.9316Z" fill="#BDBDBD"/>
<path fill-rule="evenodd" clip-rule="evenodd" d="M25.6689 37.4882H12.3047V32.959H25.6689V37.4882Z" fill="#BDBDBD"/>
<path fill-rule="evenodd" clip-rule="evenodd" d="M25.6603 46.5546H3.38672V42.0254H25.6603V46.5546Z" fill="#BDBDBD"/>
</svg>
