<svg width="89" height="72" viewBox="0 0 89 72" fill="none" xmlns="http://www.w3.org/2000/svg">
<g clip-path="url(#clip0_10169_87889)">
<path fill-rule="evenodd" clip-rule="evenodd" d="M60.0236 40.1912H64.9695V33.7507H60.0236C59.1698 33.7507 58.375 34.529 58.375 35.3608V38.581C58.375 39.4129 59.1698 40.1912 60.0236 40.1912ZM79.8093 40.1912H84.7551V33.7507H79.8093C78.9555 33.7507 78.1606 34.529 78.1606 35.3608V38.581C78.1606 39.4129 78.9555 40.1912 79.8093 40.1912ZM68.2674 31.3352V42.6067C68.2674 42.9617 67.8074 43.4121 67.4431 43.4121L65.7945 43.429C65.4295 43.429 64.9702 42.9617 64.9702 42.6074V42.0698L64.2217 42.9471C63.9935 43.25 63.4312 43.4121 63.0463 43.4121H60.0236C57.3711 43.4121 55.077 41.1653 55.077 38.581V35.3608C55.077 32.7766 57.3711 30.5305 60.0229 30.5305H67.4431C67.8074 30.5305 68.2674 30.9801 68.2674 31.3352ZM88.0531 31.3352V42.6067C88.0531 42.9617 87.5938 43.4121 87.2288 43.4121L85.5802 43.429C85.2151 43.429 84.7559 42.9617 84.7559 42.6074V42.0698L84.0074 42.9471C83.7792 43.25 83.2169 43.4121 82.832 43.4121H79.8093C77.1568 43.4121 74.8627 41.1653 74.8627 38.581V35.3608C74.8627 32.7766 77.1568 30.5305 79.8085 30.5305H87.2288C87.5931 30.5305 88.0531 30.9801 88.0531 31.3352ZM33.0929 33.7507H28.1463C27.2926 33.7507 26.4977 34.529 26.4977 35.3608V38.581C26.4977 39.4129 27.2926 40.1912 28.1463 40.1912H33.0922L33.0929 33.7507ZM36.3902 31.3352V43.6799C36.3902 46.2641 34.0961 48.2425 31.4443 48.2425H28.8941C28.5151 48.2425 28.1581 48.0694 27.9292 47.7745L26.4778 45.904C26.2372 45.5929 26.3719 45.0222 26.7715 45.0222H31.4428C32.2966 45.0222 33.0915 44.5117 33.0915 43.6799V43.4121H28.1456C25.4931 43.4121 23.1997 41.1653 23.1997 38.581V35.3608C23.1997 32.7766 25.4931 30.5305 28.1456 30.5305H31.1683C31.5466 30.5305 31.9588 30.8275 32.2259 31.0667L33.0922 31.8721V31.3344C33.0922 30.9801 33.5522 30.5297 33.9165 30.5297H35.5651C35.9302 30.5297 36.3894 30.9794 36.3894 31.3344L36.3902 31.3352ZM6.71204 38.5818C6.71204 39.4136 7.50691 40.1919 8.36066 40.1919H13.3065V33.7514H8.36066C7.50691 33.7514 6.71204 34.5297 6.71204 35.3615V38.5818ZM15.7787 26.2363C16.1445 26.2363 16.6038 26.686 16.6038 27.0418V42.6074C16.6038 42.9617 16.1445 43.4121 15.7795 43.4121H14.1308C13.7658 43.4121 13.3065 42.9625 13.3065 42.6067V42.0698L12.4417 42.9735C12.2077 43.2273 11.7558 43.4121 11.3819 43.4121H8.3614C5.70815 43.4121 3.41406 41.1653 3.41406 38.581V35.3858C3.41406 32.8015 5.70815 30.5297 8.35993 30.5297H13.3073V27.0425C13.3073 26.6867 13.7665 26.2371 14.1316 26.2371H15.7802L15.7787 26.2363ZM49.8551 36.9709L54.4448 31.2977C54.7002 30.9889 54.4742 30.529 54.0672 30.529H51.4427C51.244 30.529 51.0563 30.6163 50.9304 30.7659L46.2834 36.434V27.0418C46.2834 26.686 45.8234 26.2363 45.4591 26.2363H43.8104C43.4454 26.2363 42.9861 26.686 42.9861 27.0418V42.6074C42.9861 42.9617 43.4454 43.4121 43.8104 43.4121H45.4591C45.8234 43.4121 46.2834 42.9617 46.2834 42.6067V37.5079L50.9326 43.1884C51.0578 43.3402 51.2476 43.429 51.4478 43.429H54.0694C54.4772 43.429 54.7024 42.9691 54.4477 42.6603L49.8551 36.9709ZM38.8638 26.2363C38.4988 26.2363 38.0395 26.686 38.0395 27.0418V28.6519C38.0395 29.0069 38.4988 29.4566 38.8638 29.4566H40.5125C40.8768 29.4566 41.3368 29.0069 41.3368 28.6519V27.0418C41.3368 26.686 40.8768 26.2363 40.5125 26.2363H38.8638ZM38.8638 30.5305C38.4988 30.5305 38.0395 30.9801 38.0395 31.3352V42.6067C38.0395 42.9617 38.6283 43.4283 38.9926 43.4283L40.5125 43.4121C40.8768 43.4121 41.3368 42.9617 41.3368 42.6067V31.3352C41.3368 30.9801 40.8768 30.5305 40.5125 30.5305H38.8638ZM19.0774 26.2363C18.7131 26.2363 18.2531 26.686 18.2531 27.0418V28.6519C18.2531 29.0069 18.7131 29.4566 19.0774 29.4566H20.7261C21.0911 29.4566 21.5504 29.0069 21.5504 28.6519V27.0418C21.5504 26.686 21.0911 26.2363 20.7261 26.2363H19.0774ZM19.0774 30.5305C18.7131 30.5305 18.2531 30.9801 18.2531 31.3352V42.6067C18.2531 42.9617 18.7131 43.4121 19.0774 43.4121H20.7261C21.0911 43.4121 21.5504 42.9617 21.5504 42.6067V31.3352C21.5504 30.9801 21.0911 30.5305 20.7261 30.5305H19.0774ZM73.214 27.0418V42.6074C73.214 42.9617 72.7541 43.4121 72.3897 43.4121H70.7411C70.3761 43.4121 69.9168 42.9617 69.9168 42.6067V27.041C69.9168 26.686 70.3761 26.2363 70.7411 26.2363H72.3897C72.7541 26.2363 73.214 26.686 73.214 27.0418Z" fill="#BDBDBD"/>
</g>
<defs>
<clipPath id="clip0_10169_87889">
<rect width="84.639" height="22.0062" fill="white" transform="translate(3.38672 26.2383)"/>
</clipPath>
</defs>
</svg>
