<svg width="89" height="72" viewBox="0 0 89 72" fill="none" xmlns="http://www.w3.org/2000/svg">
<g clip-path="url(#clip0_10169_87909)">
<path d="M43.5232 45.2814C43.2058 45.2861 42.8943 45.1893 42.6283 45.0034C42.3622 44.8175 42.1537 44.5509 42.0293 44.2375C41.9048 43.924 41.87 43.578 41.9293 43.2433C41.9885 42.9085 42.1392 42.6003 42.3621 42.3577C42.585 42.1152 42.8701 41.9493 43.1811 41.8811C43.4921 41.8129 43.815 41.8455 44.1087 41.9748C44.4024 42.1041 44.6536 42.3242 44.8304 42.6071C45.0072 42.8901 45.1017 43.2231 45.1017 43.5638C45.1041 44.0161 44.9393 44.4509 44.6433 44.773C44.3474 45.095 43.9446 45.2778 43.5232 45.2814ZM40.3661 45.2814C40.0487 45.2861 39.7372 45.1893 39.4712 45.0034C39.2052 44.8175 38.9967 44.5509 38.8722 44.2375C38.7478 43.924 38.713 43.578 38.7722 43.2433C38.8315 42.9085 38.9822 42.6003 39.2051 42.3577C39.428 42.1152 39.7131 41.9493 40.0241 41.8811C40.3351 41.8129 40.658 41.8455 40.9516 41.9748C41.2453 42.1041 41.4965 42.3242 41.6734 42.6071C41.8502 42.8901 41.9446 43.2231 41.9446 43.5638C41.9469 44.016 41.782 44.4508 41.4861 44.7728C41.1902 45.0947 40.7875 45.2777 40.3661 45.2814ZM37.2085 45.2814C36.8911 45.2861 36.5796 45.1893 36.3136 45.0034C36.0476 44.8175 35.8391 44.5509 35.7146 44.2375C35.5901 43.924 35.5553 43.578 35.6146 43.2433C35.6739 42.9085 35.8245 42.6003 36.0474 42.3577C36.2703 42.1152 36.5554 41.9493 36.8664 41.8811C37.1774 41.8129 37.5003 41.8455 37.794 41.9748C38.0877 42.1041 38.3389 42.3242 38.5157 42.6071C38.6926 42.8901 38.787 43.2231 38.787 43.5638C38.7894 44.0161 38.6246 44.4509 38.3287 44.773C38.0327 45.095 37.6299 45.2778 37.2085 45.2814ZM34.0515 45.2814C33.7341 45.2861 33.4225 45.1893 33.1565 45.0034C32.8905 44.8175 32.682 44.5509 32.5576 44.2375C32.4331 43.924 32.3983 43.578 32.4576 43.2433C32.5168 42.9085 32.6675 42.6003 32.8904 42.3577C33.1133 42.1152 33.3984 41.9493 33.7094 41.8811C34.0204 41.8129 34.3433 41.8455 34.637 41.9748C34.9306 42.1041 35.1819 42.3242 35.3587 42.6071C35.5355 42.8901 35.6299 43.2231 35.63 43.5638C35.6322 44.016 35.4673 44.4508 35.1714 44.7728C34.8755 45.0947 34.4728 45.2777 34.0515 45.2814ZM30.8944 45.2814C30.577 45.2861 30.2655 45.1893 29.9995 45.0034C29.7335 44.8175 29.525 44.5509 29.4005 44.2375C29.2761 43.924 29.2412 43.578 29.3005 43.2433C29.3598 42.9085 29.5105 42.6003 29.7334 42.3577C29.9563 42.1152 30.2414 41.9493 30.5524 41.8811C30.8634 41.8129 31.1862 41.8455 31.4799 41.9748C31.7736 42.1041 32.0248 42.3242 32.2017 42.6071C32.3785 42.8901 32.4729 43.2231 32.4729 43.5638C32.4754 44.0161 32.3105 44.4509 32.0146 44.773C31.7187 45.095 31.3158 45.2778 30.8944 45.2814ZM41.2754 40.22H5.3032C5.0508 40.2205 4.80085 40.1668 4.56808 40.062C4.3353 39.9572 4.1244 39.8036 3.94777 39.6101C3.5865 39.2173 3.38479 38.687 3.38673 38.1351C3.38749 37.584 3.58881 37.0549 3.94777 36.6608C4.1243 36.4671 4.33518 36.3133 4.56797 36.2084C4.80075 36.1035 5.05074 36.0497 5.3032 36.0502H23.9141L21.8519 32.1626C21.5542 31.6004 21.4737 30.9353 21.6278 30.3101C21.7819 29.6849 22.1582 29.1495 22.676 28.8189L26.4104 26.4731L27.0149 26.0928C27.3033 25.9111 27.6315 25.815 27.9659 25.8145C28.3019 25.8161 28.6314 25.9129 28.9213 26.0953C29.2111 26.2776 29.4509 26.5389 29.6164 26.8527L29.6218 26.8631L29.6273 26.8741C29.8786 27.3515 29.9469 27.9152 29.8177 28.4457C29.6873 28.9738 29.3688 29.4257 28.9308 29.704L26.44 31.2652L26.1951 31.419C26.1321 31.4592 26.0863 31.5243 26.0675 31.6004C26.0487 31.6765 26.0585 31.7574 26.0948 31.8259L28.3359 36.0495H35.558C35.673 36.0498 35.7868 36.0253 35.8928 35.9776C35.9988 35.9299 36.0948 35.8599 36.1753 35.7718C36.3395 35.593 36.4312 35.3519 36.4304 35.1009V33.7083C36.4256 33.3833 36.5117 33.0642 36.6774 32.7921C36.8431 32.52 37.081 32.3074 37.3603 32.1817C37.6396 32.0561 37.9476 32.0231 38.2446 32.087C38.5415 32.1509 38.8138 32.3088 39.0264 32.5403C39.3109 32.8525 39.4708 33.2716 39.472 33.7083V35.1041C39.4709 35.3539 39.5619 35.594 39.7253 35.7719C39.8887 35.9498 40.111 36.051 40.3438 36.0534H41.1865C41.3015 36.0536 41.4153 36.0291 41.5213 35.9814C41.6272 35.9337 41.7233 35.8638 41.8038 35.7757C41.9674 35.5962 42.0591 35.3552 42.0595 35.1041V33.7083C42.0547 33.3833 42.1408 33.0642 42.3065 32.7921C42.4722 32.52 42.7101 32.3074 42.9894 32.1817C43.2687 32.0561 43.5767 32.0231 43.8736 32.087C44.1706 32.1509 44.4429 32.3088 44.6555 32.5403C44.94 32.8525 45.0999 33.2716 45.1011 33.7083V36.3312H45.0926C45.0326 37.3356 44.6377 38.2832 43.9802 39.0007C43.6281 39.3875 43.2073 39.6947 42.7427 39.9041C42.2782 40.1135 41.7793 40.2209 41.2754 40.22Z" fill="#BDBDBD"/>
<path d="M49.3587 45.2814C49.0189 45.2814 48.6852 45.1849 48.3914 45.0018C47.9468 44.7241 47.6226 44.2689 47.4896 43.7355C47.3566 43.2021 47.4256 42.6339 47.6816 42.155L48.9011 39.88C48.2735 39.624 47.7054 39.2247 47.2358 38.7098C46.7663 38.1948 46.4066 37.5765 46.1818 36.8976C45.9569 36.2187 45.8721 35.4955 45.9334 34.778C45.9947 34.0605 46.2005 33.3658 46.5366 32.7421C46.8384 32.1774 47.2412 31.6823 47.7218 31.2851C48.2024 30.888 48.7513 30.5966 49.3371 30.4278C49.9229 30.259 50.534 30.216 51.1353 30.3014C51.7366 30.3867 52.3162 30.5987 52.841 30.9252C53.5416 31.3636 54.1233 31.9908 54.5286 32.7447C54.9339 33.4986 55.1487 34.3531 55.1516 35.2235V27.8994C55.1516 27.3487 55.3555 26.8205 55.7183 26.4311C56.0811 26.0417 56.5732 25.8229 57.0863 25.8229C57.5993 25.8229 58.0914 26.0417 58.4542 26.4311C58.817 26.8205 59.0209 27.3487 59.0209 27.8994V36.0489C59.0217 37.149 58.6158 38.2045 57.8923 38.9837C57.1688 39.7629 56.1868 40.2022 55.1619 40.2051H53.1971L51.0358 44.2393C50.8658 44.5555 50.6214 44.8182 50.3271 45.0011C50.0328 45.184 49.6988 45.2807 49.3587 45.2814ZM50.5376 33.511C50.149 33.5099 49.7733 33.6604 49.4806 33.9346C49.1878 34.2089 48.9979 34.588 48.9464 35.0014C48.8948 35.4148 48.9851 35.8342 49.2004 36.1813C49.4157 36.5285 49.7413 36.7798 50.1165 36.8884C50.4916 36.9969 50.8908 36.9553 51.2395 36.7713C51.5882 36.5873 51.8626 36.2734 52.0116 35.8882C52.1606 35.503 52.174 35.0728 52.0493 34.6778C51.9246 34.2828 51.6703 33.95 51.3338 33.7414C51.0917 33.5913 50.8172 33.5119 50.5376 33.511ZM62.7317 40.2044H62.719C62.4654 40.2051 62.2142 40.1516 61.9801 40.0471C61.746 39.9426 61.5335 39.7892 61.3551 39.5958C60.9944 39.2047 60.7916 38.677 60.7904 38.1267V27.8909C60.7904 27.3412 60.9935 26.8139 61.3551 26.4247C61.7168 26.0355 62.2074 25.816 62.7196 25.8145H62.7323C63.2446 25.8157 63.7356 26.035 64.0975 26.4242C64.4594 26.8135 64.6627 27.341 64.6627 27.8909V38.1267C64.6627 38.6764 64.4596 39.2037 64.0979 39.5929C63.7363 39.9821 63.2456 40.2016 62.7335 40.2031L62.7317 40.2044Z" fill="#BDBDBD"/>
<path d="M83.7843 39.2188C83.1141 40.736 82.077 42.0325 80.781 42.973C79.4851 43.9135 77.9777 44.4636 76.4162 44.5658C74.8548 44.6681 73.2963 44.3188 71.9034 43.5543C70.5106 42.7899 69.3343 41.6383 68.4973 40.2198C67.6603 38.8012 67.1932 37.1676 67.1448 35.4892C67.0964 33.8109 67.4684 32.1494 68.222 30.678C68.9757 29.2066 70.0833 27.9791 71.4295 27.1237C72.7756 26.2682 74.311 25.8161 75.8753 25.8145C77.0478 25.8136 78.2083 26.0674 79.2871 26.5604C80.3658 27.0534 81.3405 27.7755 82.1525 28.6832H87.2188C87.3013 28.6833 87.3824 28.7062 87.4543 28.7498C87.5261 28.7933 87.5862 28.8561 87.6288 28.932C87.6714 29.0078 87.695 29.0942 87.6973 29.1828C87.6996 29.2713 87.6805 29.359 87.642 29.4373L85.9111 32.9647C85.6028 33.5941 85.146 34.1257 84.5865 34.5065C84.603 34.7431 84.6113 34.9821 84.6113 35.2235C84.612 36.1056 84.4974 36.9835 84.2709 37.8314H84.9577C85.1291 37.8314 85.2935 37.9045 85.4147 38.0346C85.5359 38.1647 85.604 38.3411 85.604 38.5251C85.604 38.7091 85.5359 38.8855 85.4147 39.0156C85.2935 39.1457 85.1291 39.2188 84.9577 39.2188H83.7843Z" fill="#BDBDBD"/>
<mask id="mask0_10169_87909" style="mask-type:luminance" maskUnits="userSpaceOnUse" x="67" y="25" width="22" height="20">
<path d="M86.6087 35.1977C86.6087 32.1212 89.3553 29.39 87.2544 27.686C85.8325 26.5362 77.8619 25.8535 75.9575 25.8535C73.6696 25.8772 71.484 26.8745 69.8807 28.6265C68.2774 30.3785 67.3875 32.742 67.4065 35.1977C67.3875 37.6534 68.2774 40.0168 69.8807 41.7688C71.484 43.5208 73.6696 44.5182 75.9575 44.5418C79.2004 44.5418 84.4994 42.5633 85.9485 39.6517C86.6075 38.3325 86.6087 36.8141 86.6087 35.1977Z" fill="white"/>
</mask>
<g mask="url(#mask0_10169_87909)">
<path d="M72.9374 43.2513H72.2331C72.1713 43.2506 72.1123 43.2236 72.069 43.1763C72.0257 43.129 72.0017 43.0652 72.0022 42.9989V42.9937C72.0018 42.9274 72.0259 42.8636 72.0691 42.8162C72.1124 42.7688 72.1713 42.7416 72.2331 42.7406H72.9374C72.9991 42.7416 73.058 42.7688 73.1012 42.8162C73.1443 42.8636 73.1682 42.9274 73.1678 42.9937V42.9989C73.1681 43.0317 73.1624 43.0642 73.151 43.0947C73.1396 43.1251 73.1227 43.1528 73.1013 43.1763C73.0799 43.1997 73.0544 43.2184 73.0263 43.2313C72.9982 43.2442 72.968 43.251 72.9374 43.2513ZM79.6185 42.5862H74.097C74.0352 42.5853 73.9762 42.5582 73.9331 42.5107C73.8899 42.4633 73.866 42.3994 73.8666 42.3331V42.3279C73.8663 42.2951 73.872 42.2625 73.8834 42.2321C73.8948 42.2017 73.9117 42.1739 73.9331 42.1505C73.9545 42.1271 73.98 42.1084 74.0081 42.0955C74.0362 42.0826 74.0664 42.0758 74.097 42.0755H79.6185C79.6802 42.0762 79.7393 42.1031 79.7825 42.1505C79.8258 42.1978 79.8499 42.2616 79.8494 42.3279V42.3331C79.8497 42.366 79.844 42.3986 79.8326 42.4292C79.8211 42.4597 79.8042 42.4875 79.7828 42.511C79.7613 42.5345 79.7358 42.5532 79.7076 42.5661C79.6794 42.579 79.6491 42.5858 79.6185 42.5862ZM73.5021 41.2618H69.2097L67.4062 41.2598V40.241H73.5021C74.0402 40.2403 74.5672 40.077 75.0229 39.7698C75.4786 39.4626 75.8445 39.0239 76.0787 38.5039L76.436 37.7253H72.0614C71.9379 37.7237 71.8201 37.6697 71.7336 37.5751C71.6471 37.4805 71.5991 37.3529 71.6001 37.2204V37.2107C71.5991 37.0782 71.6471 36.9506 71.7336 36.856C71.8201 36.7614 71.9379 36.7074 72.0614 36.7058H77.6965C78.2347 36.7052 78.7617 36.5419 79.2174 36.2347C79.6731 35.9275 80.039 35.4887 80.2732 34.9687L80.6305 34.1901H73.6937C73.5703 34.1885 73.4524 34.1345 73.3659 34.0399C73.2795 33.9453 73.2315 33.8177 73.2324 33.6852V33.6794C73.2313 33.5467 73.2792 33.419 73.3657 33.3243C73.4522 33.2295 73.5701 33.1754 73.6937 33.1739H81.8934C82.4315 33.1731 82.9586 33.0098 83.4142 32.7026C83.8699 32.3954 84.2358 31.9567 84.4701 31.4368L84.8274 30.6581H67.4062V29.6406H85.6435C85.7174 29.641 85.7899 29.6618 85.8541 29.701C85.9182 29.7403 85.9719 29.7965 86.0099 29.8645C86.049 29.933 86.0711 30.0111 86.0743 30.0914C86.0775 30.1716 86.0616 30.2514 86.028 30.3233L85.3014 31.8968C84.9915 32.5848 84.5074 33.1653 83.9045 33.5718C83.3015 33.9782 82.6042 34.1943 81.8922 34.1953H81.674L81.1051 35.4282C80.7951 36.116 80.311 36.6964 79.7081 37.1027C79.1052 37.5091 78.4079 37.725 77.6959 37.7259H77.4789L76.9124 38.9588H80.4721C80.5339 38.9597 80.593 38.9868 80.6362 39.0342C80.6795 39.0816 80.7035 39.1455 80.703 39.2119V39.2171C80.7035 39.2834 80.6795 39.3472 80.6362 39.3945C80.5929 39.4419 80.5339 39.4688 80.4721 39.4695H76.6367C76.2899 40.0198 75.8229 40.4707 75.2766 40.7831C74.7303 41.0955 74.1211 41.2598 73.5021 41.2618ZM78.7618 40.5006H77.1276C77.097 40.5003 77.0667 40.4935 77.0385 40.4806C77.0103 40.4676 76.9848 40.4489 76.9633 40.4254C76.9419 40.4019 76.925 40.3741 76.9135 40.3436C76.9021 40.3131 76.8964 40.2804 76.8967 40.2475V40.2436C76.8964 40.2108 76.9021 40.1781 76.9135 40.1476C76.925 40.1171 76.9419 40.0893 76.9633 40.0658C76.9848 40.0423 77.0103 40.0235 77.0385 40.0106C77.0667 39.9977 77.097 39.9909 77.1276 39.9906H78.7642C78.7949 39.9909 78.8251 39.9977 78.8533 40.0106C78.8815 40.0235 78.9071 40.0423 78.9285 40.0658C78.95 40.0893 78.9669 40.1171 78.9783 40.1476C78.9897 40.1781 78.9955 40.2108 78.9951 40.2436V40.2482C78.9956 40.3144 78.9717 40.3781 78.9285 40.4254C78.8853 40.4727 78.8265 40.4998 78.7648 40.5006H78.7618ZM84.747 38.7311H79.2261C79.1954 38.7307 79.1652 38.7239 79.137 38.711C79.1088 38.6981 79.0832 38.6794 79.0618 38.6559C79.0403 38.6324 79.0234 38.6046 79.012 38.574C79.0006 38.5435 78.9948 38.5109 78.9951 38.478V38.4734C78.9948 38.4406 79.0006 38.4079 79.012 38.3774C79.0234 38.3469 79.0403 38.3191 79.0618 38.2956C79.0832 38.2721 79.1088 38.2533 79.137 38.2404C79.1652 38.2275 79.1954 38.2207 79.2261 38.2204H84.747C84.8088 38.2212 84.8678 38.2483 84.9111 38.2958C84.9544 38.3432 84.9784 38.4071 84.9779 38.4734V38.478C84.9784 38.5444 84.9544 38.6083 84.9111 38.6557C84.8678 38.7031 84.8088 38.7302 84.747 38.7311Z" fill="white" fill-opacity="0.38"/>
</g>
</g>
<defs>
<clipPath id="clip0_10169_87909">
<rect width="84.639" height="19.467" fill="white" transform="translate(3.38672 25.8145)"/>
</clipPath>
</defs>
</svg>
