<svg width="89" height="72" viewBox="0 0 89 72" fill="none" xmlns="http://www.w3.org/2000/svg">
<g clip-path="url(#clip0_10169_87873)">
<path d="M29.8325 28.5979C29.721 27.6103 28.7182 27.0294 27.8825 27.4651C27.3253 27.7555 27.1303 28.2493 27.1303 28.8593C27.1303 30.5731 27.1024 32.2579 27.1024 33.9716C27.1024 35.8016 27.0745 37.6315 27.1303 39.4325C27.1581 40.4491 26.7403 40.8268 25.7653 40.7106C25.6816 40.7106 25.5703 40.6816 25.4866 40.6525C25.1524 40.5654 24.9853 40.362 24.9016 40.0135C24.846 39.723 24.8181 39.4325 24.8181 39.1421C24.8181 35.7435 24.8181 32.3741 24.8181 28.9755C24.8181 28.8303 24.8181 28.6851 24.8181 28.5689C24.7066 27.6103 23.7316 27.0584 22.8959 27.4651C22.3109 27.7555 22.1159 28.2784 22.1159 28.9465C22.1159 31.3284 22.0881 33.7393 22.0881 36.1211C22.0881 37.2249 22.0881 38.3287 22.1159 39.4325C22.1438 40.3039 22.0602 40.4782 21.3638 40.7397C20.2494 40.7397 19.1352 40.7397 18.0487 40.7397C18.0487 40.6525 18.0487 40.6525 18.0487 40.6235C18.1602 40.4491 18.2716 40.2749 18.383 40.1297C19.2466 38.9677 19.6645 37.6025 19.7759 36.1793C19.9709 33.9135 19.358 31.8222 17.8816 30.1374C15.7923 27.7555 13.1737 26.9132 10.1372 27.6684C6.18147 28.627 3.73001 32.7226 4.39859 36.7601C4.70502 38.6483 5.51289 40.2168 6.90576 41.4949C8.04791 42.5405 9.38507 43.1506 10.8894 43.4119C11.0565 43.4411 11.2515 43.3829 11.363 43.6153C10.3322 44.69 9.32936 45.7648 8.29863 46.8395L8.27078 46.8686C7.85291 47.4205 7.88077 48.2048 8.32649 48.7276C8.80007 49.2505 9.55221 49.3377 10.1094 48.9019C10.2487 48.7857 10.3879 48.6696 10.4994 48.5242C11.9758 46.9848 13.4801 45.4453 14.9565 43.9058C15.1795 43.6734 15.4302 43.5573 15.7365 43.5863C16.4052 43.6153 17.0459 43.6444 17.7145 43.6444C21.0574 43.6444 24.3724 43.6153 27.7153 43.6153C27.9381 43.6153 28.1888 43.6153 28.4117 43.6153C29.331 43.5863 29.8603 43.0053 29.8603 42.0468C29.8603 40.943 29.8882 39.8392 29.8882 38.7354C29.8882 35.482 29.8882 32.2288 29.8603 28.9755C29.8325 28.8303 29.8603 28.7141 29.8325 28.5979ZM6.93361 35.4241C6.93361 32.6936 9.21792 30.0793 12.0037 30.1374C14.7895 30.0503 17.1015 32.6645 17.1015 35.4241C17.1015 38.2416 14.7337 40.7106 12.0315 40.7106C9.3015 40.7687 6.93361 38.2706 6.93361 35.4241Z" fill="#BDBDBD"/>
<path d="M57.6338 35.9796C57.4388 36.1539 57.1881 36.0958 56.9652 36.0958C50.0844 36.0958 43.2036 36.0958 36.3228 36.0958C36.2114 36.0958 36.1278 36.0958 36.0164 36.0958C35.5707 36.0958 35.5707 36.0958 35.4871 36.5606C35.4035 37.0835 35.2364 37.6064 35.0414 38.1001C34.9857 38.2453 34.9021 38.3905 34.8742 38.652C35.0414 38.652 35.1528 38.6811 35.2921 38.6811C42.5629 38.6811 49.8058 38.6811 57.0766 38.6811C57.4945 38.6811 57.9123 38.623 58.2745 38.4487C59.7788 37.8387 60.6145 36.2992 60.3638 34.7015C60.0853 32.9007 58.6088 31.7969 57.0209 31.7969C49.7223 31.8259 42.4514 31.7969 35.1528 31.8259C34.9857 31.8259 34.8185 31.7678 34.6793 31.884C34.6235 32.0292 34.735 32.1164 34.7907 32.2326C35.0692 32.7845 35.2921 33.3654 35.4035 33.9755C35.4592 34.2659 35.5707 34.4111 35.8492 34.353C35.9607 34.324 36.0722 34.353 36.1835 34.353C43.0086 34.353 49.8337 34.353 56.6866 34.353C56.8816 34.353 57.0488 34.353 57.2438 34.3821C57.5781 34.4402 57.8845 34.7015 57.9403 35.0211C58.0238 35.3987 57.9403 35.7183 57.6338 35.9796Z" fill="#BDBDBD"/>
<path d="M28.2123 45.7406C27.3209 45.5082 26.5966 45.9439 26.0116 47.0478C25.3987 45.9149 24.6744 45.5082 23.783 45.7406C22.9752 45.973 22.418 46.6992 22.418 47.5415C22.418 48.3839 22.9752 49.1681 23.7552 49.3715C24.1452 49.4877 24.5352 49.4587 24.9252 49.2844C25.4823 49.052 25.7887 48.5873 26.0116 48.0353C26.5687 49.1681 27.2651 49.6039 28.2123 49.3715C29.0201 49.1973 29.6053 48.4129 29.6053 47.5415C29.6331 46.7282 29.0481 45.973 28.2123 45.7406Z" fill="#BDBDBD"/>
<path d="M68.4712 45.7953C67.5519 45.5919 66.7719 46.0277 66.2705 47.1024C65.6577 45.9696 64.9334 45.5629 64.042 45.7953C63.2898 45.9696 62.7326 46.6958 62.677 47.5091C62.649 48.3805 63.1226 49.1357 63.9027 49.4262C64.2927 49.5714 64.6827 49.5714 65.0727 49.4262C65.6577 49.2228 66.0198 48.7872 66.2427 48.1481C66.9112 49.3391 67.6355 49.7167 68.5549 49.4553C69.3906 49.1938 69.8919 48.4676 69.8641 47.5672C69.8363 46.6958 69.2513 45.9696 68.4712 45.7953Z" fill="#BDBDBD"/>
<path d="M80.0848 25.7529C81.0878 25.7529 81.9235 24.8815 81.8956 23.8649C81.8956 22.8482 81.0878 22.0059 80.0848 22.0059C79.082 22.0059 78.2463 22.8482 78.2741 23.8939C78.2741 24.9106 79.082 25.7529 80.0848 25.7529Z" fill="#BDBDBD"/>
<path d="M19.0212 45.6816C18.0462 45.6816 17.2383 46.5239 17.2383 47.5697C17.2383 48.6153 18.0462 49.4868 19.049 49.4578C20.0519 49.4288 20.8319 48.6153 20.8319 47.5697C20.8597 46.5239 20.024 45.6816 19.0212 45.6816Z" fill="#BDBDBD"/>
<path d="M87.8575 34.0029C87.1053 30.2557 83.9853 27.4672 80.0574 27.5253C78.3302 27.5543 76.7423 28.1643 75.3773 29.3262C73.3994 31.04 72.4801 33.2767 72.5358 35.8909C72.5916 37.5465 73.093 39.0861 74.068 40.4222C74.1516 40.5385 74.2908 40.6256 74.263 40.858C73.6501 40.858 73.0651 40.858 72.4523 40.858C71.8394 40.858 71.2266 40.887 70.6137 40.8289H70.5858C70.5301 40.7708 70.5023 40.7127 70.4187 40.7418C70.0566 40.3641 70.1122 39.8704 70.0844 39.3766C70.0844 35.978 70.0566 32.5795 70.0566 29.181C70.0566 28.9486 70.0566 28.7453 70.0008 28.5129C69.8337 27.7286 69.0537 27.2639 68.3294 27.4963C67.6607 27.6996 67.3265 28.1934 67.3265 29.0067C67.3265 32.4633 67.3265 35.9199 67.2987 39.3766C67.2987 40.6837 67.0201 40.9451 65.7107 40.916C65.2372 40.916 65.0143 40.6837 64.9307 40.2189C64.875 39.9866 64.875 39.7833 64.875 39.5508C64.875 38.2727 64.875 36.9657 64.875 35.6876C64.875 35.368 64.9029 35.0776 64.8193 34.7581C64.5407 31.7952 63.0922 29.6748 60.6128 28.2805C59.3871 27.5834 58.05 27.351 56.6571 27.351C49.0242 27.351 41.3912 27.351 33.7583 27.351C33.619 27.351 33.4518 27.322 33.3126 27.3801C33.2568 27.3801 33.1733 27.4091 33.1176 27.4091C32.4211 27.6705 32.0868 28.2805 32.1983 29.0067C32.3097 29.6457 32.839 30.1105 33.5355 30.1105C33.7861 30.1105 34.0368 30.1105 34.2598 30.0814C34.4268 30.0814 34.6218 30.1105 34.789 30.1105C37.5748 30.1105 40.3605 30.1105 43.1462 30.1105C47.6313 30.1105 52.1164 30.1105 56.6014 30.1105C57.9107 30.1105 59.0807 30.4591 60.1114 31.2433C62.4515 33.0733 62.8972 36.5009 60.9193 38.8246C59.8328 40.1027 58.44 40.7418 56.7686 40.7418C49.2192 40.7418 41.6977 40.7418 34.1483 40.7418C34.009 40.7418 33.8976 40.7418 33.7583 40.7418C33.6748 40.7418 33.5911 40.7127 33.5076 40.7127C32.6998 40.7127 32.1147 41.2937 32.0868 42.107C32.059 42.8913 32.6718 43.5303 33.4518 43.5594C33.6748 43.5594 33.8976 43.5303 34.1483 43.5303C34.2876 43.5303 34.4548 43.5594 34.594 43.5594C41.9762 43.5594 49.3585 43.5594 56.7686 43.5594C57.0471 43.5594 57.3257 43.5594 57.6043 43.5303C59.2478 43.3561 60.7243 42.7751 62.0058 41.6422C62.2008 41.8165 62.0893 42.0199 62.0893 42.2232C62.1172 42.8622 62.3122 43.3851 62.8972 43.7046C63.1479 43.8208 63.4265 43.8498 63.705 43.8498C65.3765 43.8498 67.0201 43.8498 68.6915 43.8498C71.3658 43.8498 74.068 43.8208 76.7423 43.7917C77.9402 43.7917 79.138 43.7336 80.3359 43.7336C80.5031 43.7336 80.6702 43.7046 80.8374 43.6755C81.2552 43.7046 81.6452 43.5594 82.0631 43.4722C86.2138 42.4846 88.6653 38.0694 87.8575 34.0029ZM80.3359 40.887C77.5502 40.9451 75.238 38.5052 75.2102 35.6876C75.1823 32.7247 77.5502 30.3719 80.1967 30.3138C82.9267 30.2557 85.3503 32.6376 85.3781 35.5424C85.406 38.389 83.1217 40.887 80.3359 40.887Z" fill="#BDBDBD"/>
</g>
<defs>
<clipPath id="clip0_10169_87873">
<rect width="84.639" height="27.5077" fill="white" transform="translate(3.38672 22.0059)"/>
</clipPath>
</defs>
</svg>
